<svg xmlns="http://www.w3.org/2000/svg" width="27" height="27" viewBox="0 0 27 27" fill="none">
  <g clip-path="url(#clip0_177_3373)">
    <path d="M23.5531 7.98828H3.15758C2.79748 7.98828 2.45212 8.13133 2.19749 8.38597C1.94286 8.6406 1.7998 8.98595 1.7998 9.34606V22.5194C1.7998 22.8795 1.94286 23.2249 2.19749 23.4795C2.45212 23.7341 2.79748 23.8772 3.15758 23.8772H23.5531C23.9132 23.8772 24.2586 23.7341 24.5132 23.4795C24.7679 23.2249 24.9109 22.8795 24.9109 22.5194V9.34606C24.9109 8.98595 24.7679 8.6406 24.5132 8.38597C24.2586 8.13133 23.9132 7.98828 23.5531 7.98828ZM23.4665 22.4327H3.24425V9.43273H23.4665V22.4327Z" fill="black"/>
    <path d="M6.53776 14.8138C6.96629 14.8138 7.38519 14.6867 7.7415 14.4487C8.0978 14.2106 8.37551 13.8722 8.5395 13.4763C8.70349 13.0804 8.7464 12.6447 8.6628 12.2244C8.57919 11.8041 8.37284 11.4181 8.06982 11.1151C7.76681 10.8121 7.38075 10.6057 6.96046 10.5221C6.54016 10.4385 6.10452 10.4814 5.70861 10.6454C5.31271 10.8094 4.97432 11.0871 4.73624 11.4434C4.49817 11.7997 4.37109 12.2186 4.37109 12.6471C4.37109 13.2218 4.59937 13.7729 5.0057 14.1792C5.41202 14.5855 5.96312 14.8138 6.53776 14.8138ZM6.53776 11.4916C6.76745 11.4858 6.99364 11.5487 7.18743 11.6721C7.38122 11.7956 7.53382 11.974 7.62573 12.1845C7.71764 12.3951 7.74468 12.6283 7.70341 12.8543C7.66214 13.0804 7.55442 13.289 7.39403 13.4535C7.23363 13.618 7.02783 13.7309 6.80292 13.7779C6.57802 13.8249 6.34421 13.8038 6.13137 13.7172C5.91853 13.6307 5.73633 13.4826 5.60803 13.292C5.47973 13.1014 5.41117 12.8769 5.41109 12.6471C5.411 12.3456 5.52877 12.056 5.73927 11.8401C5.94977 11.6242 6.23632 11.4991 6.53776 11.4916Z" fill="black"/>
    <path d="M6.06086 20.9886L10.3942 16.6552L12.6909 18.9519L10.6542 20.9886H12.0986L17.4864 15.6008L22.022 20.1002V18.6558L17.8331 14.4886C17.737 14.3933 17.6072 14.3398 17.472 14.3398C17.3367 14.3398 17.2069 14.3933 17.1109 14.4886L13.3842 18.2152L10.7336 15.5719C10.6376 15.4766 10.5078 15.4232 10.3725 15.4232C10.2373 15.4232 10.1075 15.4766 10.0114 15.5719L4.63086 20.9886H6.06086Z" fill="black"/>
    <path d="M22.1234 2.93316C22.1234 2.74161 22.0473 2.55791 21.9118 2.42247C21.7764 2.28703 21.5927 2.21094 21.4012 2.21094H5.51226C5.32072 2.21094 5.13702 2.28703 5.00157 2.42247C4.86613 2.55791 4.79004 2.74161 4.79004 2.93316V3.65538H22.1234V2.93316Z" fill="black"/>
    <path d="M23.5533 5.81988C23.5533 5.62833 23.4772 5.44463 23.3417 5.30919C23.2063 5.17375 23.0226 5.09766 22.8311 5.09766H4.05328C3.86173 5.09766 3.67803 5.17375 3.54259 5.30919C3.40715 5.44463 3.33105 5.62833 3.33105 5.81988V6.5421H23.5533V5.81988Z" fill="black"/>
  </g>
  <defs>
    <clipPath id="clip0_177_3373">
      <rect width="26" height="26" fill="white" transform="translate(0.355469 0.765625)"/>
    </clipPath>
  </defs>
</svg>