<svg xmlns="http://www.w3.org/2000/svg" width="21" height="20" viewBox="0 0 21 20" fill="none">
  <path fill-rule="evenodd" clip-rule="evenodd" d="M8.21068 10.8193C10.9653 10.8193 13.1733 8.58268 13.1733 5.79247C13.1733 3.00225 10.9653 0.765625 8.21068 0.765625C5.45611 0.765625 3.24805 3.00225 3.24805 5.79247C3.24805 8.58268 5.45611 10.8193 8.21068 10.8193ZM8.21094 13.2808C4.16516 13.2808 0.710938 13.9277 0.710938 16.5121C0.710938 19.0954 4.14414 19.7656 8.21094 19.7656C12.2557 19.7656 15.7109 19.1188 15.7109 16.5344C15.7109 13.95 12.2777 13.2808 8.21094 13.2808ZM18.6089 7.85349H19.812C20.3072 7.85349 20.7109 8.26293 20.7109 8.7651C20.7109 9.26727 20.3072 9.67672 19.812 9.67672H18.6089V10.854C18.6089 11.3562 18.2061 11.7656 17.7099 11.7656C17.2147 11.7656 16.8109 11.3562 16.8109 10.854V9.67672H15.6099C15.1137 9.67672 14.7109 9.26727 14.7109 8.7651C14.7109 8.26293 15.1137 7.85349 15.6099 7.85349H16.8109V6.67724C16.8109 6.17507 17.2147 5.76562 17.7099 5.76562C18.2061 5.76562 18.6089 6.17507 18.6089 6.67724V7.85349Z" fill="#0E2041"/>
</svg>