<svg xmlns="http://www.w3.org/2000/svg" width="38" height="38" viewBox="0 0 38 38" fill="none">
  <path d="M17.6426 27.8216H20.357V23.75H17.6426V27.8216Z" fill="#07113D"/>
  <mask id="mask0_261_4778" style="mask-type:luminance" maskUnits="userSpaceOnUse" x="0" y="0" width="38" height="38">
    <path d="M0 0H38V38H0V0Z" fill="white"/>
  </mask>
  <g mask="url(#mask0_261_4778)">
    <path d="M19 36.6428C9.2719 36.6428 1.35721 28.7281 1.35721 19C1.35721 9.2719 9.2719 1.35721 19 1.35721C28.7281 1.35721 36.6428 9.2719 36.6428 19C36.6428 28.7281 28.7281 36.6428 19 36.6428ZM19 0C8.5218 0 0 8.5218 0 19C0 29.4782 8.5218 38 19 38C29.4782 38 38 29.4782 38 19C38 8.5218 29.4782 0 19 0Z" fill="#07113D"/>
  </g>
  <path d="M27.143 25.1059H28.5002V26.4631H27.143V25.1059ZM27.143 22.3915H28.5002V23.7487H27.143V22.3915ZM27.143 19.677H28.5002V21.0342H27.143V19.677ZM25.1074 27.8203H30.5358V18.3203H25.1074V27.8203Z" fill="#07113D"/>
  <path d="M15.6072 19.6788H16.9644V21.036H15.6072V19.6788ZM15.6072 16.9648H16.9644V18.3221H15.6072V16.9648ZM15.6072 14.2504H16.9644V15.6076H15.6072V14.2504ZM15.6072 11.536H16.9644V12.8932H15.6072V11.536ZM15.6072 8.82206H16.9644V10.1788H15.6072V8.82206ZM18.3216 19.6788H19.6784V21.036H18.3216V19.6788ZM18.3216 16.9648H19.6784V18.3221H18.3216V16.9648ZM18.3216 14.2504H19.6784V15.6076H18.3216V14.2504ZM18.3216 11.536H19.6784V12.8932H18.3216V11.536ZM18.3216 8.82206H19.6784V10.1788H18.3216V8.82206ZM21.0356 19.6788H22.3928V21.036H21.0356V19.6788ZM21.0356 16.9648H22.3928V18.3221H21.0356V16.9648ZM21.0356 14.2504H22.3928V15.6076H21.0356V14.2504ZM21.0356 11.536H22.3928V12.8932H21.0356V11.536ZM21.0356 8.82206H22.3928V10.1788H21.0356V8.82206ZM14.25 27.8221H16.2856V23.0721C16.2856 22.698 16.5904 22.3932 16.9644 22.3932H21.0356C21.4096 22.3932 21.7144 22.698 21.7144 23.0721V27.8221H23.75V7.46484H14.25V27.8221Z" fill="#07113D"/>
  <path d="M9.49944 25.1059H10.8567V26.4631H9.49944V25.1059ZM9.49944 22.3915H10.8567V23.7487H9.49944V22.3915ZM9.49944 19.677H10.8567V21.0342H9.49944V19.677ZM7.46387 27.8203H12.8922V18.3203H7.46387V27.8203Z" fill="#07113D"/>
  <path d="M31.2139 29.1788H6.78501C6.41145 29.1788 6.10665 28.874 6.10665 28.5004V17.6432C6.10665 17.2696 6.41145 16.9648 6.78501 16.9648H12.8922V6.78599C12.8922 6.41242 13.197 6.10763 13.5711 6.10763H24.4278C24.8019 6.10763 25.1067 6.41242 25.1067 6.78599V16.9648H31.2139C31.5874 16.9648 31.8922 17.2696 31.8922 17.6432V28.5004C31.8922 28.874 31.5874 29.1788 31.2139 29.1788ZM18.9994 2.71484C10.019 2.71484 2.71387 10.0199 2.71387 19.0004C2.71387 27.9809 10.019 35.286 18.9994 35.286C27.9799 35.286 35.285 27.9809 35.285 19.0004C35.285 10.0199 27.9799 2.71484 18.9994 2.71484Z" fill="#07113D"/>
</svg>