<svg width="22" height="20" viewBox="0 0 22 20" fill="none" xmlns="http://www.w3.org/2000/svg">
<g clip-path="url(#clip0_309_4733)">
<path d="M3.85865 3.63736C4.13775 3.33129 4.11589 2.85692 3.80983 2.57782C3.50376 2.29872 3.02939 2.32058 2.75029 2.62665L3.30447 3.132L3.85865 3.63736ZM7 1.5V2.25C7.0061 2.25 7.0122 2.25 7.01829 2.25C7.02438 2.25 7.03047 2.25 7.03655 2.25C7.04263 2.25 7.04871 2.25 7.05478 2.25C7.06085 2.25 7.06691 2.25 7.07297 2.25C7.07903 2.25 7.08509 2.25 7.09114 2.25C7.09719 2.25 7.10323 2.25 7.10927 2.25C7.11531 2.25 7.12135 2.25 7.12738 2.25C7.13341 2.25 7.13943 2.25 7.14545 2.25C7.15147 2.25 7.15749 2.25 7.1635 2.25C7.1695 2.25 7.17551 2.25 7.18151 2.25C7.18751 2.25 7.1935 2.25 7.19949 2.25C7.20548 2.25 7.21146 2.25 7.21744 2.25C7.22342 2.25 7.2294 2.25 7.23537 2.25C7.24134 2.25 7.2473 2.25 7.25326 2.25C7.25922 2.25 7.26517 2.25 7.27112 2.25C7.27707 2.25 7.28302 2.25 7.28896 2.25C7.2949 2.25 7.30083 2.25 7.30676 2.25C7.31269 2.25 7.31861 2.25 7.32453 2.25C7.33045 2.25 7.33637 2.25 7.34228 2.25C7.34819 2.25 7.3541 2.25 7.36 2.25C7.3659 2.25 7.37179 2.25 7.37768 2.25C7.38358 2.25 7.38946 2.25 7.39534 2.25C7.40122 2.25 7.4071 2.25 7.41297 2.25C7.41885 2.25 7.42471 2.25 7.43057 2.25C7.43644 2.25 7.44229 2.25 7.44815 2.25C7.454 2.25 7.45985 2.25 7.46569 2.25C7.47154 2.25 7.47737 2.25 7.48321 2.25C7.48904 2.25 7.49487 2.25 7.5007 2.25C7.50652 2.25 7.51234 2.25 7.51816 2.25C7.52397 2.25 7.52978 2.25 7.53559 2.25C7.5414 2.25 7.5472 2.25 7.55299 2.25C7.55879 2.25 7.56458 2.25 7.57037 2.25C7.57616 2.25 7.58194 2.25 7.58772 2.25C7.5935 2.25 7.59927 2.25 7.60504 2.25C7.61081 2.25 7.61658 2.25 7.62234 2.25C7.6281 2.25 7.63385 2.25 7.63961 2.25C7.64536 2.25 7.6511 2.25 7.65685 2.25C7.66259 2.25 7.66833 2.25 7.67406 2.25C7.67979 2.25 7.68552 2.25 7.69125 2.25C7.69697 2.25 7.70269 2.25 7.70841 2.25C7.71413 2.25 7.71984 2.25 7.72554 2.25C7.73125 2.25 7.73695 2.25 7.74265 2.25C7.74835 2.25 7.75404 2.25 7.75973 2.25C7.76542 2.25 7.77111 2.25 7.77679 2.25C7.78247 2.25 7.78815 2.25 7.79382 2.25C7.79949 2.25 7.80516 2.25 7.81082 2.25C7.81648 2.25 7.82214 2.25 7.8278 2.25C7.83345 2.25 7.8391 2.25 7.84475 2.25C7.8504 2.25 7.85604 2.25 7.86168 2.25C7.86731 2.25 7.87295 2.25 7.87858 2.25C7.88421 2.25 7.88983 2.25 7.89545 2.25C7.90107 2.25 7.90669 2.25 7.9123 2.25C7.91792 2.25 7.92353 2.25 7.92913 2.25C7.93473 2.25 7.94033 2.25 7.94593 2.25C7.95153 2.25 7.95712 2.25 7.96271 2.25C7.96829 2.25 7.97388 2.25 7.97946 2.25C7.98504 2.25 7.99061 2.25 7.99618 2.25C8.00176 2.25 8.00732 2.25 8.01289 2.25C8.01845 2.25 8.02401 2.25 8.02956 2.25C8.03512 2.25 8.04067 2.25 8.04622 2.25C8.05177 2.25 8.05731 2.25 8.06285 2.25C8.06839 2.25 8.07392 2.25 8.07945 2.25C8.08499 2.25 8.09051 2.25 8.09604 2.25C8.10156 2.25 8.10708 2.25 8.11259 2.25C8.11811 2.25 8.12362 2.25 8.12913 2.25C8.13464 2.25 8.14014 2.25 8.14564 2.25C8.15114 2.25 8.15664 2.25 8.16213 2.25C8.16762 2.25 8.17311 2.25 8.17859 2.25C8.18408 2.25 8.18956 2.25 8.19504 2.25C8.20051 2.25 8.20599 2.25 8.21145 2.25C8.21692 2.25 8.22239 2.25 8.22785 2.25C8.23331 2.25 8.23877 2.25 8.24422 2.25C8.24968 2.25 8.25513 2.25 8.26057 2.25C8.26602 2.25 8.27146 2.25 8.2769 2.25C8.28234 2.25 8.28778 2.25 8.29321 2.25C8.29864 2.25 8.30407 2.25 8.30949 2.25C8.31492 2.25 8.32034 2.25 8.32575 2.25C8.33117 2.25 8.33658 2.25 8.34199 2.25C8.3474 2.25 8.35281 2.25 8.35821 2.25C8.36361 2.25 8.36901 2.25 8.37441 2.25C8.3798 2.25 8.38519 2.25 8.39058 2.25C8.39597 2.25 8.40135 2.25 8.40673 2.25C8.41212 2.25 8.41749 2.25 8.42287 2.25C8.42824 2.25 8.43361 2.25 8.43898 2.25C8.44434 2.25 8.44971 2.25 8.45507 2.25C8.46043 2.25 8.46578 2.25 8.47113 2.25C8.47649 2.25 8.48184 2.25 8.48718 2.25C8.49253 2.25 8.49787 2.25 8.50321 2.25C8.50855 2.25 8.51388 2.25 8.51921 2.25C8.52455 2.25 8.52987 2.25 8.5352 2.25C8.54053 2.25 8.54585 2.25 8.55117 2.25C8.55648 2.25 8.5618 2.25 8.56711 2.25C8.57242 2.25 8.57773 2.25 8.58303 2.25C8.58834 2.25 8.59364 2.25 8.59894 2.25C8.60424 2.25 8.60953 2.25 8.61483 2.25C8.62012 2.25 8.62541 2.25 8.63069 2.25C8.63598 2.25 8.64126 2.25 8.64654 2.25C8.65181 2.25 8.65709 2.25 8.66236 2.25C8.66763 2.25 8.6729 2.25 8.67817 2.25C8.68343 2.25 8.6887 2.25 8.69396 2.25C8.69922 2.25 8.70447 2.25 8.70972 2.25C8.71498 2.25 8.72023 2.25 8.72547 2.25C8.73072 2.25 8.73596 2.25 8.7412 2.25C8.74644 2.25 8.75168 2.25 8.75692 2.25C8.76215 2.25 8.76738 2.25 8.77261 2.25C8.77784 2.25 8.78306 2.25 8.78828 2.25C8.7935 2.25 8.79872 2.25 8.80394 2.25C8.80915 2.25 8.81437 2.25 8.81958 2.25C8.82479 2.25 8.82999 2.25 8.8352 2.25C8.8404 2.25 8.8456 2.25 8.8508 2.25C8.856 2.25 8.86119 2.25 8.86638 2.25C8.87157 2.25 8.87676 2.25 8.88195 2.25C8.88713 2.25 8.89232 2.25 8.8975 2.25C8.90267 2.25 8.90785 2.25 8.91303 2.25C8.9182 2.25 8.92337 2.25 8.92854 2.25C8.93371 2.25 8.93887 2.25 8.94403 2.25C8.9492 2.25 8.95436 2.25 8.95951 2.25C8.96467 2.25 8.96982 2.25 8.97497 2.25C8.98013 2.25 8.98527 2.25 8.99042 2.25C8.99556 2.25 9.00071 2.25 9.00585 2.25C9.01099 2.25 9.01612 2.25 9.02126 2.25C9.02639 2.25 9.03152 2.25 9.03665 2.25C9.04178 2.25 9.04691 2.25 9.05203 2.25C9.05715 2.25 9.06228 2.25 9.06739 2.25C9.07251 2.25 9.07763 2.25 9.08274 2.25C9.08785 2.25 9.09296 2.25 9.09807 2.25C9.10318 2.25 9.10828 2.25 9.11338 2.25C9.11848 2.25 9.12358 2.25 9.12868 2.25C9.13378 2.25 9.13887 2.25 9.14396 2.25C9.14905 2.25 9.15414 2.25 9.15923 2.25C9.16431 2.25 9.1694 2.25 9.17448 2.25C9.17956 2.25 9.18464 2.25 9.18971 2.25C9.19479 2.25 9.19986 2.25 9.20494 2.25C9.21001 2.25 9.21507 2.25 9.22014 2.25C9.22521 2.25 9.23027 2.25 9.23533 2.25C9.24039 2.25 9.24545 2.25 9.25051 2.25C9.25556 2.25 9.26062 2.25 9.26567 2.25C9.27072 2.25 9.27577 2.25 9.28081 2.25C9.28586 2.25 9.2909 2.25 9.29595 2.25C9.30099 2.25 9.30603 2.25 9.31106 2.25C9.3161 2.25 9.32113 2.25 9.32617 2.25C9.3312 2.25 9.33623 2.25 9.34126 2.25C9.34628 2.25 9.35131 2.25 9.35633 2.25C9.36135 2.25 9.36637 2.25 9.37139 2.25C9.37641 2.25 9.38142 2.25 9.38644 2.25C9.39145 2.25 9.39646 2.25 9.40147 2.25C9.40648 2.25 9.41149 2.25 9.41649 2.25C9.4215 2.25 9.4265 2.25 9.4315 2.25C9.4365 2.25 9.4415 2.25 9.44649 2.25C9.45149 2.25 9.45648 2.25 9.46147 2.25C9.46646 2.25 9.47145 2.25 9.47644 2.25C9.48143 2.25 9.48641 2.25 9.4914 2.25C9.49638 2.25 9.50136 2.25 9.50634 2.25C9.51132 2.25 9.51629 2.25 9.52127 2.25C9.52624 2.25 9.53121 2.25 9.53618 2.25C9.54115 2.25 9.54612 2.25 9.55109 2.25C9.55605 2.25 9.56102 2.25 9.56598 2.25C9.57094 2.25 9.5759 2.25 9.58086 2.25C9.58582 2.25 9.59077 2.25 9.59573 2.25C9.60068 2.25 9.60563 2.25 9.61058 2.25C9.61553 2.25 9.62048 2.25 9.62543 2.25C9.63037 2.25 9.63532 2.25 9.64026 2.25C9.6452 2.25 9.65014 2.25 9.65508 2.25C9.66002 2.25 9.66496 2.25 9.66989 2.25C9.67483 2.25 9.67976 2.25 9.68469 2.25C9.68962 2.25 9.69455 2.25 9.69948 2.25C9.7044 2.25 9.70933 2.25 9.71425 2.25C9.71918 2.25 9.7241 2.25 9.72902 2.25C9.73394 2.25 9.73886 2.25 9.74377 2.25C9.74869 2.25 9.7536 2.25 9.75852 2.25C9.76343 2.25 9.76834 2.25 9.77325 2.25C9.77816 2.25 9.78307 2.25 9.78797 2.25C9.79288 2.25 9.79778 2.25 9.80268 2.25C9.80759 2.25 9.81249 2.25 9.81739 2.25C9.82229 2.25 9.82718 2.25 9.83208 2.25C9.83697 2.25 9.84187 2.25 9.84676 2.25C9.85165 2.25 9.85654 2.25 9.86143 2.25C9.86632 2.25 9.87121 2.25 9.8761 2.25C9.88098 2.25 9.88587 2.25 9.89075 2.25C9.89563 2.25 9.90051 2.25 9.90539 2.25C9.91027 2.25 9.91515 2.25 9.92003 2.25C9.9249 2.25 9.92978 2.25 9.93465 2.25C9.93953 2.25 9.9444 2.25 9.94927 2.25C9.95414 2.25 9.95901 2.25 9.96388 2.25C9.96874 2.25 9.97361 2.25 9.97847 2.25C9.98334 2.25 9.9882 2.25 9.99306 2.25C9.99793 2.25 10.0028 2.25 10.0076 2.25C10.0125 2.25 10.0174 2.25 10.0222 2.25C10.0271 2.25 10.0319 2.25 10.0368 2.25C10.0416 2.25 10.0465 2.25 10.0513 2.25C10.0562 2.25 10.061 2.25 10.0659 2.25C10.0707 2.25 10.0756 2.25 10.0804 2.25C10.0853 2.25 10.0901 2.25 10.095 2.25C10.0998 2.25 10.1046 2.25 10.1095 2.25C10.1143 2.25 10.1192 2.25 10.124 2.25C10.1288 2.25 10.1337 2.25 10.1385 2.25C10.1433 2.25 10.1482 2.25 10.153 2.25C10.1578 2.25 10.1627 2.25 10.1675 2.25C10.1723 2.25 10.1772 2.25 10.182 2.25C10.1868 2.25 10.1916 2.25 10.1965 2.25C10.2013 2.25 10.2061 2.25 10.2109 2.25C10.2158 2.25 10.2206 2.25 10.2254 2.25C10.2302 2.25 10.2351 2.25 10.2399 2.25C10.2447 2.25 10.2495 2.25 10.2543 2.25C10.2591 2.25 10.264 2.25 10.2688 2.25C10.2736 2.25 10.2784 2.25 10.2832 2.25C10.288 2.25 10.2928 2.25 10.2976 2.25C10.3025 2.25 10.3073 2.25 10.3121 2.25C10.3169 2.25 10.3217 2.25 10.3265 2.25C10.3313 2.25 10.3361 2.25 10.3409 2.25C10.3457 2.25 10.3505 2.25 10.3553 2.25C10.3601 2.25 10.3649 2.25 10.3697 2.25C10.3745 2.25 10.3793 2.25 10.3841 2.25C10.3889 2.25 10.3937 2.25 10.3985 2.25C10.4033 2.25 10.4081 2.25 10.4129 2.25C10.4177 2.25 10.4225 2.25 10.4273 2.25C10.4321 2.25 10.4369 2.25 10.4417 2.25C10.4465 2.25 10.4513 2.25 10.4561 2.25C10.4609 2.25 10.4656 2.25 10.4704 2.25C10.4752 2.25 10.48 2.25 10.4848 2.25C10.4896 2.25 10.4944 2.25 10.4992 2.25C10.5039 2.25 10.5087 2.25 10.5135 2.25C10.5183 2.25 10.5231 2.25 10.5279 2.25C10.5327 2.25 10.5374 2.25 10.5422 2.25C10.547 2.25 10.5518 2.25 10.5566 2.25C10.5613 2.25 10.5661 2.25 10.5709 2.25C10.5757 2.25 10.5805 2.25 10.5852 2.25C10.59 2.25 10.5948 2.25 10.5996 2.25C10.6044 2.25 10.6091 2.25 10.6139 2.25C10.6187 2.25 10.6235 2.25 10.6282 2.25C10.633 2.25 10.6378 2.25 10.6426 2.25C10.6473 2.25 10.6521 2.25 10.6569 2.25C10.6617 2.25 10.6664 2.25 10.6712 2.25C10.676 2.25 10.6807 2.25 10.6855 2.25C10.6903 2.25 10.6951 2.25 10.6998 2.25C10.7046 2.25 10.7094 2.25 10.7141 2.25C10.7189 2.25 10.7237 2.25 10.7285 2.25C10.7332 2.25 10.738 2.25 10.7428 2.25C10.7475 2.25 10.7523 2.25 10.7571 2.25C10.7618 2.25 10.7666 2.25 10.7714 2.25C10.7761 2.25 10.7809 2.25 10.7857 2.25C10.7904 2.25 10.7952 2.25 10.8 2.25C10.8047 2.25 10.8095 2.25 10.8143 2.25C10.819 2.25 10.8238 2.25 10.8285 2.25C10.8333 2.25 10.8381 2.25 10.8428 2.25C10.8476 2.25 10.8524 2.25 10.8571 2.25C10.8619 2.25 10.8667 2.25 10.8714 2.25C10.8762 2.25 10.8809 2.25 10.8857 2.25C10.8905 2.25 10.8952 2.25 10.9 2.25C10.9048 2.25 10.9095 2.25 10.9143 2.25C10.9191 2.25 10.9238 2.25 10.9286 2.25C10.9333 2.25 10.9381 2.25 10.9429 2.25C10.9476 2.25 10.9524 2.25 10.9571 2.25C10.9619 2.25 10.9667 2.25 10.9714 2.25C10.9762 2.25 10.981 2.25 10.9857 2.25C10.9905 2.25 10.9952 2.25 11 2.25C11.0048 2.25 11.0095 2.25 11.0143 2.25C11.019 2.25 11.0238 2.25 11.0286 2.25C11.0333 2.25 11.0381 2.25 11.0429 2.25C11.0476 2.25 11.0524 2.25 11.0571 2.25C11.0619 2.25 11.0667 2.25 11.0714 2.25C11.0762 2.25 11.0809 2.25 11.0857 2.25C11.0905 2.25 11.0952 2.25 11.1 2.25C11.1048 2.25 11.1095 2.25 11.1143 2.25C11.1191 2.25 11.1238 2.25 11.1286 2.25C11.1333 2.25 11.1381 2.25 11.1429 2.25C11.1476 2.25 11.1524 2.25 11.1572 2.25C11.1619 2.25 11.1667 2.25 11.1715 2.25C11.1762 2.25 11.181 2.25 11.1857 2.25C11.1905 2.25 11.1953 2.25 11.2 2.25C11.2048 2.25 11.2096 2.25 11.2143 2.25C11.2191 2.25 11.2239 2.25 11.2286 2.25C11.2334 2.25 11.2382 2.25 11.2429 2.25C11.2477 2.25 11.2525 2.25 11.2572 2.25C11.262 2.25 11.2668 2.25 11.2715 2.25C11.2763 2.25 11.2811 2.25 11.2859 2.25C11.2906 2.25 11.2954 2.25 11.3002 2.25C11.3049 2.25 11.3097 2.25 11.3145 2.25C11.3193 2.25 11.324 2.25 11.3288 2.25C11.3336 2.25 11.3383 2.25 11.3431 2.25C11.3479 2.25 11.3527 2.25 11.3574 2.25C11.3622 2.25 11.367 2.25 11.3718 2.25C11.3765 2.25 11.3813 2.25 11.3861 2.25C11.3909 2.25 11.3956 2.25 11.4004 2.25C11.4052 2.25 11.41 2.25 11.4148 2.25C11.4195 2.25 11.4243 2.25 11.4291 2.25C11.4339 2.25 11.4387 2.25 11.4434 2.25C11.4482 2.25 11.453 2.25 11.4578 2.25C11.4626 2.25 11.4673 2.25 11.4721 2.25C11.4769 2.25 11.4817 2.25 11.4865 2.25C11.4913 2.25 11.4961 2.25 11.5008 2.25C11.5056 2.25 11.5104 2.25 11.5152 2.25C11.52 2.25 11.5248 2.25 11.5296 2.25C11.5344 2.25 11.5391 2.25 11.5439 2.25C11.5487 2.25 11.5535 2.25 11.5583 2.25C11.5631 2.25 11.5679 2.25 11.5727 2.25C11.5775 2.25 11.5823 2.25 11.5871 2.25C11.5919 2.25 11.5967 2.25 11.6015 2.25C11.6063 2.25 11.6111 2.25 11.6159 2.25C11.6207 2.25 11.6255 2.25 11.6303 2.25C11.6351 2.25 11.6399 2.25 11.6447 2.25C11.6495 2.25 11.6543 2.25 11.6591 2.25C11.6639 2.25 11.6687 2.25 11.6735 2.25C11.6783 2.25 11.6831 2.25 11.6879 2.25C11.6927 2.25 11.6975 2.25 11.7024 2.25C11.7072 2.25 11.712 2.25 11.7168 2.25C11.7216 2.25 11.7264 2.25 11.7312 2.25C11.736 2.25 11.7409 2.25 11.7457 2.25C11.7505 2.25 11.7553 2.25 11.7601 2.25C11.7649 2.25 11.7698 2.25 11.7746 2.25C11.7794 2.25 11.7842 2.25 11.7891 2.25C11.7939 2.25 11.7987 2.25 11.8035 2.25C11.8084 2.25 11.8132 2.25 11.818 2.25C11.8228 2.25 11.8277 2.25 11.8325 2.25C11.8373 2.25 11.8422 2.25 11.847 2.25C11.8518 2.25 11.8567 2.25 11.8615 2.25C11.8663 2.25 11.8712 2.25 11.876 2.25C11.8808 2.25 11.8857 2.25 11.8905 2.25C11.8954 2.25 11.9002 2.25 11.905 2.25C11.9099 2.25 11.9147 2.25 11.9196 2.25C11.9244 2.25 11.9293 2.25 11.9341 2.25C11.939 2.25 11.9438 2.25 11.9487 2.25C11.9535 2.25 11.9584 2.25 11.9632 2.25C11.9681 2.25 11.9729 2.25 11.9778 2.25C11.9826 2.25 11.9875 2.25 11.9924 2.25C11.9972 2.25 12.0021 2.25 12.0069 2.25C12.0118 2.25 12.0167 2.25 12.0215 2.25C12.0264 2.25 12.0313 2.25 12.0361 2.25C12.041 2.25 12.0459 2.25 12.0507 2.25C12.0556 2.25 12.0605 2.25 12.0653 2.25C12.0702 2.25 12.0751 2.25 12.08 2.25C12.0848 2.25 12.0897 2.25 12.0946 2.25C12.0995 2.25 12.1044 2.25 12.1093 2.25C12.1141 2.25 12.119 2.25 12.1239 2.25C12.1288 2.25 12.1337 2.25 12.1386 2.25C12.1435 2.25 12.1483 2.25 12.1532 2.25C12.1581 2.25 12.163 2.25 12.1679 2.25C12.1728 2.25 12.1777 2.25 12.1826 2.25C12.1875 2.25 12.1924 2.25 12.1973 2.25C12.2022 2.25 12.2071 2.25 12.212 2.25C12.2169 2.25 12.2218 2.25 12.2268 2.25C12.2317 2.25 12.2366 2.25 12.2415 2.25C12.2464 2.25 12.2513 2.25 12.2562 2.25C12.2611 2.25 12.2661 2.25 12.271 2.25C12.2759 2.25 12.2808 2.25 12.2857 2.25C12.2907 2.25 12.2956 2.25 12.3005 2.25C12.3055 2.25 12.3104 2.25 12.3153 2.25C12.3202 2.25 12.3252 2.25 12.3301 2.25C12.335 2.25 12.34 2.25 12.3449 2.25C12.3499 2.25 12.3548 2.25 12.3597 2.25C12.3647 2.25 12.3696 2.25 12.3746 2.25C12.3795 2.25 12.3845 2.25 12.3894 2.25C12.3944 2.25 12.3993 2.25 12.4043 2.25C12.4092 2.25 12.4142 2.25 12.4191 2.25C12.4241 2.25 12.4291 2.25 12.434 2.25C12.439 2.25 12.4439 2.25 12.4489 2.25C12.4539 2.25 12.4588 2.25 12.4638 2.25C12.4688 2.25 12.4738 2.25 12.4787 2.25C12.4837 2.25 12.4887 2.25 12.4937 2.25C12.4986 2.25 12.5036 2.25 12.5086 2.25C12.5136 2.25 12.5186 2.25 12.5236 2.25C12.5285 2.25 12.5335 2.25 12.5385 2.25C12.5435 2.25 12.5485 2.25 12.5535 2.25C12.5585 2.25 12.5635 2.25 12.5685 2.25C12.5735 2.25 12.5785 2.25 12.5835 2.25C12.5885 2.25 12.5935 2.25 12.5985 2.25C12.6035 2.25 12.6085 2.25 12.6136 2.25C12.6186 2.25 12.6236 2.25 12.6286 2.25C12.6336 2.25 12.6386 2.25 12.6437 2.25C12.6487 2.25 12.6537 2.25 12.6587 2.25C12.6638 2.25 12.6688 2.25 12.6738 2.25C12.6789 2.25 12.6839 2.25 12.6889 2.25C12.694 2.25 12.699 2.25 12.7041 2.25C12.7091 2.25 12.7141 2.25 12.7192 2.25C12.7242 2.25 12.7293 2.25 12.7343 2.25C12.7394 2.25 12.7444 2.25 12.7495 2.25C12.7545 2.25 12.7596 2.25 12.7647 2.25C12.7697 2.25 12.7748 2.25 12.7799 2.25C12.7849 2.25 12.79 2.25 12.7951 2.25C12.8001 2.25 12.8052 2.25 12.8103 2.25C12.8154 2.25 12.8204 2.25 12.8255 2.25C12.8306 2.25 12.8357 2.25 12.8408 2.25C12.8459 2.25 12.8509 2.25 12.856 2.25C12.8611 2.25 12.8662 2.25 12.8713 2.25C12.8764 2.25 12.8815 2.25 12.8866 2.25C12.8917 2.25 12.8968 2.25 12.9019 2.25C12.907 2.25 12.9121 2.25 12.9173 2.25C12.9224 2.25 12.9275 2.25 12.9326 2.25C12.9377 2.25 12.9428 2.25 12.948 2.25C12.9531 2.25 12.9582 2.25 12.9633 2.25C12.9685 2.25 12.9736 2.25 12.9787 2.25C12.9839 2.25 12.989 2.25 12.9942 2.25C12.9993 2.25 13.0044 2.25 13.0096 2.25C13.0147 2.25 13.0199 2.25 13.025 2.25C13.0302 2.25 13.0353 2.25 13.0405 2.25C13.0456 2.25 13.0508 2.25 13.056 2.25C13.0611 2.25 13.0663 2.25 13.0715 2.25C13.0766 2.25 13.0818 2.25 13.087 2.25C13.0921 2.25 13.0973 2.25 13.1025 2.25C13.1077 2.25 13.1129 2.25 13.1181 2.25C13.1232 2.25 13.1284 2.25 13.1336 2.25C13.1388 2.25 13.144 2.25 13.1492 2.25C13.1544 2.25 13.1596 2.25 13.1648 2.25C13.17 2.25 13.1752 2.25 13.1804 2.25C13.1856 2.25 13.1908 2.25 13.1961 2.25C13.2013 2.25 13.2065 2.25 13.2117 2.25C13.2169 2.25 13.2222 2.25 13.2274 2.25C13.2326 2.25 13.2379 2.25 13.2431 2.25C13.2483 2.25 13.2536 2.25 13.2588 2.25C13.264 2.25 13.2693 2.25 13.2745 2.25C13.2798 2.25 13.285 2.25 13.2903 2.25C13.2955 2.25 13.3008 2.25 13.306 2.25C13.3113 2.25 13.3166 2.25 13.3218 2.25C13.3271 2.25 13.3324 2.25 13.3376 2.25C13.3429 2.25 13.3482 2.25 13.3535 2.25C13.3587 2.25 13.364 2.25 13.3693 2.25C13.3746 2.25 13.3799 2.25 13.3852 2.25C13.3905 2.25 13.3958 2.25 13.4011 2.25C13.4064 2.25 13.4117 2.25 13.417 2.25C13.4223 2.25 13.4276 2.25 13.4329 2.25C13.4382 2.25 13.4435 2.25 13.4488 2.25C13.4542 2.25 13.4595 2.25 13.4648 2.25C13.4701 2.25 13.4755 2.25 13.4808 2.25C13.4861 2.25 13.4915 2.25 13.4968 2.25C13.5021 2.25 13.5075 2.25 13.5128 2.25C13.5182 2.25 13.5235 2.25 13.5289 2.25C13.5342 2.25 13.5396 2.25 13.5449 2.25C13.5503 2.25 13.5557 2.25 13.561 2.25C13.5664 2.25 13.5718 2.25 13.5771 2.25C13.5825 2.25 13.5879 2.25 13.5933 2.25C13.5986 2.25 13.604 2.25 13.6094 2.25C13.6148 2.25 13.6202 2.25 13.6256 2.25C13.631 2.25 13.6364 2.25 13.6418 2.25C13.6472 2.25 13.6526 2.25 13.658 2.25C13.6634 2.25 13.6688 2.25 13.6742 2.25C13.6797 2.25 13.6851 2.25 13.6905 2.25C13.6959 2.25 13.7014 2.25 13.7068 2.25C13.7122 2.25 13.7177 2.25 13.7231 2.25C13.7285 2.25 13.734 2.25 13.7394 2.25C13.7449 2.25 13.7503 2.25 13.7558 2.25C13.7612 2.25 13.7667 2.25 13.7722 2.25C13.7776 2.25 13.7831 2.25 13.7885 2.25C13.794 2.25 13.7995 2.25 13.805 2.25C13.8104 2.25 13.8159 2.25 13.8214 2.25C13.8269 2.25 13.8324 2.25 13.8379 2.25C13.8434 2.25 13.8489 2.25 13.8544 2.25C13.8599 2.25 13.8654 2.25 13.8709 2.25C13.8764 2.25 13.8819 2.25 13.8874 2.25C13.8929 2.25 13.8984 2.25 13.904 2.25C13.9095 2.25 13.915 2.25 13.9205 2.25C13.9261 2.25 13.9316 2.25 13.9372 2.25C13.9427 2.25 13.9482 2.25 13.9538 2.25C13.9593 2.25 13.9649 2.25 13.9704 2.25C13.976 2.25 13.9815 2.25 13.9871 2.25C13.9927 2.25 13.9982 2.25 14.0038 2.25C14.0094 2.25 14.015 2.25 14.0205 2.25C14.0261 2.25 14.0317 2.25 14.0373 2.25C14.0429 2.25 14.0485 2.25 14.0541 2.25C14.0597 2.25 14.0653 2.25 14.0709 2.25C14.0765 2.25 14.0821 2.25 14.0877 2.25C14.0933 2.25 14.0989 2.25 14.1045 2.25C14.1102 2.25 14.1158 2.25 14.1214 2.25C14.1271 2.25 14.1327 2.25 14.1383 2.25C14.144 2.25 14.1496 2.25 14.1552 2.25C14.1609 2.25 14.1665 2.25 14.1722 2.25C14.1779 2.25 14.1835 2.25 14.1892 2.25C14.1948 2.25 14.2005 2.25 14.2062 2.25C14.2119 2.25 14.2175 2.25 14.2232 2.25C14.2289 2.25 14.2346 2.25 14.2403 2.25C14.246 2.25 14.2517 2.25 14.2573 2.25C14.263 2.25 14.2687 2.25 14.2745 2.25C14.2802 2.25 14.2859 2.25 14.2916 2.25C14.2973 2.25 14.303 2.25 14.3088 2.25C14.3145 2.25 14.3202 2.25 14.3259 2.25C14.3317 2.25 14.3374 2.25 14.3432 2.25C14.3489 2.25 14.3546 2.25 14.3604 2.25C14.3661 2.25 14.3719 2.25 14.3777 2.25C14.3834 2.25 14.3892 2.25 14.395 2.25C14.4007 2.25 14.4065 2.25 14.4123 2.25C14.4181 2.25 14.4238 2.25 14.4296 2.25C14.4354 2.25 14.4412 2.25 14.447 2.25C14.4528 2.25 14.4586 2.25 14.4644 2.25C14.4702 2.25 14.476 2.25 14.4818 2.25C14.4877 2.25 14.4935 2.25 14.4993 2.25C14.5051 2.25 14.511 2.25 14.5168 2.25C14.5226 2.25 14.5285 2.25 14.5343 2.25C14.5402 2.25 14.546 2.25 14.5519 2.25C14.5577 2.25 14.5636 2.25 14.5694 2.25C14.5753 2.25 14.5812 2.25 14.587 2.25C14.5929 2.25 14.5988 2.25 14.6047 2.25C14.6105 2.25 14.6164 2.25 14.6223 2.25C14.6282 2.25 14.6341 2.25 14.64 2.25C14.6459 2.25 14.6518 2.25 14.6577 2.25C14.6636 2.25 14.6695 2.25 14.6755 2.25C14.6814 2.25 14.6873 2.25 14.6932 2.25C14.6992 2.25 14.7051 2.25 14.711 2.25C14.717 2.25 14.7229 2.25 14.7289 2.25C14.7348 2.25 14.7408 2.25 14.7467 2.25C14.7527 2.25 14.7587 2.25 14.7646 2.25C14.7706 2.25 14.7766 2.25 14.7826 2.25C14.7885 2.25 14.7945 2.25 14.8005 2.25C14.8065 2.25 14.8125 2.25 14.8185 2.25C14.8245 2.25 14.8305 2.25 14.8365 2.25C14.8425 2.25 14.8485 2.25 14.8545 2.25C14.8606 2.25 14.8666 2.25 14.8726 2.25C14.8787 2.25 14.8847 2.25 14.8907 2.25C14.8968 2.25 14.9028 2.25 14.9089 2.25C14.9149 2.25 14.921 2.25 14.927 2.25C14.9331 2.25 14.9392 2.25 14.9452 2.25C14.9513 2.25 14.9574 2.25 14.9635 2.25C14.9695 2.25 14.9756 2.25 14.9817 2.25C14.9878 2.25 14.9939 2.25 15 2.25V1.5V0.75C14.9939 0.75 14.9878 0.75 14.9817 0.75C14.9756 0.75 14.9695 0.75 14.9635 0.75C14.9574 0.75 14.9513 0.75 14.9452 0.75C14.9392 0.75 14.9331 0.75 14.927 0.75C14.921 0.75 14.9149 0.75 14.9089 0.75C14.9028 0.75 14.8968 0.75 14.8907 0.75C14.8847 0.75 14.8787 0.75 14.8726 0.75C14.8666 0.75 14.8606 0.75 14.8545 0.75C14.8485 0.75 14.8425 0.75 14.8365 0.75C14.8305 0.75 14.8245 0.75 14.8185 0.75C14.8125 0.75 14.8065 0.75 14.8005 0.75C14.7945 0.75 14.7885 0.75 14.7826 0.75C14.7766 0.75 14.7706 0.75 14.7646 0.75C14.7587 0.75 14.7527 0.75 14.7467 0.75C14.7408 0.75 14.7348 0.75 14.7289 0.75C14.7229 0.75 14.717 0.75 14.711 0.75C14.7051 0.75 14.6992 0.75 14.6932 0.75C14.6873 0.75 14.6814 0.75 14.6755 0.75C14.6695 0.75 14.6636 0.75 14.6577 0.75C14.6518 0.75 14.6459 0.75 14.64 0.75C14.6341 0.75 14.6282 0.75 14.6223 0.75C14.6164 0.75 14.6105 0.75 14.6047 0.75C14.5988 0.75 14.5929 0.75 14.587 0.75C14.5812 0.75 14.5753 0.75 14.5694 0.75C14.5636 0.75 14.5577 0.75 14.5519 0.75C14.546 0.75 14.5402 0.75 14.5343 0.75C14.5285 0.75 14.5226 0.75 14.5168 0.75C14.511 0.75 14.5051 0.75 14.4993 0.75C14.4935 0.75 14.4877 0.75 14.4818 0.75C14.476 0.75 14.4702 0.75 14.4644 0.75C14.4586 0.75 14.4528 0.75 14.447 0.75C14.4412 0.75 14.4354 0.75 14.4296 0.75C14.4238 0.75 14.4181 0.75 14.4123 0.75C14.4065 0.75 14.4007 0.75 14.395 0.75C14.3892 0.75 14.3834 0.75 14.3777 0.75C14.3719 0.75 14.3661 0.75 14.3604 0.75C14.3546 0.75 14.3489 0.75 14.3432 0.75C14.3374 0.75 14.3317 0.75 14.3259 0.75C14.3202 0.75 14.3145 0.75 14.3088 0.75C14.303 0.75 14.2973 0.75 14.2916 0.75C14.2859 0.75 14.2802 0.75 14.2745 0.75C14.2687 0.75 14.263 0.75 14.2573 0.75C14.2517 0.75 14.246 0.75 14.2403 0.75C14.2346 0.75 14.2289 0.75 14.2232 0.75C14.2175 0.75 14.2119 0.75 14.2062 0.75C14.2005 0.75 14.1948 0.75 14.1892 0.75C14.1835 0.75 14.1779 0.75 14.1722 0.75C14.1665 0.75 14.1609 0.75 14.1552 0.75C14.1496 0.75 14.144 0.75 14.1383 0.75C14.1327 0.75 14.1271 0.75 14.1214 0.75C14.1158 0.75 14.1102 0.75 14.1045 0.75C14.0989 0.75 14.0933 0.75 14.0877 0.75C14.0821 0.75 14.0765 0.75 14.0709 0.75C14.0653 0.75 14.0597 0.75 14.0541 0.75C14.0485 0.75 14.0429 0.75 14.0373 0.75C14.0317 0.75 14.0261 0.75 14.0205 0.75C14.015 0.75 14.0094 0.75 14.0038 0.75C13.9982 0.75 13.9927 0.75 13.9871 0.75C13.9815 0.75 13.976 0.75 13.9704 0.75C13.9649 0.75 13.9593 0.75 13.9538 0.75C13.9482 0.75 13.9427 0.75 13.9372 0.75C13.9316 0.75 13.9261 0.75 13.9205 0.75C13.915 0.75 13.9095 0.75 13.904 0.75C13.8984 0.75 13.8929 0.75 13.8874 0.75C13.8819 0.75 13.8764 0.75 13.8709 0.75C13.8654 0.75 13.8599 0.75 13.8544 0.75C13.8489 0.75 13.8434 0.75 13.8379 0.75C13.8324 0.75 13.8269 0.75 13.8214 0.75C13.8159 0.75 13.8104 0.75 13.805 0.75C13.7995 0.75 13.794 0.75 13.7885 0.75C13.7831 0.75 13.7776 0.75 13.7722 0.75C13.7667 0.75 13.7612 0.75 13.7558 0.75C13.7503 0.75 13.7449 0.75 13.7394 0.75C13.734 0.75 13.7285 0.75 13.7231 0.75C13.7177 0.75 13.7122 0.75 13.7068 0.75C13.7014 0.75 13.6959 0.75 13.6905 0.75C13.6851 0.75 13.6797 0.75 13.6742 0.75C13.6688 0.75 13.6634 0.75 13.658 0.75C13.6526 0.75 13.6472 0.75 13.6418 0.75C13.6364 0.75 13.631 0.75 13.6256 0.75C13.6202 0.75 13.6148 0.75 13.6094 0.75C13.604 0.75 13.5986 0.75 13.5933 0.75C13.5879 0.75 13.5825 0.75 13.5771 0.75C13.5718 0.75 13.5664 0.75 13.561 0.75C13.5557 0.75 13.5503 0.75 13.5449 0.75C13.5396 0.75 13.5342 0.75 13.5289 0.75C13.5235 0.75 13.5182 0.75 13.5128 0.75C13.5075 0.75 13.5021 0.75 13.4968 0.75C13.4915 0.75 13.4861 0.75 13.4808 0.75C13.4755 0.75 13.4701 0.75 13.4648 0.75C13.4595 0.75 13.4542 0.75 13.4488 0.75C13.4435 0.75 13.4382 0.75 13.4329 0.75C13.4276 0.75 13.4223 0.75 13.417 0.75C13.4117 0.75 13.4064 0.75 13.4011 0.75C13.3958 0.75 13.3905 0.75 13.3852 0.75C13.3799 0.75 13.3746 0.75 13.3693 0.75C13.364 0.75 13.3587 0.75 13.3535 0.75C13.3482 0.75 13.3429 0.75 13.3376 0.75C13.3324 0.75 13.3271 0.75 13.3218 0.75C13.3166 0.75 13.3113 0.75 13.306 0.75C13.3008 0.75 13.2955 0.75 13.2903 0.75C13.285 0.75 13.2798 0.75 13.2745 0.75C13.2693 0.75 13.264 0.75 13.2588 0.75C13.2536 0.75 13.2483 0.75 13.2431 0.75C13.2379 0.75 13.2326 0.75 13.2274 0.75C13.2222 0.75 13.2169 0.75 13.2117 0.75C13.2065 0.75 13.2013 0.75 13.1961 0.75C13.1908 0.75 13.1856 0.75 13.1804 0.75C13.1752 0.75 13.17 0.75 13.1648 0.75C13.1596 0.75 13.1544 0.75 13.1492 0.75C13.144 0.75 13.1388 0.75 13.1336 0.75C13.1284 0.75 13.1232 0.75 13.1181 0.75C13.1129 0.75 13.1077 0.75 13.1025 0.75C13.0973 0.75 13.0921 0.75 13.087 0.75C13.0818 0.75 13.0766 0.75 13.0715 0.75C13.0663 0.75 13.0611 0.75 13.056 0.75C13.0508 0.75 13.0456 0.75 13.0405 0.75C13.0353 0.75 13.0302 0.75 13.025 0.75C13.0199 0.75 13.0147 0.75 13.0096 0.75C13.0044 0.75 12.9993 0.75 12.9942 0.75C12.989 0.75 12.9839 0.75 12.9787 0.75C12.9736 0.75 12.9685 0.75 12.9633 0.75C12.9582 0.75 12.9531 0.75 12.948 0.75C12.9428 0.75 12.9377 0.75 12.9326 0.75C12.9275 0.75 12.9224 0.75 12.9173 0.75C12.9121 0.75 12.907 0.75 12.9019 0.75C12.8968 0.75 12.8917 0.75 12.8866 0.75C12.8815 0.75 12.8764 0.75 12.8713 0.75C12.8662 0.75 12.8611 0.75 12.856 0.75C12.8509 0.75 12.8459 0.75 12.8408 0.75C12.8357 0.75 12.8306 0.75 12.8255 0.75C12.8204 0.75 12.8154 0.75 12.8103 0.75C12.8052 0.75 12.8001 0.75 12.7951 0.75C12.79 0.75 12.7849 0.75 12.7799 0.75C12.7748 0.75 12.7697 0.75 12.7647 0.75C12.7596 0.75 12.7545 0.75 12.7495 0.75C12.7444 0.75 12.7394 0.75 12.7343 0.75C12.7293 0.75 12.7242 0.75 12.7192 0.75C12.7141 0.75 12.7091 0.75 12.7041 0.75C12.699 0.75 12.694 0.75 12.6889 0.75C12.6839 0.75 12.6789 0.75 12.6738 0.75C12.6688 0.75 12.6638 0.75 12.6587 0.75C12.6537 0.75 12.6487 0.75 12.6437 0.75C12.6386 0.75 12.6336 0.75 12.6286 0.75C12.6236 0.75 12.6186 0.75 12.6136 0.75C12.6085 0.75 12.6035 0.75 12.5985 0.75C12.5935 0.75 12.5885 0.75 12.5835 0.75C12.5785 0.75 12.5735 0.75 12.5685 0.75C12.5635 0.75 12.5585 0.75 12.5535 0.75C12.5485 0.75 12.5435 0.75 12.5385 0.75C12.5335 0.75 12.5285 0.75 12.5236 0.75C12.5186 0.75 12.5136 0.75 12.5086 0.75C12.5036 0.75 12.4986 0.75 12.4937 0.75C12.4887 0.75 12.4837 0.75 12.4787 0.75C12.4738 0.75 12.4688 0.75 12.4638 0.75C12.4588 0.75 12.4539 0.75 12.4489 0.75C12.4439 0.75 12.439 0.75 12.434 0.75C12.4291 0.75 12.4241 0.75 12.4191 0.75C12.4142 0.75 12.4092 0.75 12.4043 0.75C12.3993 0.75 12.3944 0.75 12.3894 0.75C12.3845 0.75 12.3795 0.75 12.3746 0.75C12.3696 0.75 12.3647 0.75 12.3597 0.75C12.3548 0.75 12.3499 0.75 12.3449 0.75C12.34 0.75 12.335 0.75 12.3301 0.75C12.3252 0.75 12.3202 0.75 12.3153 0.75C12.3104 0.75 12.3055 0.75 12.3005 0.75C12.2956 0.75 12.2907 0.75 12.2857 0.75C12.2808 0.75 12.2759 0.75 12.271 0.75C12.2661 0.75 12.2611 0.75 12.2562 0.75C12.2513 0.75 12.2464 0.75 12.2415 0.75C12.2366 0.75 12.2317 0.75 12.2268 0.75C12.2218 0.75 12.2169 0.75 12.212 0.75C12.2071 0.75 12.2022 0.75 12.1973 0.75C12.1924 0.75 12.1875 0.75 12.1826 0.75C12.1777 0.75 12.1728 0.75 12.1679 0.75C12.163 0.75 12.1581 0.75 12.1532 0.75C12.1483 0.75 12.1435 0.75 12.1386 0.75C12.1337 0.75 12.1288 0.75 12.1239 0.75C12.119 0.75 12.1141 0.75 12.1093 0.75C12.1044 0.75 12.0995 0.75 12.0946 0.75C12.0897 0.75 12.0848 0.75 12.08 0.75C12.0751 0.75 12.0702 0.75 12.0653 0.75C12.0605 0.75 12.0556 0.75 12.0507 0.75C12.0459 0.75 12.041 0.75 12.0361 0.75C12.0313 0.75 12.0264 0.75 12.0215 0.75C12.0167 0.75 12.0118 0.75 12.0069 0.75C12.0021 0.75 11.9972 0.75 11.9924 0.75C11.9875 0.75 11.9826 0.75 11.9778 0.75C11.9729 0.75 11.9681 0.75 11.9632 0.75C11.9584 0.75 11.9535 0.75 11.9487 0.75C11.9438 0.75 11.939 0.75 11.9341 0.75C11.9293 0.75 11.9244 0.75 11.9196 0.75C11.9147 0.75 11.9099 0.75 11.905 0.75C11.9002 0.75 11.8954 0.75 11.8905 0.75C11.8857 0.75 11.8808 0.75 11.876 0.75C11.8712 0.75 11.8663 0.75 11.8615 0.75C11.8567 0.75 11.8518 0.75 11.847 0.75C11.8422 0.75 11.8373 0.75 11.8325 0.75C11.8277 0.75 11.8228 0.75 11.818 0.75C11.8132 0.75 11.8084 0.75 11.8035 0.75C11.7987 0.75 11.7939 0.75 11.7891 0.75C11.7842 0.75 11.7794 0.75 11.7746 0.75C11.7698 0.75 11.7649 0.75 11.7601 0.75C11.7553 0.75 11.7505 0.75 11.7457 0.75C11.7409 0.75 11.736 0.75 11.7312 0.75C11.7264 0.75 11.7216 0.75 11.7168 0.75C11.712 0.75 11.7072 0.75 11.7024 0.75C11.6975 0.75 11.6927 0.75 11.6879 0.75C11.6831 0.75 11.6783 0.75 11.6735 0.75C11.6687 0.75 11.6639 0.75 11.6591 0.75C11.6543 0.75 11.6495 0.75 11.6447 0.75C11.6399 0.75 11.6351 0.75 11.6303 0.75C11.6255 0.75 11.6207 0.75 11.6159 0.75C11.6111 0.75 11.6063 0.75 11.6015 0.75C11.5967 0.75 11.5919 0.75 11.5871 0.75C11.5823 0.75 11.5775 0.75 11.5727 0.75C11.5679 0.75 11.5631 0.75 11.5583 0.75C11.5535 0.75 11.5487 0.75 11.5439 0.75C11.5391 0.75 11.5344 0.75 11.5296 0.75C11.5248 0.75 11.52 0.75 11.5152 0.75C11.5104 0.75 11.5056 0.75 11.5008 0.75C11.4961 0.75 11.4913 0.75 11.4865 0.75C11.4817 0.75 11.4769 0.75 11.4721 0.75C11.4673 0.75 11.4626 0.75 11.4578 0.75C11.453 0.75 11.4482 0.75 11.4434 0.75C11.4387 0.75 11.4339 0.75 11.4291 0.75C11.4243 0.75 11.4195 0.75 11.4148 0.75C11.41 0.75 11.4052 0.75 11.4004 0.75C11.3956 0.75 11.3909 0.75 11.3861 0.75C11.3813 0.75 11.3765 0.75 11.3718 0.75C11.367 0.75 11.3622 0.75 11.3574 0.75C11.3527 0.75 11.3479 0.75 11.3431 0.75C11.3383 0.75 11.3336 0.75 11.3288 0.75C11.324 0.75 11.3193 0.75 11.3145 0.75C11.3097 0.75 11.3049 0.75 11.3002 0.75C11.2954 0.75 11.2906 0.75 11.2859 0.75C11.2811 0.75 11.2763 0.75 11.2715 0.75C11.2668 0.75 11.262 0.75 11.2572 0.75C11.2525 0.75 11.2477 0.75 11.2429 0.75C11.2382 0.75 11.2334 0.75 11.2286 0.75C11.2239 0.75 11.2191 0.75 11.2143 0.75C11.2096 0.75 11.2048 0.75 11.2 0.75C11.1953 0.75 11.1905 0.75 11.1857 0.75C11.181 0.75 11.1762 0.75 11.1715 0.75C11.1667 0.75 11.1619 0.75 11.1572 0.75C11.1524 0.75 11.1476 0.75 11.1429 0.75C11.1381 0.75 11.1333 0.75 11.1286 0.75C11.1238 0.75 11.1191 0.75 11.1143 0.75C11.1095 0.75 11.1048 0.75 11.1 0.75C11.0952 0.75 11.0905 0.75 11.0857 0.75C11.0809 0.75 11.0762 0.75 11.0714 0.75C11.0667 0.75 11.0619 0.75 11.0571 0.75C11.0524 0.75 11.0476 0.75 11.0429 0.75C11.0381 0.75 11.0333 0.75 11.0286 0.75C11.0238 0.75 11.019 0.75 11.0143 0.75C11.0095 0.75 11.0048 0.75 11 0.75C10.9952 0.75 10.9905 0.75 10.9857 0.75C10.981 0.75 10.9762 0.75 10.9714 0.75C10.9667 0.75 10.9619 0.75 10.9571 0.75C10.9524 0.75 10.9476 0.75 10.9429 0.75C10.9381 0.75 10.9333 0.75 10.9286 0.75C10.9238 0.75 10.9191 0.75 10.9143 0.75C10.9095 0.75 10.9048 0.75 10.9 0.75C10.8952 0.75 10.8905 0.75 10.8857 0.75C10.8809 0.75 10.8762 0.75 10.8714 0.75C10.8667 0.75 10.8619 0.75 10.8571 0.75C10.8524 0.75 10.8476 0.75 10.8428 0.75C10.8381 0.75 10.8333 0.75 10.8285 0.75C10.8238 0.75 10.819 0.75 10.8143 0.75C10.8095 0.75 10.8047 0.75 10.8 0.75C10.7952 0.75 10.7904 0.75 10.7857 0.75C10.7809 0.75 10.7761 0.75 10.7714 0.75C10.7666 0.75 10.7618 0.75 10.7571 0.75C10.7523 0.75 10.7475 0.75 10.7428 0.75C10.738 0.75 10.7332 0.75 10.7285 0.75C10.7237 0.75 10.7189 0.75 10.7141 0.75C10.7094 0.75 10.7046 0.75 10.6998 0.75C10.6951 0.75 10.6903 0.75 10.6855 0.75C10.6807 0.75 10.676 0.75 10.6712 0.75C10.6664 0.75 10.6617 0.75 10.6569 0.75C10.6521 0.75 10.6473 0.75 10.6426 0.75C10.6378 0.75 10.633 0.75 10.6282 0.75C10.6235 0.75 10.6187 0.75 10.6139 0.75C10.6091 0.75 10.6044 0.75 10.5996 0.75C10.5948 0.75 10.59 0.75 10.5852 0.75C10.5805 0.75 10.5757 0.75 10.5709 0.75C10.5661 0.75 10.5613 0.75 10.5566 0.75C10.5518 0.75 10.547 0.75 10.5422 0.75C10.5374 0.75 10.5327 0.75 10.5279 0.75C10.5231 0.75 10.5183 0.75 10.5135 0.75C10.5087 0.75 10.5039 0.75 10.4992 0.75C10.4944 0.75 10.4896 0.75 10.4848 0.75C10.48 0.75 10.4752 0.75 10.4704 0.75C10.4656 0.75 10.4609 0.75 10.4561 0.75C10.4513 0.75 10.4465 0.75 10.4417 0.75C10.4369 0.75 10.4321 0.75 10.4273 0.75C10.4225 0.75 10.4177 0.75 10.4129 0.75C10.4081 0.75 10.4033 0.75 10.3985 0.75C10.3937 0.75 10.3889 0.75 10.3841 0.75C10.3793 0.75 10.3745 0.75 10.3697 0.75C10.3649 0.75 10.3601 0.75 10.3553 0.75C10.3505 0.75 10.3457 0.75 10.3409 0.75C10.3361 0.75 10.3313 0.75 10.3265 0.75C10.3217 0.75 10.3169 0.75 10.3121 0.75C10.3073 0.75 10.3025 0.75 10.2976 0.75C10.2928 0.75 10.288 0.75 10.2832 0.75C10.2784 0.75 10.2736 0.75 10.2688 0.75C10.264 0.75 10.2591 0.75 10.2543 0.75C10.2495 0.75 10.2447 0.75 10.2399 0.75C10.2351 0.75 10.2302 0.75 10.2254 0.75C10.2206 0.75 10.2158 0.75 10.2109 0.75C10.2061 0.75 10.2013 0.75 10.1965 0.75C10.1916 0.75 10.1868 0.75 10.182 0.75C10.1772 0.75 10.1723 0.75 10.1675 0.75C10.1627 0.75 10.1578 0.75 10.153 0.75C10.1482 0.75 10.1433 0.75 10.1385 0.75C10.1337 0.75 10.1288 0.75 10.124 0.75C10.1192 0.75 10.1143 0.75 10.1095 0.75C10.1046 0.75 10.0998 0.75 10.095 0.75C10.0901 0.75 10.0853 0.75 10.0804 0.75C10.0756 0.75 10.0707 0.75 10.0659 0.75C10.061 0.75 10.0562 0.75 10.0513 0.75C10.0465 0.75 10.0416 0.75 10.0368 0.75C10.0319 0.75 10.0271 0.75 10.0222 0.75C10.0174 0.75 10.0125 0.75 10.0076 0.75C10.0028 0.75 9.99793 0.75 9.99306 0.75C9.9882 0.75 9.98334 0.75 9.97847 0.75C9.97361 0.75 9.96874 0.75 9.96388 0.75C9.95901 0.75 9.95414 0.75 9.94927 0.75C9.9444 0.75 9.93953 0.75 9.93465 0.75C9.92978 0.75 9.9249 0.75 9.92003 0.75C9.91515 0.75 9.91027 0.75 9.90539 0.75C9.90051 0.75 9.89563 0.75 9.89075 0.75C9.88587 0.75 9.88098 0.75 9.8761 0.75C9.87121 0.75 9.86632 0.75 9.86143 0.75C9.85654 0.75 9.85165 0.75 9.84676 0.75C9.84187 0.75 9.83697 0.75 9.83208 0.75C9.82718 0.75 9.82229 0.75 9.81739 0.75C9.81249 0.75 9.80759 0.75 9.80268 0.75C9.79778 0.75 9.79288 0.75 9.78797 0.75C9.78307 0.75 9.77816 0.75 9.77325 0.75C9.76834 0.75 9.76343 0.75 9.75852 0.75C9.7536 0.75 9.74869 0.75 9.74377 0.75C9.73886 0.75 9.73394 0.75 9.72902 0.75C9.7241 0.75 9.71918 0.75 9.71425 0.75C9.70933 0.75 9.7044 0.75 9.69948 0.75C9.69455 0.75 9.68962 0.75 9.68469 0.75C9.67976 0.75 9.67483 0.75 9.66989 0.75C9.66496 0.75 9.66002 0.75 9.65508 0.75C9.65014 0.75 9.6452 0.75 9.64026 0.75C9.63532 0.75 9.63037 0.75 9.62543 0.75C9.62048 0.75 9.61553 0.75 9.61058 0.75C9.60563 0.75 9.60068 0.75 9.59573 0.75C9.59077 0.75 9.58582 0.75 9.58086 0.75C9.5759 0.75 9.57094 0.75 9.56598 0.75C9.56102 0.75 9.55605 0.75 9.55109 0.75C9.54612 0.75 9.54115 0.75 9.53618 0.75C9.53121 0.75 9.52624 0.75 9.52127 0.75C9.51629 0.75 9.51132 0.75 9.50634 0.75C9.50136 0.75 9.49638 0.75 9.4914 0.75C9.48641 0.75 9.48143 0.75 9.47644 0.75C9.47145 0.75 9.46646 0.75 9.46147 0.75C9.45648 0.75 9.45149 0.75 9.44649 0.75C9.4415 0.75 9.4365 0.75 9.4315 0.75C9.4265 0.75 9.4215 0.75 9.41649 0.75C9.41149 0.75 9.40648 0.75 9.40147 0.75C9.39646 0.75 9.39145 0.75 9.38644 0.75C9.38142 0.75 9.37641 0.75 9.37139 0.75C9.36637 0.75 9.36135 0.75 9.35633 0.75C9.35131 0.75 9.34628 0.75 9.34126 0.75C9.33623 0.75 9.3312 0.75 9.32617 0.75C9.32113 0.75 9.3161 0.75 9.31106 0.75C9.30603 0.75 9.30099 0.75 9.29595 0.75C9.2909 0.75 9.28586 0.75 9.28081 0.75C9.27577 0.75 9.27072 0.75 9.26567 0.75C9.26062 0.75 9.25556 0.75 9.25051 0.75C9.24545 0.75 9.24039 0.75 9.23533 0.75C9.23027 0.75 9.22521 0.75 9.22014 0.75C9.21507 0.75 9.21001 0.75 9.20494 0.75C9.19986 0.75 9.19479 0.75 9.18971 0.75C9.18464 0.75 9.17956 0.75 9.17448 0.75C9.1694 0.75 9.16431 0.75 9.15923 0.75C9.15414 0.75 9.14905 0.75 9.14396 0.75C9.13887 0.75 9.13378 0.75 9.12868 0.75C9.12358 0.75 9.11848 0.75 9.11338 0.75C9.10828 0.75 9.10318 0.75 9.09807 0.75C9.09296 0.75 9.08785 0.75 9.08274 0.75C9.07763 0.75 9.07251 0.75 9.06739 0.75C9.06228 0.75 9.05715 0.75 9.05203 0.75C9.04691 0.75 9.04178 0.75 9.03665 0.75C9.03152 0.75 9.02639 0.75 9.02126 0.75C9.01612 0.75 9.01099 0.75 9.00585 0.75C9.00071 0.75 8.99556 0.75 8.99042 0.75C8.98527 0.75 8.98013 0.75 8.97497 0.75C8.96982 0.75 8.96467 0.75 8.95951 0.75C8.95436 0.75 8.9492 0.75 8.94403 0.75C8.93887 0.75 8.93371 0.75 8.92854 0.75C8.92337 0.75 8.9182 0.75 8.91303 0.75C8.90785 0.75 8.90267 0.75 8.8975 0.75C8.89232 0.75 8.88713 0.75 8.88195 0.75C8.87676 0.75 8.87157 0.75 8.86638 0.75C8.86119 0.75 8.856 0.75 8.8508 0.75C8.8456 0.75 8.8404 0.75 8.8352 0.75C8.82999 0.75 8.82479 0.75 8.81958 0.75C8.81437 0.75 8.80915 0.75 8.80394 0.75C8.79872 0.75 8.7935 0.75 8.78828 0.75C8.78306 0.75 8.77784 0.75 8.77261 0.75C8.76738 0.75 8.76215 0.75 8.75692 0.75C8.75168 0.75 8.74644 0.75 8.7412 0.75C8.73596 0.75 8.73072 0.75 8.72547 0.75C8.72023 0.75 8.71498 0.75 8.70972 0.75C8.70447 0.75 8.69922 0.75 8.69396 0.75C8.6887 0.75 8.68343 0.75 8.67817 0.75C8.6729 0.75 8.66763 0.75 8.66236 0.75C8.65709 0.75 8.65181 0.75 8.64654 0.75C8.64126 0.75 8.63598 0.75 8.63069 0.75C8.62541 0.75 8.62012 0.75 8.61483 0.75C8.60953 0.75 8.60424 0.75 8.59894 0.75C8.59364 0.75 8.58834 0.75 8.58303 0.75C8.57773 0.75 8.57242 0.75 8.56711 0.75C8.5618 0.75 8.55648 0.75 8.55117 0.75C8.54585 0.75 8.54053 0.75 8.5352 0.75C8.52987 0.75 8.52455 0.75 8.51921 0.75C8.51388 0.75 8.50855 0.75 8.50321 0.75C8.49787 0.75 8.49253 0.75 8.48718 0.75C8.48184 0.75 8.47649 0.75 8.47113 0.75C8.46578 0.75 8.46043 0.75 8.45507 0.75C8.44971 0.75 8.44434 0.75 8.43898 0.75C8.43361 0.75 8.42824 0.75 8.42287 0.75C8.41749 0.75 8.41212 0.75 8.40673 0.75C8.40135 0.75 8.39597 0.75 8.39058 0.75C8.38519 0.75 8.3798 0.75 8.37441 0.75C8.36901 0.75 8.36361 0.75 8.35821 0.75C8.35281 0.75 8.3474 0.75 8.34199 0.75C8.33658 0.75 8.33117 0.75 8.32575 0.75C8.32034 0.75 8.31492 0.75 8.30949 0.75C8.30407 0.75 8.29864 0.75 8.29321 0.75C8.28778 0.75 8.28234 0.75 8.2769 0.75C8.27146 0.75 8.26602 0.75 8.26057 0.75C8.25513 0.75 8.24968 0.75 8.24422 0.75C8.23877 0.75 8.23331 0.75 8.22785 0.75C8.22239 0.75 8.21692 0.75 8.21145 0.75C8.20599 0.75 8.20051 0.75 8.19504 0.75C8.18956 0.75 8.18408 0.75 8.17859 0.75C8.17311 0.75 8.16762 0.75 8.16213 0.75C8.15664 0.75 8.15114 0.75 8.14564 0.75C8.14014 0.75 8.13464 0.75 8.12913 0.75C8.12362 0.75 8.11811 0.75 8.11259 0.75C8.10708 0.75 8.10156 0.75 8.09604 0.75C8.09051 0.75 8.08499 0.75 8.07945 0.75C8.07392 0.75 8.06839 0.75 8.06285 0.75C8.05731 0.75 8.05177 0.75 8.04622 0.75C8.04067 0.75 8.03512 0.75 8.02956 0.75C8.02401 0.75 8.01845 0.75 8.01289 0.75C8.00732 0.75 8.00176 0.75 7.99618 0.75C7.99061 0.75 7.98504 0.75 7.97946 0.75C7.97388 0.75 7.96829 0.75 7.96271 0.75C7.95712 0.75 7.95153 0.75 7.94593 0.75C7.94033 0.75 7.93473 0.75 7.92913 0.75C7.92353 0.75 7.91792 0.75 7.9123 0.75C7.90669 0.75 7.90107 0.75 7.89545 0.75C7.88983 0.75 7.88421 0.75 7.87858 0.75C7.87295 0.75 7.86731 0.75 7.86168 0.75C7.85604 0.75 7.8504 0.75 7.84475 0.75C7.8391 0.75 7.83345 0.75 7.8278 0.75C7.82214 0.75 7.81648 0.75 7.81082 0.75C7.80516 0.75 7.79949 0.75 7.79382 0.75C7.78815 0.75 7.78247 0.75 7.77679 0.75C7.77111 0.75 7.76542 0.75 7.75973 0.75C7.75404 0.75 7.74835 0.75 7.74265 0.75C7.73695 0.75 7.73125 0.75 7.72554 0.75C7.71984 0.75 7.71413 0.75 7.70841 0.75C7.70269 0.75 7.69697 0.75 7.69125 0.75C7.68552 0.75 7.67979 0.75 7.67406 0.75C7.66833 0.75 7.66259 0.75 7.65685 0.75C7.6511 0.75 7.64536 0.75 7.63961 0.75C7.63385 0.75 7.6281 0.75 7.62234 0.75C7.61658 0.75 7.61081 0.75 7.60504 0.75C7.59927 0.75 7.5935 0.75 7.58772 0.75C7.58194 0.75 7.57616 0.75 7.57037 0.75C7.56458 0.75 7.55879 0.75 7.55299 0.75C7.5472 0.75 7.5414 0.75 7.53559 0.75C7.52978 0.75 7.52397 0.75 7.51816 0.75C7.51234 0.75 7.50652 0.75 7.5007 0.75C7.49487 0.75 7.48904 0.75 7.48321 0.75C7.47737 0.75 7.47154 0.75 7.46569 0.75C7.45985 0.75 7.454 0.75 7.44815 0.75C7.44229 0.75 7.43644 0.75 7.43057 0.75C7.42471 0.75 7.41885 0.75 7.41297 0.75C7.4071 0.75 7.40122 0.75 7.39534 0.75C7.38946 0.75 7.38358 0.75 7.37768 0.75C7.37179 0.75 7.3659 0.75 7.36 0.75C7.3541 0.75 7.34819 0.75 7.34228 0.75C7.33637 0.75 7.33045 0.75 7.32453 0.75C7.31861 0.75 7.31269 0.75 7.30676 0.75C7.30083 0.75 7.2949 0.75 7.28896 0.75C7.28302 0.75 7.27707 0.75 7.27112 0.75C7.26517 0.75 7.25922 0.75 7.25326 0.75C7.2473 0.75 7.24134 0.75 7.23537 0.75C7.2294 0.75 7.22342 0.75 7.21744 0.75C7.21146 0.75 7.20548 0.75 7.19949 0.75C7.1935 0.75 7.18751 0.75 7.18151 0.75C7.17551 0.75 7.1695 0.75 7.1635 0.75C7.15749 0.75 7.15147 0.75 7.14545 0.75C7.13943 0.75 7.13341 0.75 7.12738 0.75C7.12135 0.75 7.11531 0.75 7.10927 0.75C7.10323 0.75 7.09719 0.75 7.09114 0.75C7.08509 0.75 7.07903 0.75 7.07297 0.75C7.06691 0.75 7.06085 0.75 7.05478 0.75C7.04871 0.75 7.04263 0.75 7.03655 0.75C7.03047 0.75 7.02438 0.75 7.01829 0.75C7.0122 0.75 7.0061 0.75 7 0.75V1.5ZM20 6.5H19.25V14.5H20H20.75V6.5H20ZM15 19.5V18.75H7V19.5V20.25H15V19.5ZM2 14.5H2.75V6.5H2H1.25V14.5H2ZM7 19.5V18.75C4.65279 18.75 2.75 16.8472 2.75 14.5H2H1.25C1.25 17.6756 3.82436 20.25 7 20.25V19.5ZM20 14.5H19.25C19.25 16.8472 17.3472 18.75 15 18.75V19.5V20.25C18.1756 20.25 20.75 17.6756 20.75 14.5H20ZM15 1.5V2.25C17.3472 2.25 19.25 4.15279 19.25 6.5H20H20.75C20.75 3.32436 18.1756 0.75 15 0.75V1.5ZM3.30447 3.132L2.75029 2.62665C1.81891 3.64802 1.25 5.00844 1.25 6.5H2H2.75C2.75 5.39678 3.16936 4.39325 3.85865 3.63736L3.30447 3.132Z" fill="#BDBDBD"/>
<path d="M5 6.5H20" stroke="#BDBDBD" stroke-width="1.5" stroke-linecap="round" stroke-linejoin="round"/>
<path d="M15.5 2.18557e-08L15.5 3" stroke="#BDBDBD" stroke-width="1.5" stroke-linecap="round" stroke-linejoin="round"/>
<path d="M6.5 2.18557e-08L6.5 3" stroke="#BDBDBD" stroke-width="1.5" stroke-linecap="round" stroke-linejoin="round"/>
<path d="M5.5 10.5H6.5" stroke="#BDBDBD" stroke-width="1.5" stroke-linecap="round" stroke-linejoin="round"/>
<path d="M10.5 10.5H11.5" stroke="#BDBDBD" stroke-width="1.5" stroke-linecap="round" stroke-linejoin="round"/>
<path d="M15.5 10.5H16.5" stroke="#BDBDBD" stroke-width="1.5" stroke-linecap="round" stroke-linejoin="round"/>
<path d="M5.5 14.5H6.5" stroke="#BDBDBD" stroke-width="1.5" stroke-linecap="round" stroke-linejoin="round"/>
<path d="M10.5 14.5H11.5" stroke="#BDBDBD" stroke-width="1.5" stroke-linecap="round" stroke-linejoin="round"/>
<path d="M15.5 14.5H16.5" stroke="#BDBDBD" stroke-width="1.5" stroke-linecap="round" stroke-linejoin="round"/>
</g>
<defs>
<clipPath id="clip0_309_4733">
<rect width="22" height="20" fill="white"/>
</clipPath>
</defs>
</svg>
