<svg xmlns="http://www.w3.org/2000/svg" width="19" height="19" viewBox="0 0 19 19" fill="none">
  <path fill-rule="evenodd" clip-rule="evenodd" d="M0.657203 9.3569C0.657203 4.38634 4.68664 0.356903 9.6572 0.356903C14.6278 0.356903 18.6572 4.38634 18.6572 9.3569C18.6572 14.3275 14.6278 18.3569 9.6572 18.3569C4.68664 18.3569 0.657203 14.3275 0.657203 9.3569ZM2.1572 9.3569C2.1572 13.499 5.51507 16.8569 9.6572 16.8569C11.6463 16.8569 13.554 16.0667 14.9605 14.6602C16.367 13.2537 17.1572 11.346 17.1572 9.3569C17.1572 5.21477 13.7993 1.8569 9.6572 1.8569C5.51507 1.8569 2.1572 5.21477 2.1572 9.3569Z" fill="#112211"/>
  <path d="M7.3072 5.5469C7.01169 5.27154 6.55119 5.27967 6.26558 5.56528C5.97997 5.85089 5.97184 6.31139 6.2472 6.6069L8.9072 9.2669V13.3569C8.9072 13.7711 9.24299 14.1069 9.6572 14.1069C10.0714 14.1069 10.4072 13.7711 10.4072 13.3569V8.9569C10.407 8.75806 10.3279 8.56742 10.1872 8.4269L7.3072 5.5469Z" fill="#112211"/>
</svg>