<svg xmlns="http://www.w3.org/2000/svg" width="21" height="21" viewBox="0 0 21 21" fill="none">
  <path d="M10.7105 8.76562C12.5805 8.76562 14.0765 7.41563 14.0765 5.76562C14.0765 4.11562 12.5805 2.76562 10.7105 2.76562C8.84055 2.76562 7.34455 4.11562 7.34455 5.76562C7.34455 7.41563 8.84055 8.76562 10.7105 8.76562ZM10.7105 10.7656C7.63055 10.7656 5.14455 8.52563 5.14455 5.76562C5.14455 3.00563 7.63055 0.765625 10.7105 0.765625C13.7905 0.765625 16.2765 3.00563 16.2765 5.76562C16.2765 8.52563 13.7905 10.7656 10.7105 10.7656ZM3.01055 18.7656H18.4105V17.4356C18.4105 15.6856 15.8695 13.8756 10.7105 13.8756C5.55155 13.8756 3.01055 15.6856 3.01055 17.4356V18.7656ZM10.7105 11.8756C18.0365 11.8756 20.6105 15.2056 20.6105 17.4356V20.7656H0.810547V17.4356C0.810547 15.2056 3.38455 11.8756 10.7105 11.8756Z" fill="black" fill-opacity="0.26"/>
</svg>