<svg xmlns="http://www.w3.org/2000/svg" width="23" height="21" viewBox="0 0 23 21" fill="none">
  <g clip-path="url(#clip0_192_2865)">
    <path d="M18.53 19.0156H18.4131C4.90374 18.3094 2.98561 7.94688 2.71749 4.78438C2.69588 4.53849 2.72786 4.29114 2.81159 4.05651C2.89532 3.82187 3.02915 3.60456 3.20542 3.41703C3.38169 3.2295 3.59693 3.07543 3.83881 2.96365C4.08069 2.85187 4.34445 2.78458 4.61499 2.76563H8.40311C8.6785 2.76538 8.94761 2.84032 9.17561 2.98073C9.4036 3.12113 9.57997 3.32054 9.68186 3.55313L10.7269 5.89063C10.8275 6.11784 10.8524 6.36692 10.7987 6.60693C10.7449 6.84694 10.6147 7.0673 10.4244 7.24063L8.95999 8.58438C9.18873 9.76609 9.81124 10.8554 10.7433 11.705C11.6753 12.5545 12.872 13.1233 14.1712 13.3344L15.6631 11.9906C15.8566 11.8195 16.1013 11.7039 16.3666 11.6583C16.6319 11.6128 16.9061 11.6392 17.155 11.7344L19.7469 12.6781C19.9988 12.7737 20.2138 12.9353 20.3644 13.1423C20.515 13.3493 20.5944 13.5924 20.5925 13.8406V17.1406C20.5925 17.6379 20.3752 18.1148 19.9884 18.4665C19.6016 18.8181 19.077 19.0156 18.53 19.0156ZM4.77999 4.01563C4.59765 4.01563 4.42278 4.08147 4.29385 4.19868C4.16492 4.31589 4.09249 4.47487 4.09249 4.64063V4.69063C4.40874 8.39063 6.43686 17.1406 18.4887 17.7656C18.5791 17.7707 18.6696 17.7595 18.7551 17.7327C18.8407 17.7059 18.9196 17.664 18.9873 17.6094C19.055 17.5549 19.1102 17.4887 19.1497 17.4146C19.1892 17.3406 19.2122 17.2603 19.2175 17.1781V13.8406L16.6256 12.8969L14.6525 14.6781L14.3225 14.6406C8.34124 13.9594 7.52999 8.52188 7.52999 8.46563L7.48874 8.16563L9.44124 6.37188L8.40999 4.01563H4.77999Z" fill="black" fill-opacity="0.26"/>
  </g>
  <defs>
    <clipPath id="clip0_192_2865">
      <rect width="22" height="20" fill="white" transform="translate(0.710938 0.765625)"/>
    </clipPath>
  </defs>
</svg>