<svg xmlns="http://www.w3.org/2000/svg" width="23" height="21" viewBox="0 0 23 21" fill="none">
  <g clip-path="url(#clip0_192_2888)">
    <path fill-rule="evenodd" clip-rule="evenodd" d="M3.71094 8.66749C3.71094 4.29762 7.32871 0.765625 11.7048 0.765625C16.0932 0.765625 19.7109 4.29762 19.7109 8.66749C19.7109 10.8695 18.9175 12.9139 17.6116 14.6466C16.171 16.558 14.3953 18.2233 12.3966 19.5304C11.9392 19.8325 11.5263 19.8553 11.0243 19.5304C9.01422 18.2233 7.23855 16.558 5.81023 14.6466C4.50339 12.9139 3.71094 10.8695 3.71094 8.66749ZM9.07031 8.91356C9.07031 10.3775 10.2538 11.5288 11.7049 11.5288C13.1569 11.5288 14.3518 10.3775 14.3518 8.91356C14.3518 7.46105 13.1569 6.25364 11.7049 6.25364C10.2538 6.25364 9.07031 7.46105 9.07031 8.91356Z" fill="#BDBDBD"/>
  </g>
  <defs>
    <clipPath id="clip0_192_2888">
      <rect width="22" height="20" fill="white" transform="translate(0.710938 0.765625)"/>
    </clipPath>
  </defs>
</svg>