<svg xmlns="http://www.w3.org/2000/svg" width="23" height="21" viewBox="0 0 23 21" fill="none">
  <g clip-path="url(#clip0_192_2885)">
    <path d="M20.2669 4.09766H3.15582C2.83166 4.09766 2.52079 4.21472 2.29157 4.42309C2.06236 4.63147 1.93359 4.91408 1.93359 5.20877V16.3199C1.93359 16.6146 2.06236 16.8972 2.29157 17.1056C2.52079 17.3139 2.83166 17.431 3.15582 17.431H20.2669C20.5911 17.431 20.902 17.3139 21.1312 17.1056C21.3604 16.8972 21.4892 16.6146 21.4892 16.3199V5.20877C21.4892 4.91408 21.3604 4.63147 21.1312 4.42309C20.902 4.21472 20.5911 4.09766 20.2669 4.09766ZM19.3258 16.3199H4.17026L8.44804 12.2977L7.56804 11.5254L3.15582 15.6754V6.05321L10.7519 12.9254C10.9809 13.1324 11.2907 13.2485 11.6136 13.2485C11.9365 13.2485 12.2463 13.1324 12.4753 12.9254L20.2669 5.88099V15.6032L15.7691 11.5143L14.9075 12.2977L19.3258 16.3199ZM3.95637 5.20877H19.2769L11.6136 12.1365L3.95637 5.20877Z" fill="black" fill-opacity="0.26"/>
  </g>
  <defs>
    <clipPath id="clip0_192_2885">
      <rect width="22" height="20" fill="white" transform="translate(0.710938 0.765625)"/>
    </clipPath>
  </defs>
</svg>