<svg xmlns="http://www.w3.org/2000/svg" width="24" height="24" viewBox="0 0 24 24" fill="none">
  <path d="M15.5 16.3333H17.3V9.66667H11.9V16.3333H13.7V11.3333H15.5V16.3333ZM2.9 16.3333V3.83333C2.9 3.61232 2.99482 3.40036 3.1636 3.24408C3.33239 3.0878 3.56131 3 3.8 3H16.4C16.6387 3 16.8676 3.0878 17.0364 3.24408C17.2052 3.40036 17.3 3.61232 17.3 3.83333V8H19.1V16.3333H20V18H2V16.3333H2.9ZM6.5 9.66667V11.3333H8.3V9.66667H6.5ZM6.5 13V14.6667H8.3V13H6.5ZM6.5 6.33333V8H8.3V6.33333H6.5Z" fill="white"/>
</svg>