<svg xmlns="http://www.w3.org/2000/svg" width="27" height="27" viewBox="0 0 27 27" fill="none">
  <g clip-path="url(#clip0_177_3303)">
    <path d="M13.3555 25.1406C10.3386 25.1406 7.44536 23.9422 5.31213 21.809C3.1789 19.6757 1.98047 16.7825 1.98047 13.7656C1.98047 10.7488 3.1789 7.85551 5.31213 5.72229C7.44536 3.58906 10.3386 2.39062 13.3555 2.39062C16.3723 2.39062 19.2656 3.58906 21.3988 5.72229C23.532 7.85551 24.7305 10.7488 24.7305 13.7656C24.7305 16.7825 23.532 19.6757 21.3988 21.809C19.2656 23.9422 16.3723 25.1406 13.3555 25.1406ZM13.3555 26.7656C16.8033 26.7656 20.1099 25.396 22.5479 22.958C24.9858 20.52 26.3555 17.2134 26.3555 13.7656C26.3555 10.3178 24.9858 7.01121 22.5479 4.57324C20.1099 2.13526 16.8033 0.765625 13.3555 0.765625C9.90765 0.765625 6.60105 2.13526 4.16308 4.57324C1.72511 7.01121 0.355469 10.3178 0.355469 13.7656C0.355469 17.2134 1.72511 20.52 4.16308 22.958C6.60105 25.396 9.90765 26.7656 13.3555 26.7656Z" fill="black"/>
    <path d="M14.8666 11.4711L11.1454 11.9375L11.0121 12.555L11.7434 12.6899C12.2211 12.8036 12.3154 12.9759 12.2114 13.452L11.0121 19.0875C10.6969 20.5451 11.1828 21.2309 12.3251 21.2309C13.2108 21.2309 14.2394 20.8214 14.7058 20.2591L14.8488 19.5831C14.5238 19.8691 14.0493 19.9829 13.734 19.9829C13.2871 19.9829 13.1246 19.6692 13.24 19.1167L14.8666 11.4711ZM14.9804 8.07812C14.9804 8.5091 14.8092 8.92243 14.5044 9.22717C14.1997 9.53192 13.7864 9.70312 13.3554 9.70312C12.9244 9.70312 12.5111 9.53192 12.2063 9.22717C11.9016 8.92243 11.7304 8.5091 11.7304 8.07812C11.7304 7.64715 11.9016 7.23382 12.2063 6.92908C12.5111 6.62433 12.9244 6.45313 13.3554 6.45312C13.7864 6.45313 14.1997 6.62433 14.5044 6.92908C14.8092 7.23382 14.9804 7.64715 14.9804 8.07812Z" fill="black"/>
  </g>
  <defs>
    <clipPath id="clip0_177_3303">
      <rect width="26" height="26" fill="white" transform="translate(0.355469 0.765625)"/>
    </clipPath>
  </defs>
</svg>