<svg xmlns="http://www.w3.org/2000/svg"  viewBox="0 0 56 56" fill="none">
  <path d="M27.44 30.8H36.4C37.1933 30.8 37.8583 30.5317 38.395 29.995C38.9317 29.4583 39.2 28.7933 39.2 28C39.2 27.2067 38.9317 26.5417 38.395 26.005C37.8583 25.4683 37.1933 25.2 36.4 25.2H27.44L29.96 22.68C30.4733 22.1667 30.73 21.5133 30.73 20.72C30.73 19.9267 30.4733 19.2733 29.96 18.76C29.4467 18.2467 28.7933 17.99 28 17.99C27.2067 17.99 26.5533 18.2467 26.04 18.76L18.76 26.04C18.2 26.6 17.92 27.2533 17.92 28C17.92 28.7467 18.2 29.4 18.76 29.96L26.04 37.24C26.5533 37.7533 27.2067 38.01 28 38.01C28.7933 38.01 29.4467 37.7533 29.96 37.24C30.4733 36.7267 30.73 36.0733 30.73 35.28C30.73 34.4867 30.4733 33.8333 29.96 33.32L27.44 30.8Z" fill="#B9B9B9"/>
</svg>