<svg width="22" height="20" viewBox="0 0 22 20" fill="none" xmlns="http://www.w3.org/2000/svg">
<path fill-rule="evenodd" clip-rule="evenodd" d="M3 7.90187C3 3.532 6.61777 0 10.9938 0C15.3822 0 19 3.532 19 7.90187C19 10.1039 18.2066 12.1482 16.9007 13.881C15.4601 15.7923 13.6844 17.4576 11.6857 18.7648C11.2282 19.0669 10.8154 19.0897 10.3134 18.7648C8.30328 17.4576 6.52761 15.7923 5.09929 13.881C3.79246 12.1482 3 10.1039 3 7.90187ZM8.35938 8.14794C8.35938 9.61184 9.54284 10.7632 10.9939 10.7632C12.446 10.7632 13.6408 9.61184 13.6408 8.14794C13.6408 6.69543 12.446 5.48801 10.9939 5.48801C9.54284 5.48801 8.35938 6.69543 8.35938 8.14794Z" fill="#BDBDBD"/>
</svg>
