<svg width="22" height="20" viewBox="0 0 22 20" fill="none" xmlns="http://www.w3.org/2000/svg">
<g clip-path="url(#clip0_309_4716)">
<path d="M19.556 3.33203H2.44488C2.12073 3.33203 1.80985 3.44909 1.58064 3.65747C1.35143 3.86584 1.22266 4.14846 1.22266 4.44314V15.5543C1.22266 15.8489 1.35143 16.1316 1.58064 16.3399C1.80985 16.5483 2.12073 16.6654 2.44488 16.6654H19.556C19.8801 16.6654 20.191 16.5483 20.4202 16.3399C20.6494 16.1316 20.7782 15.8489 20.7782 15.5543V4.44314C20.7782 4.14846 20.6494 3.86584 20.4202 3.65747C20.191 3.44909 19.8801 3.33203 19.556 3.33203ZM18.6149 15.5543H3.45932L7.7371 11.532L6.8571 10.7598L2.44488 14.9098V5.28759L10.041 12.1598C10.27 12.3668 10.5798 12.4829 10.9027 12.4829C11.2256 12.4829 11.5353 12.3668 11.7643 12.1598L19.556 5.11536V14.8376L15.0582 10.7487L14.1965 11.532L18.6149 15.5543ZM3.24543 4.44314H18.566L10.9027 11.3709L3.24543 4.44314Z" fill="black" fill-opacity="0.26"/>
</g>
<defs>
<clipPath id="clip0_309_4716">
<rect width="22" height="20" fill="white"/>
</clipPath>
</defs>
</svg>
