<svg width="22" height="20" viewBox="0 0 22 20" fill="none" xmlns="http://www.w3.org/2000/svg">
<g clip-path="url(#clip0_309_4696)">
<path d="M17.819 18.25H17.7022C4.1928 17.5437 2.27467 7.18125 2.00655 4.01875C1.98494 3.77286 2.01692 3.52552 2.10065 3.29088C2.18438 3.05625 2.31821 2.83894 2.49448 2.65141C2.67075 2.46388 2.88599 2.3098 3.12787 2.19802C3.36975 2.08624 3.63351 2.01895 3.90405 2H7.69217C7.96756 1.99976 8.23668 2.07469 8.46467 2.2151C8.69267 2.35551 8.86903 2.55492 8.97092 2.7875L10.0159 5.125C10.1165 5.35222 10.1415 5.6013 10.0877 5.84131C10.034 6.08131 9.90379 6.30167 9.71342 6.475L8.24905 7.81875C8.47779 9.00047 9.1003 10.0898 10.0324 10.9393C10.9644 11.7889 12.161 12.3577 13.4603 12.5688L14.9522 11.225C15.1457 11.0538 15.3904 10.9383 15.6557 10.8927C15.921 10.8471 16.1952 10.8736 16.444 10.9688L19.0359 11.9125C19.2879 12.0081 19.5029 12.1696 19.6535 12.3767C19.8041 12.5837 19.8835 12.8268 19.8815 13.075V16.375C19.8815 16.8723 19.6643 17.3492 19.2775 17.7008C18.8907 18.0525 18.3661 18.25 17.819 18.25ZM4.06905 3.25C3.88671 3.25 3.71184 3.31585 3.58291 3.43306C3.45398 3.55027 3.38155 3.70924 3.38155 3.875V3.925C3.6978 7.625 5.72592 16.375 17.7778 17C17.8681 17.0051 17.9587 16.9939 18.0442 16.9671C18.1298 16.9403 18.2087 16.8984 18.2764 16.8438C18.3441 16.7892 18.3993 16.723 18.4388 16.649C18.4783 16.575 18.5013 16.4946 18.5065 16.4125V13.075L15.9147 12.1312L13.9416 13.9125L13.6115 13.875C7.6303 13.1938 6.81905 7.75625 6.81905 7.7L6.7778 7.4L8.7303 5.60625L7.69905 3.25H4.06905Z" fill="black" fill-opacity="0.26"/>
</g>
<defs>
<clipPath id="clip0_309_4696">
<rect width="22" height="20" fill="white"/>
</clipPath>
</defs>
</svg>
