<svg xmlns="http://www.w3.org/2000/svg" width="39" height="44" viewBox="0 0 39 44" fill="none">
  <mask id="mask0_261_4795" style="mask-type:luminance" maskUnits="userSpaceOnUse" x="0" y="0" width="39" height="44">
    <path d="M0.572266 0H38.558V44H0.572266V0Z" fill="white"/>
  </mask>
  <g mask="url(#mask0_261_4795)">
    <path d="M38.0764 0.505507C36.6646 -1.13364 31.057 2.06211 29.1785 4.24784L24.3197 9.89525L3.20894 5.56506C3.04813 5.53145 2.88225 5.591 2.76659 5.72602L0.760264 8.05916C0.646124 8.19242 0.592859 8.38109 0.61873 8.56624C0.644602 8.75197 0.744538 8.91058 0.889115 8.99489L17.41 18.5963L10.4134 29.002L4.21185 27.7296C4.04952 27.6995 3.88516 27.7555 3.7695 27.8905L2.26387 29.6399C2.15277 29.7691 2.09849 29.9542 2.12081 30.1358C2.14668 30.3209 2.24002 30.4801 2.38003 30.5645L7.48639 33.7602L6.18266 36.7897C6.08577 37.0143 6.12483 37.2856 6.27753 37.4613C6.37594 37.5739 6.50276 37.6299 6.63314 37.6299C6.70923 37.6299 6.78634 37.611 6.85736 37.5698L9.4638 36.0544L12.2133 41.9896C12.2889 42.1505 12.4259 42.2632 12.5821 42.2932C12.6059 42.2968 12.6288 42.2968 12.6546 42.2968C12.7865 42.2968 12.9134 42.239 13.0103 42.1281L14.5154 40.377C14.6315 40.2419 14.6828 40.0515 14.6554 39.8658L13.5607 32.6547L22.5133 24.522L30.774 43.7243C30.8465 43.8929 30.985 44.009 31.1428 44.0385C31.1701 44.0444 31.1955 44.0462 31.2265 44.0462C31.3583 44.0462 31.4821 43.9866 31.579 43.8758L33.5879 41.5426C33.7005 41.4076 33.7553 41.2172 33.7264 41.0279L30.0014 16.4908L34.8596 10.8439C36.7402 8.65999 39.4881 2.14643 38.0764 0.505507Z" fill="#07113D"/>
  </g>
</svg>