<svg xmlns="http://www.w3.org/2000/svg" width="27" height="27" viewBox="0 0 27 27" fill="none">
  <path d="M20.9382 5.10026H18.7715V4.01693C18.7715 3.72961 18.6573 3.45406 18.4542 3.25089C18.251 3.04773 17.9755 2.93359 17.6882 2.93359C17.4008 2.93359 17.1253 3.04773 16.9221 3.25089C16.719 3.45406 16.6048 3.72961 16.6048 4.01693V5.10026H10.1048V4.01693C10.1048 3.72961 9.99068 3.45406 9.78752 3.25089C9.58435 3.04773 9.3088 2.93359 9.02148 2.93359C8.73417 2.93359 8.45862 3.04773 8.25545 3.25089C8.05229 3.45406 7.93815 3.72961 7.93815 4.01693V5.10026H5.77148C4.90953 5.10026 4.08288 5.44267 3.47339 6.05216C2.86389 6.66166 2.52148 7.48831 2.52148 8.35026V21.3503C2.52148 22.2122 2.86389 23.0389 3.47339 23.6484C4.08288 24.2578 4.90953 24.6003 5.77148 24.6003H20.9382C21.8001 24.6003 22.6268 24.2578 23.2362 23.6484C23.8457 23.0389 24.1881 22.2122 24.1881 21.3503V8.35026C24.1881 7.48831 23.8457 6.66166 23.2362 6.05216C22.6268 5.44267 21.8001 5.10026 20.9382 5.10026ZM22.0215 21.3503C22.0215 21.6376 21.9073 21.9131 21.7042 22.1163C21.501 22.3195 21.2255 22.4336 20.9382 22.4336H5.77148C5.48417 22.4336 5.20862 22.3195 5.00545 22.1163C4.80229 21.9131 4.68815 21.6376 4.68815 21.3503V13.7669H22.0215V21.3503ZM22.0215 11.6003H4.68815V8.35026C4.68815 8.06294 4.80229 7.78739 5.00545 7.58423C5.20862 7.38106 5.48417 7.26693 5.77148 7.26693H7.93815V8.35026C7.93815 8.63758 8.05229 8.91313 8.25545 9.11629C8.45862 9.31946 8.73417 9.43359 9.02148 9.43359C9.3088 9.43359 9.58435 9.31946 9.78752 9.11629C9.99068 8.91313 10.1048 8.63758 10.1048 8.35026V7.26693H16.6048V8.35026C16.6048 8.63758 16.719 8.91313 16.9221 9.11629C17.1253 9.31946 17.4008 9.43359 17.6882 9.43359C17.9755 9.43359 18.251 9.31946 18.4542 9.11629C18.6573 8.91313 18.7715 8.63758 18.7715 8.35026V7.26693H20.9382C21.2255 7.26693 21.501 7.38106 21.7042 7.58423C21.9073 7.78739 22.0215 8.06294 22.0215 8.35026V11.6003Z" fill="black"/>
</svg>