<svg xmlns="http://www.w3.org/2000/svg" width="27" height="27" viewBox="0 0 27 27" fill="none">
  <path d="M13.3555 14.8516C15.1504 14.8516 16.6055 13.3965 16.6055 11.6016C16.6055 9.80664 15.1504 8.35156 13.3555 8.35156C11.5605 8.35156 10.1055 9.80664 10.1055 11.6016C10.1055 13.3965 11.5605 14.8516 13.3555 14.8516Z" stroke="#111111" stroke-width="2" stroke-linecap="round" stroke-linejoin="round"/>
  <path d="M13.3561 2.93359C11.0576 2.93359 8.85318 3.84669 7.22786 5.472C5.60255 7.09732 4.68945 9.30172 4.68945 11.6003C4.68945 13.6499 5.12495 14.9911 6.31445 16.4753L13.3561 24.6003L20.3978 16.4753C21.5873 14.9911 22.0228 13.6499 22.0228 11.6003C22.0228 9.30172 21.1097 7.09732 19.4844 5.472C17.8591 3.84669 15.6547 2.93359 13.3561 2.93359V2.93359Z" stroke="#111111" stroke-width="2" stroke-linecap="round" stroke-linejoin="round"/>
</svg>