<svg xmlns="http://www.w3.org/2000/svg"  viewBox="0 0 56 56" fill="none">
  <path d="M28.56 30.8L26.04 33.32C25.5267 33.8333 25.27 34.4867 25.27 35.28C25.27 36.0733 25.5267 36.7267 26.04 37.24C26.5533 37.7533 27.2067 38.01 28 38.01C28.7933 38.01 29.4467 37.7533 29.96 37.24L37.24 29.96C37.8 29.4 38.08 28.7467 38.08 28C38.08 27.2533 37.8 26.6 37.24 26.04L29.96 18.76C29.4467 18.2467 28.7933 17.99 28 17.99C27.2067 17.99 26.5533 18.2467 26.04 18.76C25.5267 19.2733 25.27 19.9267 25.27 20.72C25.27 21.5133 25.5267 22.1667 26.04 22.68L28.56 25.2H19.6C18.8067 25.2 18.1417 25.4683 17.605 26.005C17.0683 26.5417 16.8 27.2067 16.8 28C16.8 28.7933 17.0683 29.4583 17.605 29.995C18.1417 30.5317 18.8067 30.8 19.6 30.8H28.56Z" fill="white"/>
</svg>