<svg xmlns="http://www.w3.org/2000/svg" width="42" height="44" viewBox="0 0 42 44" fill="none">
  <mask id="mask0_261_4797" style="mask-type:luminance" maskUnits="userSpaceOnUse" x="0" y="38" width="42" height="6">
    <path d="M0 38.3984H41.2904V43.9997H0V38.3984Z" fill="white"/>
  </mask>
  <g mask="url(#mask0_261_4797)">
    <path d="M40.9644 40.2921C40.8493 40.151 40.7272 40.0175 40.5977 39.8902C40.4681 39.7635 40.3317 39.6438 40.1889 39.5321C40.0461 39.4204 39.8975 39.3167 39.7426 39.2212C39.5883 39.1261 39.4294 39.0398 39.2653 38.9621C39.1012 38.8843 38.9331 38.8164 38.7615 38.7571C38.5899 38.6983 38.4155 38.6488 38.2387 38.6097C38.0614 38.5699 37.8823 38.5406 37.7021 38.521C37.5219 38.5014 37.3405 38.4916 37.1591 38.4922C36.9777 38.4928 36.7969 38.5032 36.6167 38.5239C36.4365 38.5446 36.2574 38.5751 36.0807 38.616C35.9039 38.6563 35.73 38.7064 35.5584 38.7663C35.3874 38.8262 35.2199 38.8958 35.0564 38.9741C34.8923 39.0524 34.7339 39.14 34.5802 39.2361C34.4259 39.3323 34.2779 39.4371 34.1357 39.5493C33.9935 39.6622 33.8576 39.7825 33.7292 39.9104C33.6002 40.0382 33.4787 40.1723 33.3647 40.314C33.3158 40.3796 33.2628 40.4424 33.2064 40.5017C33.1505 40.561 33.0906 40.6174 33.0279 40.6698C32.9646 40.7222 32.8989 40.7712 32.8304 40.8161C32.7613 40.861 32.6905 40.9013 32.6168 40.9381C32.5437 40.9744 32.4682 41.0067 32.3911 41.0343C32.3139 41.0619 32.2356 41.085 32.1556 41.104C32.0755 41.1224 31.9949 41.1362 31.9132 41.1448C31.832 41.1541 31.7502 41.1581 31.6679 41.1575C31.5861 41.1575 31.5044 41.1518 31.4232 41.142C31.3414 41.1316 31.2608 41.1166 31.1814 41.0976C31.1019 41.0781 31.0236 41.0539 30.9464 41.0251C30.8699 40.9963 30.795 40.9635 30.7219 40.9255C30.6493 40.888 30.5785 40.8466 30.5106 40.8011C30.4426 40.755 30.377 40.7055 30.3148 40.6525C30.2526 40.599 30.1939 40.542 30.138 40.4815C30.0828 40.4217 30.0304 40.3583 29.9826 40.2921C29.8674 40.1516 29.7454 40.0175 29.6158 39.8908C29.4863 39.7635 29.3498 39.6444 29.207 39.5327C29.0636 39.4209 28.9151 39.3173 28.7608 39.2223C28.6065 39.1273 28.447 39.0409 28.2829 38.9632C28.1188 38.8855 27.9512 38.8175 27.7796 38.7588C27.6081 38.6995 27.4336 38.6506 27.2563 38.6108C27.0795 38.5717 26.9004 38.5423 26.7202 38.5227C26.54 38.5032 26.3592 38.4934 26.1772 38.4939C25.9959 38.4945 25.8151 38.5049 25.6349 38.5256C25.4546 38.5463 25.2761 38.5769 25.0994 38.6172C24.9226 38.658 24.7482 38.7081 24.5772 38.768C24.4056 38.8279 24.2386 38.897 24.0745 38.9753C23.911 39.0536 23.7526 39.1411 23.5983 39.2373C23.4446 39.3334 23.2966 39.4376 23.1544 39.5499C23.0122 39.6628 22.8763 39.7831 22.7473 39.9104C22.6183 40.0382 22.4969 40.1729 22.3829 40.314C22.3339 40.3796 22.2815 40.4424 22.2251 40.5017C22.1687 40.561 22.1094 40.6174 22.046 40.6698C21.9833 40.7222 21.9176 40.7712 21.8491 40.8161C21.7806 40.861 21.7092 40.9013 21.6361 40.9381C21.5624 40.9744 21.4875 41.0067 21.4104 41.0343C21.3332 41.0619 21.2549 41.085 21.1749 41.104C21.0948 41.1224 21.0142 41.1362 20.933 41.1448C20.8513 41.1541 20.7695 41.1581 20.6878 41.1575C20.6054 41.1575 20.5242 41.1518 20.4425 41.142C20.3613 41.1316 20.2807 41.1166 20.2012 41.0976C20.1218 41.0781 20.0435 41.0539 19.9669 41.0251C19.8897 40.9963 19.8149 40.9635 19.7423 40.9255C19.6692 40.888 19.599 40.8466 19.531 40.8011C19.4631 40.755 19.398 40.7055 19.3358 40.652C19.2731 40.599 19.2143 40.542 19.1591 40.4815C19.1032 40.4217 19.0514 40.3583 19.0036 40.2921C18.8884 40.151 18.7664 40.0175 18.6368 39.8902C18.5073 39.7635 18.3708 39.6438 18.2274 39.5321C18.0847 39.4204 17.9361 39.3167 17.7818 39.2212C17.6269 39.1261 17.468 39.0392 17.3039 38.9621C17.1392 38.8843 16.9717 38.8158 16.8001 38.7571C16.6279 38.6983 16.4535 38.6488 16.2767 38.6097C16.0994 38.5699 15.9203 38.5406 15.7401 38.521C15.5599 38.5014 15.3785 38.4916 15.1971 38.4922C15.0157 38.4928 14.8344 38.5032 14.6542 38.5239C14.4739 38.5446 14.2954 38.5751 14.1181 38.616C13.9413 38.6563 13.7674 38.7064 13.5959 38.7663C13.4243 38.8262 13.2567 38.8953 13.0932 38.9741C12.9297 39.0524 12.7708 39.14 12.617 39.2361C12.4627 39.3323 12.3148 39.4371 12.1725 39.5493C12.0303 39.6622 11.8944 39.7825 11.7655 39.9104C11.6365 40.0382 11.515 40.1723 11.401 40.314C11.352 40.3796 11.2997 40.4424 11.2432 40.5017C11.1868 40.561 11.1275 40.6174 11.0647 40.6698C11.0014 40.7222 10.9358 40.7712 10.8672 40.8161C10.7987 40.861 10.7279 40.9013 10.6542 40.9381C10.5811 40.9744 10.5057 41.0067 10.4285 41.0343C10.3513 41.0619 10.273 41.085 10.193 41.104C10.113 41.1224 10.0324 41.1362 9.95117 41.1448C9.86941 41.1541 9.78765 41.1581 9.70589 41.1575C9.62413 41.1575 9.54237 41.1518 9.46118 41.142C9.37942 41.1316 9.29939 41.1166 9.21936 41.0976C9.1399 41.0781 9.06159 41.0539 8.98501 41.0251C8.90843 40.9963 8.83358 40.9635 8.76046 40.9255C8.68734 40.888 8.61709 40.8466 8.54915 40.8011C8.48121 40.755 8.41614 40.7055 8.35396 40.652C8.29177 40.599 8.23247 40.542 8.17719 40.4815C8.12134 40.4217 8.06952 40.3583 8.02173 40.2921C7.90715 40.1522 7.78509 40.0192 7.65554 39.8925C7.52599 39.7664 7.3901 39.6478 7.24731 39.5361C7.10509 39.425 6.95654 39.3219 6.8028 39.2269C6.64907 39.1325 6.49016 39.0461 6.32663 38.969C6.16311 38.8918 5.99614 38.8233 5.82513 38.7646C5.65412 38.7058 5.48024 38.6563 5.30405 38.6172C5.12728 38.5774 4.94937 38.5475 4.76972 38.5273C4.59008 38.5078 4.40986 38.498 4.22907 38.498C4.04769 38.498 3.86748 38.5078 3.68783 38.5273C3.50819 38.5475 3.33027 38.5774 3.15351 38.6172C2.97732 38.6563 2.80343 38.7058 2.63243 38.7646C2.46142 38.8233 2.29444 38.8918 2.13092 38.969C1.9674 39.0461 1.80848 39.1325 1.65475 39.2269C1.50102 39.3219 1.35247 39.425 1.21025 39.5361C1.06745 39.6478 0.93157 39.7664 0.802019 39.8925C0.672468 40.0192 0.550403 40.1522 0.435823 40.2921C0.378245 40.3612 0.328152 40.4355 0.284968 40.5149C0.241785 40.5938 0.207238 40.6767 0.180176 40.7625C0.15369 40.8489 0.135265 40.937 0.126053 41.0262C0.116264 41.1161 0.115689 41.2059 0.12375 41.2957C0.132386 41.3855 0.149084 41.4736 0.174418 41.56C0.200328 41.6464 0.233724 41.7298 0.275756 41.8093C0.317788 41.8893 0.367305 41.9642 0.423731 42.0344C0.480158 42.1047 0.543494 42.1686 0.612587 42.2262C0.681681 42.2837 0.755957 42.3344 0.835414 42.3776C0.914296 42.4208 0.997209 42.4559 1.083 42.4824C1.16937 42.5094 1.25689 42.5279 1.34671 42.5371C1.43653 42.5469 1.52635 42.5475 1.61617 42.5394C1.70599 42.5313 1.79409 42.5146 1.88046 42.4887C1.96682 42.4634 2.05031 42.43 2.13035 42.388C2.2098 42.3465 2.28523 42.297 2.35548 42.2406C2.42514 42.1836 2.48963 42.1208 2.54721 42.0517C2.59615 41.9861 2.64912 41.9233 2.70497 41.864C2.7614 41.8041 2.82128 41.7483 2.88404 41.6959C2.9468 41.6429 3.01244 41.5945 3.08153 41.5496C3.15005 41.5047 3.22087 41.4638 3.294 41.4276C3.3677 41.3907 3.44313 41.359 3.52028 41.3314C3.59686 41.3032 3.67574 41.2802 3.7552 41.2617C3.83523 41.2433 3.91584 41.2295 3.9976 41.2203C4.07879 41.2116 4.16055 41.207 4.24231 41.2076C4.32465 41.2082 4.40641 41.2134 4.48759 41.2237C4.56878 41.2335 4.64939 41.2485 4.72884 41.2681C4.8083 41.2876 4.88661 41.3118 4.96376 41.3406C5.04034 41.3694 5.11519 41.4022 5.18774 41.4396C5.26086 41.4771 5.33111 41.5191 5.39963 41.5646C5.46757 41.6101 5.53263 41.6602 5.59482 41.7131C5.657 41.7667 5.71573 41.8237 5.77158 41.8836C5.82686 41.944 5.87868 42.0074 5.92704 42.0736C6.04162 42.2141 6.16369 42.3482 6.29382 42.4749C6.42337 42.6021 6.55983 42.7219 6.70262 42.8336C6.84541 42.9453 6.99396 43.049 7.14885 43.1445C7.30316 43.2395 7.46265 43.3259 7.62675 43.4036C7.79084 43.4814 7.9584 43.5493 8.13056 43.6086C8.30214 43.6673 8.4766 43.7163 8.65394 43.756C8.8307 43.7957 9.00977 43.8251 9.18999 43.8447C9.37079 43.8643 9.55158 43.8741 9.73295 43.8735C9.9149 43.8729 10.0957 43.862 10.2759 43.8418C10.4561 43.8211 10.6352 43.7906 10.812 43.7497C10.9887 43.7094 11.1632 43.6593 11.3342 43.5994C11.5058 43.5389 11.6733 43.4699 11.8369 43.3915C12.0004 43.3127 12.1593 43.2257 12.313 43.1296C12.4673 43.0334 12.6153 42.9286 12.7575 42.8158C12.8997 42.7035 13.0356 42.5831 13.1646 42.4553C13.2936 42.3275 13.4151 42.1928 13.5291 42.0517C13.578 41.9861 13.6304 41.9233 13.6868 41.864C13.7433 41.8041 13.8031 41.7483 13.8659 41.6959C13.9287 41.6429 13.9943 41.5945 14.0628 41.5496C14.1319 41.5047 14.2027 41.4638 14.2759 41.4276C14.3496 41.3907 14.4244 41.359 14.5016 41.3314C14.5787 41.3032 14.6576 41.2802 14.7371 41.2617C14.8171 41.2433 14.8977 41.2295 14.9795 41.2203C15.0607 41.2116 15.1424 41.207 15.2242 41.2076C15.3065 41.2082 15.3877 41.2134 15.4695 41.2237C15.5506 41.2341 15.6312 41.2485 15.7107 41.2681C15.7902 41.2876 15.8685 41.3118 15.9451 41.3406C16.0222 41.3694 16.0971 41.4022 16.1696 41.4396C16.2427 41.4771 16.313 41.5191 16.3809 41.5646C16.4494 41.6101 16.5145 41.6602 16.5767 41.7131C16.6389 41.7667 16.6976 41.8237 16.7529 41.8836C16.8087 41.944 16.8605 42.0074 16.9089 42.0736C17.0235 42.2141 17.1456 42.3477 17.2751 42.4749C17.4052 42.6016 17.5411 42.7208 17.6845 42.833C17.8273 42.9447 17.9758 43.0478 18.1301 43.1434C18.2844 43.2384 18.4439 43.3248 18.608 43.4025C18.7721 43.4796 18.9397 43.5482 19.1113 43.6069C19.2834 43.6656 19.4573 43.7151 19.6347 43.7543C19.8114 43.794 19.9905 43.8234 20.1707 43.843C20.3509 43.8625 20.5323 43.8723 20.7137 43.8718C20.895 43.8712 21.0758 43.8608 21.2561 43.8401C21.4363 43.8194 21.6148 43.7888 21.7915 43.748C21.9689 43.7077 22.1428 43.6576 22.3138 43.5977C22.4853 43.5378 22.6529 43.4687 22.8164 43.3904C22.9799 43.3115 23.1389 43.2246 23.2926 43.1284C23.4463 43.0323 23.5943 42.928 23.7371 42.8152C23.8793 42.7029 24.0146 42.5826 24.1436 42.4547C24.2726 42.3275 24.3941 42.1928 24.5081 42.0517C24.557 41.9861 24.61 41.9233 24.6664 41.864C24.7228 41.8041 24.7821 41.7483 24.8455 41.6959C24.9082 41.6429 24.9739 41.5945 25.0424 41.5496C25.1115 41.5047 25.1823 41.4638 25.256 41.4276C25.3291 41.3907 25.4045 41.359 25.4817 41.3314C25.5589 41.3032 25.6377 41.2802 25.7172 41.2617C25.7972 41.2433 25.8778 41.2295 25.9596 41.2203C26.0408 41.2116 26.1225 41.207 26.2049 41.2076C26.2866 41.2082 26.3684 41.2134 26.4496 41.2237C26.5314 41.2341 26.612 41.2485 26.6914 41.2681C26.7709 41.2876 26.8492 41.3118 26.9263 41.3406C27.0029 41.3694 27.0778 41.4022 27.1509 41.4396C27.224 41.4771 27.2943 41.5191 27.3622 41.5646C27.4301 41.6101 27.4958 41.6602 27.558 41.7131C27.6202 41.7667 27.6789 41.8237 27.7347 41.8836C27.79 41.944 27.8424 42.0074 27.8902 42.0736C27.9466 42.1456 28.0048 42.2164 28.0647 42.2849C28.1245 42.354 28.1867 42.4208 28.2506 42.4864C28.3145 42.5515 28.3802 42.6148 28.4475 42.6764C28.5155 42.738 28.5846 42.7973 28.6554 42.8549C28.7262 42.9125 28.7988 42.9683 28.8731 43.0213C28.9473 43.0749 29.0228 43.1261 29.0999 43.1756C29.1765 43.2246 29.2554 43.2712 29.3348 43.3161C29.4143 43.3605 29.4955 43.4031 29.5772 43.4428C29.6596 43.4831 29.7431 43.5205 29.8271 43.5562C29.9112 43.5913 29.9964 43.6242 30.0828 43.6547C30.1686 43.6852 30.2555 43.7128 30.3436 43.7382C30.4311 43.7641 30.5198 43.7865 30.6085 43.8073C30.6977 43.8274 30.7875 43.8453 30.8773 43.8608C30.9672 43.8764 31.0576 43.889 31.1485 43.8988C31.2395 43.9092 31.3305 43.9167 31.4215 43.9218C31.513 43.9265 31.604 43.9288 31.6955 43.9288C31.7871 43.9282 31.8781 43.9253 31.969 43.9201C32.0606 43.9144 32.1515 43.9063 32.2419 43.8959C32.3329 43.885 32.4233 43.8718 32.5131 43.8562C32.603 43.8401 32.6928 43.8217 32.7815 43.8009C32.8707 43.7802 32.9588 43.7566 33.0463 43.7307C33.1338 43.7048 33.2208 43.676 33.3066 43.6455C33.3924 43.6144 33.4776 43.581 33.5616 43.5453C33.6457 43.5096 33.7286 43.4716 33.8104 43.4307C33.8927 43.3904 33.9733 43.3478 34.0528 43.3023C34.1322 43.2574 34.21 43.2102 34.2871 43.1607C34.3637 43.1106 34.4391 43.0593 34.5128 43.0052C34.5865 42.9517 34.6585 42.8952 34.7293 42.8376C34.7996 42.7795 34.8687 42.7196 34.936 42.6574C35.0028 42.5958 35.0685 42.5319 35.1318 42.4663C35.1957 42.4006 35.2573 42.3333 35.3166 42.2642C35.3765 42.1951 35.4341 42.1242 35.4899 42.0517C35.5389 41.9866 35.5913 41.9245 35.6471 41.8651C35.7035 41.8064 35.7628 41.7506 35.825 41.6987C35.8878 41.6464 35.9529 41.598 36.0214 41.5536C36.0893 41.5087 36.1596 41.4684 36.2327 41.4322C36.3052 41.3953 36.3801 41.3636 36.4567 41.336C36.5332 41.3078 36.611 41.2848 36.6904 41.2663C36.7699 41.2473 36.8499 41.2335 36.9305 41.2237C37.0117 41.2145 37.0929 41.2099 37.1741 41.2099C37.2553 41.2099 37.3365 41.2145 37.4176 41.2237C37.4982 41.2335 37.5783 41.2473 37.6577 41.2663C37.7372 41.2848 37.8149 41.3078 37.8915 41.336C37.9681 41.3636 38.0429 41.3953 38.1155 41.4322C38.1886 41.4684 38.2589 41.5087 38.3274 41.5536C38.3953 41.598 38.4604 41.6464 38.5231 41.6987C38.5859 41.7506 38.6452 41.8064 38.7011 41.8651C38.7569 41.9245 38.8093 41.9866 38.8582 42.0517C38.9164 42.1208 38.9803 42.1841 39.0506 42.2406C39.1208 42.297 39.1956 42.3465 39.2757 42.388C39.3551 42.43 39.4386 42.4634 39.525 42.4893C39.6114 42.5146 39.6995 42.5313 39.7893 42.5394C39.8791 42.5475 39.9689 42.5469 40.0587 42.5371C40.148 42.5279 40.2361 42.5094 40.3225 42.4824C40.4082 42.4559 40.4906 42.4208 40.57 42.3776C40.6489 42.3344 40.7232 42.2837 40.7929 42.2262C40.862 42.168 40.9247 42.1041 40.9811 42.0339C41.0381 41.9642 41.0871 41.8888 41.1291 41.8093C41.1712 41.7293 41.2045 41.6458 41.2299 41.5594C41.2552 41.473 41.2725 41.3849 41.2806 41.2951C41.2886 41.2053 41.2875 41.1155 41.2782 41.0257C41.2685 40.9364 41.25 40.8483 41.2235 40.7625C41.1965 40.6762 41.1614 40.5938 41.1182 40.5144C41.075 40.4355 41.0249 40.3612 40.9668 40.2921H40.9644Z" fill="#07113D"/>
  </g>
  <path d="M5.17379 35.9431C5.59986 35.984 6.01903 36.0611 6.43129 36.174C6.84413 36.2874 7.24372 36.4348 7.63064 36.6168C8.01814 36.7987 8.38664 37.0129 8.73729 37.2582C9.08737 37.5035 9.41441 37.777 9.71785 38.0787C10.0743 37.7107 10.4635 37.382 10.8861 37.0918C11.3082 36.8022 11.7555 36.5569 12.2271 36.3565C12.6987 36.1561 13.1852 36.0041 13.6873 35.9016C14.1888 35.7986 14.696 35.7467 15.2085 35.745C15.7209 35.7462 16.2282 35.798 16.7303 35.9005C17.2324 36.0035 17.7189 36.155 18.1905 36.3553C18.662 36.5557 19.1088 36.801 19.5315 37.0912C19.9535 37.3814 20.3433 37.7107 20.6991 38.0787C21.0561 37.7113 21.4459 37.3825 21.868 37.0929C22.2906 36.8033 22.738 36.558 23.209 36.3576C23.6805 36.1573 24.1671 36.0053 24.6691 35.9022C25.1706 35.7991 25.6779 35.7467 26.1904 35.745C26.7028 35.7456 27.2101 35.7974 27.7127 35.8999C28.2148 36.0024 28.7019 36.1544 29.1735 36.3548C29.645 36.5557 30.0918 36.8016 30.5139 37.0923C30.9365 37.3825 31.3252 37.7125 31.681 38.0815C31.985 37.7718 32.3132 37.4896 32.6656 37.2351C33.0174 36.9812 33.3888 36.7584 33.7786 36.5678C34.1684 36.3766 34.572 36.22 34.9883 36.0974C35.4051 35.9753 35.8289 35.889 36.2608 35.8389L39.8294 26.5757C39.8634 26.4876 39.8876 26.3972 39.9031 26.3045C39.9181 26.2118 39.9239 26.1185 39.9198 26.0246C39.9158 25.9308 39.902 25.8381 39.879 25.7471C39.8559 25.6561 39.8243 25.5681 39.7828 25.4834C39.7419 25.3988 39.693 25.3193 39.6354 25.245C39.5778 25.1708 39.5139 25.1028 39.4425 25.0418C39.3711 24.9802 39.294 24.9272 39.2122 24.8817C39.1299 24.8362 39.0435 24.7994 38.9537 24.7717L21.1085 19.2805C20.8396 19.1982 20.5702 19.1982 20.3013 19.2805L2.4561 24.7717C2.3657 24.7994 2.27991 24.8357 2.19758 24.8811C2.11524 24.9266 2.03809 24.9796 1.96669 25.0406C1.89529 25.1022 1.8308 25.1696 1.77323 25.2445C1.71565 25.3187 1.66613 25.3982 1.62467 25.4828C1.58379 25.5675 1.55155 25.655 1.52852 25.7465C1.50549 25.8375 1.49167 25.9302 1.48764 26.0241C1.48361 26.1179 1.48879 26.2118 1.50434 26.3045C1.51931 26.3972 1.54349 26.4876 1.57746 26.5757L5.17379 35.9431Z" fill="#07113D"/>
  <path d="M21.9055 16.6539L34.427 20.5059V9.60924C34.427 9.51942 34.4184 9.4296 34.4011 9.3415C34.3833 9.25283 34.3574 9.16704 34.3228 9.08413C34.2883 9.00064 34.2462 8.92176 34.1961 8.8469C34.146 8.77148 34.089 8.70238 34.0251 8.63847C33.9612 8.57514 33.8921 8.51813 33.8173 8.46804C33.7424 8.41795 33.663 8.37534 33.5801 8.34079C33.4966 8.30682 33.4108 8.28033 33.3221 8.26306C33.234 8.24521 33.1448 8.23657 33.0544 8.23657H24.8184V1.37267C24.8184 1.28284 24.8092 1.1936 24.7919 1.10493C24.7741 1.01683 24.7482 0.931041 24.7136 0.847552C24.6791 0.764064 24.637 0.685182 24.5869 0.61033C24.5368 0.535478 24.4798 0.465808 24.4159 0.402472C24.3526 0.33856 24.2829 0.281558 24.2081 0.231465C24.1332 0.181372 24.0543 0.139339 23.9708 0.104792C23.8874 0.0702455 23.8016 0.0443353 23.7135 0.026486C23.6248 0.0092126 23.5356 0 23.4457 0H17.9545C17.8647 0 17.7755 0.0092126 17.6868 0.026486C17.5987 0.0443353 17.5123 0.0702455 17.4294 0.104792C17.3459 0.139339 17.267 0.181372 17.1922 0.231465C17.1168 0.281558 17.0477 0.33856 16.9838 0.402472C16.9204 0.465808 16.8634 0.535478 16.8133 0.61033C16.7632 0.685182 16.7206 0.764064 16.6867 0.847552C16.6521 0.931041 16.6256 1.01683 16.6083 1.10493C16.5905 1.1936 16.5819 1.28284 16.5819 1.37267V8.23657H8.34532C8.2555 8.23657 8.16625 8.24521 8.07758 8.26306C7.98948 8.28033 7.90369 8.30682 7.82021 8.34079C7.73672 8.37534 7.65784 8.41795 7.58298 8.46804C7.50813 8.51813 7.43846 8.57514 7.37513 8.63847C7.31122 8.70238 7.25421 8.77148 7.20412 8.8469C7.15403 8.92176 7.112 9.00064 7.07745 9.08413C7.0429 9.16704 7.01699 9.25283 6.99914 9.3415C6.98187 9.4296 6.97266 9.51942 6.97266 9.60924V20.5059L19.4896 16.6626C19.8822 16.5394 20.2847 16.4766 20.697 16.4755C21.1086 16.4737 21.5117 16.5336 21.9055 16.6539ZM26.2187 12.3546H26.2458C26.3056 12.3551 26.3649 12.3598 26.4243 12.3684C26.4836 12.3765 26.5417 12.3885 26.5993 12.4047C26.6574 12.4208 26.7133 12.4404 26.7686 12.464C26.8238 12.487 26.8768 12.5141 26.9286 12.5446C26.9799 12.5745 27.0294 12.6079 27.0766 12.6448C27.1238 12.6816 27.1682 12.7213 27.2102 12.764C27.2522 12.8066 27.2908 12.8515 27.3271 12.8993C27.3633 12.9471 27.3962 12.9971 27.4255 13.049C27.4549 13.1008 27.4814 13.1543 27.5038 13.2102C27.5263 13.2655 27.5447 13.3219 27.5603 13.38C27.5752 13.4376 27.5868 13.4964 27.5942 13.5557C27.6017 13.615 27.6052 13.6743 27.6046 13.7341C27.6046 13.794 27.6006 13.8533 27.5925 13.9126C27.5844 13.9719 27.5724 14.0307 27.5568 14.0883C27.5407 14.1458 27.5217 14.2023 27.4987 14.2575C27.4751 14.3128 27.4486 14.3658 27.4186 14.4176C27.3887 14.4694 27.3553 14.5189 27.319 14.5662C27.2822 14.6134 27.243 14.6583 27.2004 14.7003C27.1578 14.7429 27.1129 14.7821 27.0657 14.8183C27.0179 14.8546 26.9684 14.8874 26.9165 14.9174C26.8647 14.9473 26.8112 14.9732 26.7559 14.9963C26.7006 15.0193 26.6442 15.0383 26.586 15.0538C26.5285 15.0688 26.4703 15.0809 26.411 15.0884C26.3517 15.0965 26.2918 15.0999 26.2319 15.0999C26.1726 15.0999 26.1128 15.0965 26.0534 15.0884C25.9941 15.0809 25.936 15.0688 25.8778 15.0538C25.8203 15.0383 25.7638 15.0193 25.7086 14.9963C25.6533 14.9732 25.5997 14.9473 25.5479 14.9174C25.4961 14.8874 25.446 14.8546 25.3988 14.8183C25.351 14.7821 25.3061 14.7429 25.2641 14.7003C25.2214 14.6583 25.1823 14.6134 25.1454 14.5662C25.1092 14.5189 25.0758 14.4694 25.0458 14.4176C25.0153 14.3658 24.9888 14.3128 24.9658 14.2575C24.9428 14.2023 24.9232 14.1458 24.9076 14.0883C24.8921 14.0307 24.88 13.9719 24.8719 13.9126C24.8639 13.8533 24.8599 13.794 24.8593 13.7341C24.8593 13.6743 24.8627 13.615 24.8702 13.5557C24.8777 13.4964 24.8892 13.4376 24.9042 13.38C24.9192 13.3219 24.9382 13.2655 24.9606 13.2102C24.9831 13.1543 25.009 13.1008 25.0389 13.049C25.0683 12.9971 25.1011 12.9471 25.1374 12.8993C25.1731 12.8515 25.2122 12.8066 25.2543 12.764C25.2963 12.7213 25.3406 12.6816 25.3878 12.6448C25.4351 12.6079 25.4846 12.5745 25.5358 12.5446C25.5876 12.5141 25.6406 12.487 25.6959 12.464C25.7506 12.4404 25.807 12.4208 25.8646 12.4047C25.9222 12.3885 25.9809 12.3765 26.0402 12.3684C26.0989 12.3598 26.1588 12.3551 26.2187 12.3546ZM15.2639 15.0999C15.1741 15.0999 15.0848 15.0913 14.9962 15.074C14.9081 15.0561 14.8223 15.0302 14.7388 14.9957C14.6553 14.9611 14.5764 14.9191 14.5016 14.869C14.4267 14.8189 14.357 14.7619 14.2937 14.698C14.2298 14.6341 14.1728 14.565 14.1227 14.4902C14.0726 14.4153 14.0306 14.3358 13.996 14.2529C13.9615 14.1694 13.9356 14.0836 13.9177 13.995C13.9004 13.9069 13.8912 13.8176 13.8912 13.7272C13.8912 13.638 13.8999 13.5493 13.9171 13.4612C13.935 13.3737 13.9603 13.2879 13.9943 13.205C14.0288 13.1227 14.0703 13.0438 14.1198 12.9689C14.1693 12.8947 14.2258 12.825 14.2885 12.7617C14.3519 12.6977 14.4204 12.6413 14.4941 12.5906C14.5684 12.5406 14.6467 12.4979 14.729 12.4634C14.8119 12.4283 14.8965 12.4018 14.9846 12.3834C15.0722 12.3649 15.1608 12.3557 15.2507 12.3546H15.2777C15.3681 12.3546 15.4574 12.3638 15.5455 12.3811C15.6341 12.3989 15.7199 12.4248 15.8034 12.4594C15.8863 12.4939 15.9658 12.5359 16.0406 12.586C16.1155 12.6361 16.1846 12.6931 16.2485 12.757C16.3124 12.8204 16.3694 12.8901 16.4189 12.9649C16.469 13.0398 16.5116 13.1186 16.5462 13.2021C16.5807 13.2856 16.6066 13.3714 16.6239 13.4595C16.6417 13.5482 16.6504 13.6374 16.6504 13.7272C16.6504 13.8176 16.6417 13.9069 16.6239 13.995C16.6066 14.0836 16.5807 14.1694 16.5462 14.2529C16.5116 14.3358 16.469 14.4153 16.4189 14.4902C16.3694 14.565 16.3124 14.6341 16.2485 14.698C16.1846 14.7619 16.1155 14.8189 16.0406 14.869C15.9658 14.9191 15.8863 14.9611 15.8034 14.9957C15.7199 15.0302 15.6341 15.0561 15.5455 15.074C15.4574 15.0913 15.3681 15.0999 15.2777 15.0999H15.2639ZM20.7275 12.3546H20.7551C20.815 12.3551 20.8743 12.3598 20.9336 12.3684C20.9929 12.3765 21.0511 12.3885 21.1086 12.4047C21.1662 12.4208 21.2226 12.4404 21.2779 12.464C21.3326 12.487 21.3862 12.5141 21.4374 12.5446C21.4892 12.5745 21.5382 12.6079 21.5854 12.6448C21.6326 12.6816 21.6769 12.7213 21.719 12.764C21.761 12.8066 21.8002 12.8515 21.8364 12.8993C21.8721 12.9471 21.905 12.9971 21.9349 13.049C21.9643 13.1008 21.9902 13.1543 22.0126 13.2102C22.0351 13.2655 22.0541 13.3219 22.069 13.38C22.0846 13.4376 22.0955 13.4964 22.103 13.5557C22.1105 13.615 22.1145 13.6743 22.114 13.7341C22.1134 13.794 22.1094 13.8533 22.1013 13.9126C22.0932 13.9719 22.0817 14.0307 22.0656 14.0883C22.05 14.1458 22.0305 14.2023 22.0074 14.2575C21.9844 14.3128 21.9579 14.3658 21.928 14.4176C21.8975 14.4694 21.8646 14.5189 21.8278 14.5662C21.7915 14.6134 21.7518 14.6583 21.7098 14.7003C21.6672 14.7429 21.6222 14.7821 21.5745 14.8183C21.5272 14.8546 21.4777 14.8874 21.4259 14.9174C21.3741 14.9473 21.3205 14.9732 21.2653 14.9963C21.21 15.0193 21.153 15.0383 21.0954 15.0538C21.0378 15.0688 20.9791 15.0809 20.9198 15.0884C20.8605 15.0965 20.8012 15.0999 20.7413 15.0999C20.6814 15.0999 20.6221 15.0965 20.5628 15.0884C20.5035 15.0809 20.4448 15.0688 20.3872 15.0538C20.329 15.0383 20.2726 15.0193 20.2173 14.9963C20.1621 14.9732 20.1085 14.9473 20.0567 14.9174C20.0049 14.8874 19.9554 14.8546 19.9081 14.8183C19.8604 14.7821 19.8154 14.7429 19.7728 14.7003C19.7308 14.6583 19.6911 14.6134 19.6548 14.5662C19.6179 14.5189 19.5846 14.4694 19.5546 14.4176C19.5247 14.3658 19.4982 14.3128 19.4752 14.2575C19.4521 14.2023 19.4325 14.1458 19.417 14.0883C19.4009 14.0307 19.3894 13.9719 19.3813 13.9126C19.3732 13.8533 19.3686 13.794 19.3686 13.7341C19.3681 13.6743 19.3721 13.615 19.3796 13.5557C19.3871 13.4964 19.398 13.4376 19.413 13.38C19.4285 13.3219 19.4475 13.2655 19.47 13.2102C19.4924 13.1543 19.5183 13.1008 19.5477 13.049C19.5776 12.9971 19.6105 12.9471 19.6462 12.8993C19.6824 12.8515 19.7216 12.8066 19.7636 12.764C19.8051 12.7213 19.85 12.6816 19.8972 12.6448C19.9444 12.6079 19.9934 12.5745 20.0452 12.5446C20.0964 12.5141 20.15 12.487 20.2047 12.464C20.2599 12.4404 20.3164 12.4208 20.3739 12.4047C20.4315 12.3885 20.4897 12.3765 20.549 12.3684C20.6083 12.3598 20.6676 12.3551 20.7275 12.3546Z" fill="#07113D"/>
</svg>