<svg xmlns="http://www.w3.org/2000/svg" width="24" height="24" viewBox="0 0 24 24" fill="none">
  <path fill-rule="evenodd" clip-rule="evenodd" d="M13.0092 17.003L13.0152 15C13.0152 14.7341 13.1209 14.4791 13.3089 14.2911C13.4969 14.1031 13.7519 13.9975 14.0177 13.9975C14.2836 13.9975 14.5386 14.1031 14.7266 14.2911C14.9146 14.4791 15.0202 14.7341 15.0202 15V16.977C15.0202 17.458 15.0202 17.699 15.1742 17.847C15.3292 17.994 15.5642 17.984 16.0372 17.964C17.9002 17.885 19.0452 17.634 19.8512 16.828C20.6612 16.022 20.9122 14.877 20.9912 13.011C21.0062 12.641 21.0142 12.455 20.9452 12.332C20.8752 12.209 20.6002 12.055 20.0482 11.746C19.7373 11.5727 19.4783 11.3194 19.298 11.0125C19.1177 10.7055 19.0226 10.356 19.0226 10C19.0226 9.64401 19.1177 9.29448 19.298 8.98753C19.4783 8.68058 19.7373 8.42734 20.0482 8.254C20.6002 7.946 20.8762 7.791 20.9452 7.668C21.0142 7.545 21.0062 7.36 20.9902 6.989C20.9122 5.123 20.6602 3.979 19.8512 3.172C18.9742 2.296 17.6962 2.075 15.5292 2.019C15.4629 2.01726 15.3968 2.02884 15.335 2.05303C15.2732 2.07723 15.2169 2.11357 15.1694 2.15989C15.1218 2.20622 15.0841 2.26159 15.0583 2.32275C15.0325 2.38392 15.0192 2.44962 15.0192 2.516V5C15.0192 5.26588 14.9136 5.52087 14.7256 5.70887C14.5376 5.89688 14.2826 6.0025 14.0167 6.0025C13.7509 6.0025 13.4959 5.89688 13.3079 5.70887C13.1199 5.52087 13.0142 5.26588 13.0142 5L13.0072 2.499C13.007 2.36657 12.9542 2.23964 12.8604 2.14609C12.7667 2.05254 12.6397 2 12.5072 2H8.99523C5.21523 2 3.32523 2 2.15023 3.172C1.34023 3.978 1.08923 5.123 1.01023 6.989C0.995231 7.359 0.987231 7.545 1.05623 7.668C1.12623 7.791 1.40123 7.946 1.95323 8.254C2.26416 8.42734 2.52317 8.68058 2.70347 8.98753C2.88378 9.29448 2.97884 9.64401 2.97884 10C2.97884 10.356 2.88378 10.7055 2.70347 11.0125C2.52317 11.3194 2.26416 11.5727 1.95323 11.746C1.40123 12.055 1.12523 12.209 1.05623 12.332C0.987231 12.455 0.995231 12.64 1.01123 13.01C1.08923 14.877 1.34123 16.022 2.15023 16.828C3.32523 18 5.21523 18 8.99623 18H12.0062C12.4782 18 12.7132 18 12.8602 17.854C13.0072 17.708 13.0082 17.474 13.0092 17.003ZM15.0192 11V9C15.0192 8.73412 14.9136 8.47913 14.7256 8.29113C14.5376 8.10312 14.2826 7.9975 14.0167 7.9975C13.7509 7.9975 13.4959 8.10312 13.3079 8.29113C13.1199 8.47913 13.0142 8.73412 13.0142 9V11C13.0142 11.266 13.1199 11.5211 13.308 11.7092C13.4961 11.8973 13.7512 12.003 14.0172 12.003C14.2832 12.003 14.5384 11.8973 14.7265 11.7092C14.9146 11.5211 15.0192 11.266 15.0192 11Z" fill="white"/>
</svg>