<svg width="20" height="20" viewBox="0 0 20 20" fill="none" xmlns="http://www.w3.org/2000/svg">
<path d="M9.9 8C11.77 8 13.266 6.65 13.266 5C13.266 3.35 11.77 2 9.9 2C8.03 2 6.534 3.35 6.534 5C6.534 6.65 8.03 8 9.9 8ZM9.9 10C6.82 10 4.334 7.76 4.334 5C4.334 2.24 6.82 0 9.9 0C12.98 0 15.466 2.24 15.466 5C15.466 7.76 12.98 10 9.9 10ZM2.2 18H17.6V16.67C17.6 14.92 15.059 13.11 9.9 13.11C4.741 13.11 2.2 14.92 2.2 16.67V18ZM9.9 11.11C17.226 11.11 19.8 14.44 19.8 16.67V20H0V16.67C0 14.44 2.574 11.11 9.9 11.11Z" fill="black" fill-opacity="0.26"/>
</svg>
