<svg width="22" height="20" viewBox="0 0 22 20" fill="none" xmlns="http://www.w3.org/2000/svg">
<g clip-path="url(#clip0_309_4740)">
<ellipse cx="3.56975" cy="3.6567" rx="3.56975" ry="3.6567" transform="matrix(-1 0 0 1 14.7715 1)" stroke="#BDBDBD" stroke-width="1.5"/>
<path d="M4.95605 13.6808C4.95605 12.9296 5.42525 12.2583 6.13075 12.0002C9.40618 10.8019 13.0001 10.8019 16.2755 12.0002C16.981 12.2583 17.4502 12.9296 17.4502 13.6808V15.0671C17.4502 16.1272 16.5768 16.9792 15.517 16.9529L11.2031 16.8459L6.88923 16.9529C5.82941 16.9792 4.95605 16.1272 4.95605 15.0671V13.6808Z" stroke="#BDBDBD" stroke-width="1.5"/>
<path d="M16.4979 8.41421C18.047 8.41421 19.3027 7.12787 19.3027 5.54109C19.3027 3.95431 18.047 2.66797 16.4979 2.66797" stroke="#BDBDBD" stroke-width="1.5" stroke-linecap="round"/>
<path d="M17.7354 15.0083H19.6987C19.7956 15.0083 19.8924 15.018 19.9892 15.0217C20.753 15.0509 21.406 14.4234 21.406 13.6208V12.6759C21.406 12.0579 21.0267 11.5067 20.4586 11.2988C19.8919 11.0915 19.3135 10.93 18.7287 10.8145" stroke="#BDBDBD" stroke-width="1.5" stroke-linecap="round"/>
<path d="M5.90832 8.41421C4.35927 8.41421 3.10352 7.12787 3.10352 5.54109C3.10352 3.95431 4.35927 2.66797 5.90832 2.66797" stroke="#BDBDBD" stroke-width="1.5" stroke-linecap="round"/>
<path d="M4.5 15L2.5621 15.0083C1.73783 15.1289 1.00037 14.4737 1.00037 13.6208V12.6759C1.00037 12.0579 1.37962 11.5067 1.94776 11.2988C2.51448 11.0915 3.09284 10.93 3.67769 10.8145" stroke="#BDBDBD" stroke-width="1.5" stroke-linecap="round"/>
</g>
<defs>
<clipPath id="clip0_309_4740">
<rect width="22" height="20" fill="white"/>
</clipPath>
</defs>
</svg>
