<svg xmlns="http://www.w3.org/2000/svg" width="30" height="44" viewBox="0 0 30 44" fill="none">
  <mask id="mask0_261_4806" style="mask-type:luminance" maskUnits="userSpaceOnUse" x="0" y="4" width="30" height="40">
    <path d="M0 4.0332H29.9201V43.9999H0V4.0332Z" fill="white"/>
  </mask>
  <g mask="url(#mask0_261_4806)">
    <path d="M27.6728 4.05859H0.00195312V41.8677C0.00195312 43.104 1.00914 44.1101 2.24665 44.1101H27.6728C28.9103 44.1101 29.9175 43.104 29.9175 41.8677V6.30099C29.9186 5.06406 28.9114 4.05859 27.6728 4.05859ZM18.7771 11.3157L19.5522 9.62563C19.5539 9.61875 19.5568 9.61245 19.5608 9.605L21.1845 6.06208C21.1845 6.05922 21.1862 6.05521 21.1873 6.05349C21.1942 6.03859 21.1999 6.02542 21.2091 6.01052C21.2165 5.99677 21.2234 5.98417 21.2332 5.97042C21.2423 5.95667 21.2521 5.94406 21.2595 5.93203C21.2704 5.91828 21.2813 5.90568 21.2922 5.89307C21.3019 5.88219 21.3117 5.8713 21.3225 5.86271C21.3363 5.84781 21.3506 5.83521 21.3667 5.82375C21.3752 5.81688 21.3833 5.81057 21.3919 5.8037C21.4039 5.79396 21.4165 5.78708 21.4291 5.77849C21.4526 5.76359 21.4784 5.74984 21.5036 5.73839C21.5047 5.73724 21.5064 5.73724 21.5076 5.73609C21.5271 5.7275 21.5465 5.72063 21.5666 5.71375C21.5683 5.7126 21.5706 5.71203 21.5712 5.71203C21.5901 5.70516 21.6073 5.7 21.6262 5.69714C21.6468 5.69255 21.6663 5.68854 21.6869 5.68568C21.6995 5.68453 21.7121 5.68281 21.7253 5.68281C21.7557 5.68052 21.7849 5.68052 21.8141 5.68281C21.8273 5.68281 21.8399 5.68453 21.8525 5.68568C21.8731 5.68854 21.8926 5.69313 21.9132 5.69714C21.9321 5.7 21.9493 5.7063 21.9682 5.71203C21.9699 5.7126 21.9711 5.7126 21.9728 5.71375C21.9928 5.72063 22.0123 5.7275 22.0318 5.73609C22.0719 5.75615 22.112 5.77849 22.1481 5.80484C22.1573 5.81172 22.1653 5.81745 22.1739 5.82432C22.2083 5.85182 22.2392 5.88333 22.2667 5.91771C22.2736 5.9263 22.2799 5.93432 22.2868 5.94292C22.312 5.97729 22.3343 6.01453 22.3532 6.05521L22.3561 6.06438L23.986 9.62161C23.986 9.62276 23.986 9.62276 23.986 9.62276L24.7623 11.318C24.9102 11.6411 24.7692 12.021 24.4455 12.1665C24.3596 12.2055 24.2696 12.2255 24.1791 12.2255C23.9362 12.2255 23.703 12.0863 23.5953 11.8514L22.9829 10.5131H20.5543L19.9418 11.8514C19.8352 12.0863 19.6021 12.2255 19.358 12.2255C19.2692 12.2255 19.1787 12.2055 19.0916 12.1665C18.7725 12.0176 18.6304 11.6377 18.7771 11.3157ZM16.0723 9.5924C14.8417 9.5924 13.8402 8.73646 13.8402 7.68516C13.8402 6.63385 14.8417 5.77849 16.0723 5.77849C17.3029 5.77849 18.3033 6.63385 18.3033 7.68516C18.3033 8.03865 18.0168 8.32625 17.6616 8.32625C17.3075 8.32625 17.0193 8.03865 17.0193 7.68516C17.0193 7.38953 16.6309 7.06068 16.0712 7.06068C15.512 7.06068 15.1218 7.38953 15.1218 7.68516C15.1218 7.98078 15.512 8.30964 16.0712 8.30964C17.3018 8.30964 18.3021 9.16557 18.3021 10.2174C18.3021 11.2688 17.3018 12.1247 16.0712 12.1247C14.8405 12.1247 13.8396 11.2688 13.8396 10.2174C13.8396 9.86339 14.1273 9.57635 14.4813 9.57635C14.836 9.57635 15.123 9.86224 15.123 10.2174C15.123 10.5125 15.5126 10.8419 16.0723 10.8419C16.6315 10.8419 17.0205 10.5125 17.0205 10.2174C17.0205 9.92182 16.6309 9.5924 16.0723 9.5924ZM11.7869 6.3199C11.7869 5.96526 12.0751 5.6788 12.4286 5.6788C12.7832 5.6788 13.0702 5.96469 13.0702 6.3199V11.5821C13.0702 11.9356 12.7843 12.2232 12.4286 12.2232C12.0751 12.2232 11.7869 11.9356 11.7869 11.5821V6.3199ZM5.4716 5.73724C5.79301 5.58943 6.17458 5.73266 6.32124 6.05349L8.14942 10.0416L9.97646 6.05349C10.1243 5.73266 10.5047 5.58943 10.8261 5.73724C11.1475 5.88505 11.2902 6.2649 11.1424 6.5863L8.73609 11.8405L8.73323 11.8497C8.72865 11.8611 8.72177 11.8732 8.7149 11.8846C8.70802 11.8972 8.70172 11.9081 8.69427 11.9202C8.6851 11.9345 8.67536 11.9482 8.66677 11.962C8.65875 11.9717 8.65187 11.9826 8.64443 11.9906C8.62838 12.0101 8.61177 12.0273 8.59515 12.0445C8.58542 12.0542 8.57453 12.0628 8.56479 12.0708C8.51781 12.1098 8.46682 12.1419 8.41182 12.1665C8.39234 12.1751 8.37286 12.182 8.35338 12.1889C8.35109 12.19 8.35052 12.1911 8.34823 12.1911C8.32646 12.1986 8.30526 12.2038 8.28463 12.2078C8.26573 12.2118 8.24739 12.2158 8.22849 12.2175C8.21817 12.2192 8.20729 12.2204 8.1964 12.2204C8.18093 12.2215 8.16489 12.2221 8.14942 12.2221C8.13396 12.2221 8.11791 12.2215 8.10245 12.2204C8.09156 12.2204 8.08067 12.2192 8.06979 12.2175C8.05146 12.2158 8.03255 12.2123 8.01422 12.2078C7.99244 12.2038 7.97125 12.198 7.95062 12.1911C7.94948 12.1911 7.94776 12.19 7.94547 12.1889C7.92599 12.182 7.90651 12.1751 7.88703 12.1665C7.88588 12.1654 7.88416 12.1654 7.88302 12.1648C7.82802 12.1402 7.77817 12.1081 7.73406 12.0708C7.72432 12.0617 7.71343 12.0542 7.70369 12.0445C7.6888 12.0296 7.67333 12.013 7.66073 11.9975C7.64984 11.9866 7.64067 11.9734 7.63208 11.962C7.62234 11.9482 7.6126 11.9345 7.60458 11.9202C7.59713 11.9081 7.59083 11.8972 7.58395 11.8846C7.57708 11.8732 7.57135 11.8611 7.56562 11.8497L5.15535 6.5863C5.00869 6.2649 5.15077 5.88391 5.4716 5.73724ZM5.34728 37.3353C5.34728 36.9807 5.63546 36.6942 5.98895 36.6942H9.39438C9.74844 36.6942 10.036 36.9801 10.036 37.3353C10.036 37.6888 9.74844 37.9764 9.39438 37.9764H5.98895C5.63431 37.9764 5.34728 37.6888 5.34728 37.3353ZM9.53073 41.4082H8.00849C7.65385 41.4082 7.36682 41.1206 7.36682 40.7671C7.36682 40.4136 7.6527 40.126 8.00849 40.126H9.53073C9.88537 40.126 10.1724 40.4136 10.1724 40.7671C10.1724 41.1206 9.88651 41.4082 9.53073 41.4082ZM18.4196 40.7224C18.4196 41.0753 18.1314 41.3635 17.7779 41.3635H12.1427C11.7892 41.3635 11.501 41.0753 11.501 40.7224V37.5181C11.501 37.1652 11.7892 36.877 12.1427 36.877H17.7779C18.1314 36.877 18.4196 37.1652 18.4196 37.5181V40.7224ZM21.9115 41.4082H20.3887C20.034 41.4082 19.747 41.1206 19.747 40.7671C19.747 40.4136 20.0329 40.126 20.3887 40.126H21.9115C22.2661 40.126 22.5532 40.4136 22.5532 40.7671C22.5532 41.1206 22.2667 41.4082 21.9115 41.4082ZM23.9322 37.9764H20.5268C20.1733 37.9764 19.8851 37.6888 19.8851 37.3353C19.8851 36.9807 20.1733 36.6942 20.5268 36.6942H23.9322C24.2862 36.6942 24.5738 36.9801 24.5738 37.3353C24.5733 37.6888 24.2862 37.9764 23.9322 37.9764ZM25.5295 24.0843C25.5295 26.7329 24.5475 29.1569 22.9313 31.0126C22.9187 31.0321 22.9038 31.0498 22.8877 31.0676C22.7714 31.1999 22.6511 31.3289 22.5274 31.4555C22.4993 31.4864 22.4689 31.5156 22.4386 31.5454C22.3687 31.6159 22.2982 31.6841 22.2266 31.7528C22.1985 31.7792 22.1687 31.8067 22.1407 31.833C22.1074 31.8645 22.0736 31.8938 22.0415 31.9241C21.9928 31.9694 21.9424 32.0141 21.8914 32.0565C21.7545 32.1756 21.6136 32.2914 21.4703 32.4025C21.4222 32.4397 21.3747 32.4764 21.3265 32.5125C21.2882 32.5429 21.2492 32.5709 21.2097 32.5984C21.1186 32.666 21.0258 32.7314 20.9324 32.7955C20.8865 32.8265 20.8407 32.8568 20.7932 32.8872C20.7903 32.8901 20.7863 32.8923 20.7834 32.8952C20.7296 32.9302 20.6769 32.9657 20.6219 32.9989C20.6052 33.0098 20.5869 33.0213 20.5703 33.0321C20.5308 33.0573 20.4895 33.082 20.4494 33.1066C20.3486 33.1691 20.2466 33.2286 20.144 33.2859C20.1039 33.3094 20.0627 33.3318 20.0226 33.353C19.9521 33.3925 19.8811 33.4303 19.81 33.467C19.743 33.5019 19.6777 33.5352 19.6101 33.5678C19.5092 33.6177 19.4078 33.6652 19.3064 33.7116C19.1798 33.7683 19.0515 33.8222 18.9232 33.8749C18.8813 33.8915 18.8407 33.9093 18.7988 33.9242C18.7633 33.9385 18.7284 33.9511 18.6928 33.9643C18.6596 33.9769 18.6275 33.9883 18.5949 34.0004C18.5645 34.0113 18.5353 34.0216 18.5049 34.0324C18.2528 34.1235 17.9973 34.2038 17.7389 34.2742C17.6713 34.2931 17.6043 34.3103 17.5361 34.3281C17.4857 34.3407 17.4353 34.3527 17.3843 34.3653C17.3677 34.3682 17.3499 34.3733 17.3333 34.3773C17.2989 34.3859 17.2657 34.3928 17.2313 34.4008C17.197 34.4083 17.1626 34.4152 17.1276 34.422C17.1104 34.426 17.0938 34.4301 17.0772 34.4329C17.0262 34.4438 16.9747 34.4535 16.9225 34.4633C16.7443 34.4982 16.5639 34.5269 16.3828 34.5504C16.3748 34.5515 16.3679 34.5521 16.3605 34.5532C16.2694 34.5658 16.1772 34.5767 16.0861 34.5865C15.9938 34.5962 15.9016 34.6054 15.8099 34.6122C15.7457 34.6168 15.6822 34.622 15.6186 34.6248C15.5802 34.6277 15.5429 34.6294 15.504 34.6329C15.3235 34.6426 15.1425 34.646 14.9614 34.646C14.7798 34.646 14.5988 34.6426 14.4183 34.6329C14.3822 34.6306 14.3461 34.6289 14.31 34.626C14.2441 34.622 14.1794 34.6168 14.1141 34.6122C14.0207 34.6042 13.9285 34.5962 13.8368 34.5865C13.7445 34.5767 13.6523 34.5658 13.5624 34.5532C13.5555 34.5521 13.5486 34.5515 13.5406 34.5504C13.4799 34.5418 13.4203 34.5338 13.3595 34.524C13.3212 34.5189 13.2839 34.512 13.2455 34.5051C13.2077 34.5005 13.1682 34.4925 13.1292 34.4856C13.0771 34.4759 13.0244 34.4673 12.9723 34.4576C12.9539 34.4553 12.9373 34.4507 12.9184 34.4478C12.9018 34.4444 12.884 34.4398 12.8674 34.4369C12.8508 34.4329 12.8336 34.4289 12.8164 34.4249C12.813 34.4249 12.809 34.4243 12.805 34.4232C12.7775 34.4192 12.75 34.4134 12.7236 34.4066C12.707 34.4037 12.6904 34.3997 12.6749 34.3957C12.6239 34.3859 12.5729 34.3733 12.5219 34.3607C12.475 34.3498 12.4268 34.3378 12.3799 34.3264C12.3369 34.3166 12.2956 34.3057 12.2527 34.2937C12.1896 34.2782 12.1272 34.2605 12.0642 34.2433C11.9822 34.2198 11.8997 34.1952 11.8195 34.1694C11.792 34.1608 11.7634 34.1528 11.737 34.143C11.733 34.1413 11.7284 34.1402 11.7244 34.139C11.6585 34.1178 11.5938 34.096 11.5285 34.0737C11.5274 34.0737 11.5274 34.0737 11.5262 34.0737C11.5256 34.0737 11.5245 34.0726 11.5233 34.0726C11.5216 34.0726 11.5205 34.0726 11.5193 34.072C11.458 34.0502 11.395 34.0279 11.3343 34.0044C11.3274 34.0021 11.3205 34.0004 11.3131 33.9975C11.3039 33.9946 11.2965 33.9906 11.2873 33.9878C11.2724 33.9826 11.2558 33.9769 11.2415 33.9711C11.2375 33.9689 11.2323 33.9677 11.2289 33.9671C11.1985 33.9551 11.1699 33.9436 11.1412 33.9316C11.0776 33.907 11.0129 33.8818 10.9504 33.8566C10.8868 33.8302 10.8232 33.8027 10.7602 33.7752C10.6978 33.7489 10.6342 33.7202 10.5723 33.6921C10.5093 33.6635 10.4468 33.6343 10.385 33.6051C10.3775 33.601 10.3712 33.597 10.3638 33.5942C10.2801 33.5546 10.197 33.5128 10.1145 33.4687C10.036 33.4297 9.95985 33.3885 9.88365 33.3461C9.86302 33.3364 9.84412 33.326 9.82578 33.314C9.76964 33.2825 9.71521 33.2521 9.66021 33.2201C9.59146 33.1817 9.52615 33.1416 9.45912 33.1009C9.39667 33.0636 9.33307 33.0235 9.2712 32.9823C9.21734 32.9479 9.16521 32.9135 9.11135 32.8786C9.04891 32.8362 8.98589 32.7944 8.92458 32.7503C8.9074 32.7394 8.89021 32.7279 8.87417 32.7159C8.86271 32.7079 8.85068 32.7004 8.83922 32.6913C8.83234 32.6878 8.82661 32.6815 8.81974 32.6769C8.79682 32.662 8.77448 32.6454 8.75214 32.6299C8.67365 32.5732 8.5963 32.5154 8.51953 32.4564C8.47083 32.4203 8.42271 32.3825 8.37458 32.3429C8.315 32.2948 8.25541 32.2472 8.1964 32.198C8.10703 32.1258 8.02109 32.0502 7.93458 31.974C7.84864 31.8966 7.76328 31.8193 7.67906 31.7402C7.45562 31.5277 7.24135 31.3042 7.03453 31.0716C7.01791 31.0521 7.00244 31.0332 6.98869 31.012C5.37192 29.1558 4.39337 26.7341 4.39337 24.0872C4.39337 21.5148 5.33181 19.0341 7.03453 17.1039C9.01625 14.8604 11.8585 13.5616 14.8468 13.5289C14.8847 13.5272 14.9248 13.5272 14.9631 13.5272C15.0015 13.5272 15.0416 13.5272 15.08 13.5289C18.0689 13.5616 20.91 14.8604 22.8912 17.1039C24.5945 19.0341 25.5323 21.5136 25.5323 24.0872V24.0843H25.5295Z" fill="#07113D"/>
  </g>
  <path d="M21.7703 7.85938L21.1436 9.22979H22.3982L21.7703 7.85938Z" fill="#07113D"/>
  <mask id="mask1_261_4806" style="mask-type:luminance" maskUnits="userSpaceOnUse" x="0" y="0" width="25" height="3">
    <path d="M0 0H24.9936V2.86H0V0Z" fill="white"/>
  </mask>
  <g mask="url(#mask1_261_4806)">
    <path d="M24.9016 1.10405C24.9016 0.810144 24.7835 0.539154 24.5693 0.339206C24.3544 0.138685 24.0754 0.0395707 23.7826 0.0590498L0.978206 1.61395C0.430496 1.65119 0.00195312 2.10895 0.00195312 2.65837V2.77582H24.9016V1.10405Z" fill="#07113D"/>
  </g>
  <path d="M20.0557 19.1923C20.4103 20.4705 20.6286 21.9085 20.6756 23.4445H24.2242C24.0947 21.5826 23.4084 19.8048 22.2494 18.3398C21.5888 18.6744 20.8509 18.9615 20.0557 19.1923Z" fill="#07113D"/>
  <path d="M20.0557 28.977C20.8503 29.2091 21.5876 29.4938 22.2471 29.8295C23.374 28.4064 24.0919 26.6441 24.2231 24.7266H20.6756C20.6286 26.2614 20.412 27.6983 20.0557 28.977Z" fill="#07113D"/>
  <path d="M9.24495 24.7246H5.69629C5.82749 26.6433 6.54593 28.4045 7.67458 29.8276C8.33343 29.4918 9.0725 29.206 9.86599 28.9751C9.50849 27.6975 9.29192 26.2606 9.24495 24.7246Z" fill="#07113D"/>
  <path d="M9.86501 19.1915C9.0698 18.9595 8.33074 18.6736 7.67073 18.3379C6.51058 19.8034 5.82479 21.5817 5.69531 23.4426H9.24569C9.29209 21.9077 9.50923 20.4697 9.86501 19.1915Z" fill="#07113D"/>
  <path d="M11.1153 28.6646H11.1165C12.1323 28.4543 13.2128 28.3271 14.3179 28.2916V24.7246H10.5264C10.5756 26.1414 10.7853 27.4815 11.1153 28.6646Z" fill="#07113D"/>
  <path d="M19.3931 24.7246H15.6016V28.2916C16.7067 28.3271 17.7872 28.4543 18.803 28.6657C19.1342 27.4832 19.3439 26.1414 19.3931 24.7246Z" fill="#07113D"/>
  <path d="M11.1153 19.502C10.7853 20.6867 10.5756 22.0268 10.5264 23.443H14.3179V19.8749C13.2128 19.84 12.1323 19.7122 11.1165 19.502H11.1153Z" fill="#07113D"/>
  <path d="M18.803 19.5C17.7872 19.7114 16.7067 19.8392 15.6016 19.8741V23.4422H19.3931C19.3439 22.026 19.1342 20.6848 18.803 19.5Z" fill="#07113D"/>
  <path d="M11.6475 15.416C11.6206 15.4263 11.5908 15.4372 11.5627 15.4492C11.5054 15.4704 11.4499 15.4939 11.3943 15.5174C11.3811 15.5226 11.3685 15.5283 11.3559 15.5335C11.3066 15.5535 11.2579 15.5753 11.2098 15.5959C10.9755 15.6996 10.7446 15.8125 10.52 15.9345C10.477 15.958 10.4347 15.9815 10.3928 16.0061C10.3361 16.0371 10.2782 16.0697 10.2232 16.1041C10.1814 16.1276 10.1407 16.1516 10.1006 16.1774C10.0686 16.1969 10.037 16.2152 10.0055 16.237C9.95398 16.2691 9.90069 16.3035 9.85028 16.3378C9.79528 16.3722 9.74314 16.4083 9.68929 16.4455C9.4034 16.6421 9.12725 16.8558 8.86428 17.0838C8.80642 17.1336 8.7497 17.1858 8.69298 17.2373C8.66835 17.2591 8.64428 17.2814 8.62022 17.3049C8.60475 17.3187 8.58928 17.3336 8.57324 17.3502C9.09173 17.5897 9.66007 17.7982 10.2634 17.9724C10.6386 16.9761 11.1078 16.1115 11.6475 15.416Z" fill="#07113D"/>
  <path d="M11.5234 18.2796C12.4115 18.4537 13.3539 18.5603 14.3187 18.5941V14.9062C13.2078 15.2586 12.2155 16.5081 11.5234 18.2796Z" fill="#07113D"/>
  <path d="M15.6016 14.9062V18.593C16.5675 18.5597 17.51 18.4532 18.3968 18.2779C17.7042 16.5081 16.7125 15.2586 15.6016 14.9062Z" fill="#07113D"/>
  <path d="M21.3475 17.3502C21.3074 17.3107 21.2662 17.2728 21.2261 17.2356C21.1665 17.1806 21.1058 17.1267 21.045 17.074C20.9832 17.019 20.9196 16.9663 20.8571 16.9142C20.8548 16.9125 20.8537 16.9113 20.8531 16.9108C20.7901 16.8598 20.7277 16.8088 20.6646 16.7607C20.5237 16.6512 20.381 16.5464 20.2338 16.4455C20.1817 16.4083 20.1278 16.3722 20.0734 16.3378C20.0224 16.3035 19.9691 16.2691 19.9175 16.237C19.886 16.2152 19.8545 16.1969 19.8224 16.1774C19.7823 16.1516 19.7411 16.1276 19.6998 16.1041C19.6431 16.0697 19.5864 16.0365 19.5303 16.0061C19.4884 15.9815 19.446 15.958 19.4031 15.9345C19.1785 15.813 18.9476 15.6996 18.7133 15.5959C18.6651 15.5741 18.6164 15.5529 18.5672 15.5335C18.5059 15.5065 18.4417 15.4813 18.3793 15.4561C18.3437 15.4424 18.3099 15.4286 18.2744 15.416C18.8141 16.111 19.2833 16.9761 19.6609 17.9735C20.263 17.8005 20.8302 17.5908 21.3475 17.3502Z" fill="#07113D"/>
  <path d="M18.2725 32.7494C18.3848 32.7064 18.4965 32.6623 18.607 32.6153C18.7348 32.5615 18.858 32.5059 18.9823 32.4457C18.9903 32.4417 18.9983 32.4371 19.0058 32.4343C19.0717 32.4016 19.1364 32.3684 19.2017 32.3363C19.377 32.2464 19.5489 32.1512 19.7174 32.0504C19.7368 32.0395 19.7563 32.0286 19.7758 32.016C19.9162 31.9312 20.0554 31.8419 20.1906 31.7491C20.2422 31.7135 20.2943 31.6774 20.3453 31.6402C20.3951 31.6053 20.4461 31.5686 20.4954 31.5314C20.5699 31.4758 20.6443 31.4191 20.7165 31.3623C20.7715 31.3182 20.8254 31.2753 20.8792 31.2311C21.0397 31.0982 21.1955 30.9602 21.3467 30.8169C20.8294 30.578 20.2639 30.3695 19.6595 30.1953C19.2814 31.1888 18.8122 32.0544 18.2725 32.7494Z" fill="#07113D"/>
  <path d="M15.6016 29.5742V33.2604C16.7136 32.908 17.7047 31.6579 18.3968 29.8882C17.5088 29.7152 16.5675 29.6074 15.6016 29.5742Z" fill="#07113D"/>
  <path d="M14.3187 33.2604V29.5742C13.3528 29.6074 12.4103 29.7152 11.5234 29.8893C12.2155 31.6591 13.2078 32.908 14.3187 33.2604Z" fill="#07113D"/>
  <path d="M8.57422 30.8136C9.05261 31.2679 9.57854 31.6701 10.1446 32.015C10.1641 32.0276 10.183 32.0385 10.2036 32.0494C10.372 32.1508 10.5433 32.2459 10.7187 32.3353C10.7845 32.3685 10.8493 32.4017 10.9146 32.4327C10.9226 32.4361 10.9306 32.4407 10.9381 32.4447C11.063 32.5043 11.1862 32.561 11.3133 32.6137C11.4245 32.6607 11.5356 32.7059 11.6485 32.7483C11.1088 32.0528 10.6396 31.1877 10.262 30.1914C9.65761 30.3667 9.09156 30.5741 8.57422 30.8136Z" fill="#07113D"/>
  <path d="M12.7842 38.1582H17.1372V40.0803H12.7842V38.1582Z" fill="#07113D"/>
</svg>