<svg xmlns="http://www.w3.org/2000/svg" width="20" height="30" viewBox="0 0 20 30" fill="none">
  <mask id="mask0_275_4687" style="mask-type:luminance" maskUnits="userSpaceOnUse" x="0" y="2" width="20" height="28">
    <path d="M0 2.69727H20V29.4127H0V2.69727Z" fill="white"/>
  </mask>
  <g mask="url(#mask0_275_4687)">
    <path d="M18.4975 2.71484H0.000976562V27.9881C0.000976562 28.8145 0.67423 29.487 1.50144 29.487H18.4975C19.3247 29.487 19.9979 28.8145 19.9979 27.9881V4.21376C19.9987 3.38694 19.3254 2.71484 18.4975 2.71484ZM12.5511 7.56583L13.0693 6.43609C13.0704 6.4315 13.0724 6.42728 13.075 6.4223L14.1604 4.05406C14.1604 4.05215 14.1615 4.04947 14.1623 4.04832C14.1669 4.03836 14.1707 4.02955 14.1768 4.0196C14.1818 4.01041 14.1864 4.00198 14.1929 3.99279C14.199 3.9836 14.2056 3.97517 14.2105 3.96713C14.2178 3.95794 14.2251 3.94952 14.2324 3.94109C14.2389 3.93381 14.2454 3.92654 14.2527 3.92079C14.2619 3.91084 14.2714 3.90241 14.2822 3.89475C14.2879 3.89016 14.2933 3.88594 14.299 3.88135C14.307 3.87484 14.3155 3.87024 14.3239 3.8645C14.3396 3.85454 14.3568 3.84535 14.3737 3.83769C14.3744 3.83692 14.3756 3.83692 14.3764 3.83616C14.3894 3.83041 14.4024 3.82582 14.4158 3.82122C14.417 3.82046 14.4185 3.82007 14.4189 3.82007C14.4315 3.81548 14.443 3.81203 14.4556 3.81012C14.4694 3.80705 14.4824 3.80437 14.4962 3.80246C14.5047 3.80169 14.5131 3.80054 14.5219 3.80054C14.5422 3.79901 14.5617 3.79901 14.5812 3.80054C14.5901 3.80054 14.5985 3.80169 14.6069 3.80246C14.6207 3.80437 14.6337 3.80744 14.6475 3.81012C14.6601 3.81203 14.6716 3.81624 14.6843 3.82007C14.6854 3.82046 14.6862 3.82046 14.6873 3.82122C14.7007 3.82582 14.7138 3.83041 14.7268 3.83616C14.7536 3.84956 14.7804 3.8645 14.8045 3.88211C14.8106 3.88671 14.816 3.89054 14.8217 3.89513C14.8447 3.91352 14.8654 3.93458 14.8838 3.95756C14.8884 3.9633 14.8926 3.96866 14.8972 3.97441C14.914 3.99739 14.929 4.02228 14.9416 4.04947L14.9435 4.0556L16.0331 6.43341C16.0331 6.43418 16.0331 6.43418 16.0331 6.43418L16.552 7.56736C16.6508 7.78335 16.5566 8.03726 16.3402 8.13453C16.2828 8.16057 16.2226 8.17398 16.1621 8.17398C15.9998 8.17398 15.8439 8.08092 15.7719 7.9239L15.3625 7.0293H13.7391L13.3297 7.9239C13.2585 8.08092 13.1026 8.17398 12.9395 8.17398C12.8801 8.17398 12.8196 8.16057 12.7614 8.13453C12.5481 8.03496 12.4531 7.78106 12.5511 7.56583ZM10.7432 6.41388C9.92055 6.41388 9.25113 5.84173 9.25113 5.139C9.25113 4.43626 9.92055 3.8645 10.7432 3.8645C11.5658 3.8645 12.2344 4.43626 12.2344 5.139C12.2344 5.37528 12.0429 5.56753 11.8055 5.56753C11.5688 5.56753 11.3762 5.37528 11.3762 5.139C11.3762 4.94139 11.1166 4.72157 10.7424 4.72157C10.3686 4.72157 10.1078 4.94139 10.1078 5.139C10.1078 5.33661 10.3686 5.55643 10.7424 5.55643C11.565 5.55643 12.2337 6.12857 12.2337 6.83169C12.2337 7.53443 11.565 8.10657 10.7424 8.10657C9.91979 8.10657 9.25075 7.53443 9.25075 6.83169C9.25075 6.59502 9.443 6.40316 9.67967 6.40316C9.91672 6.40316 10.1086 6.59425 10.1086 6.83169C10.1086 7.02892 10.369 7.24912 10.7432 7.24912C11.1169 7.24912 11.377 7.02892 11.377 6.83169C11.377 6.63408 11.1166 6.41388 10.7432 6.41388ZM7.87858 4.2264C7.87858 3.98934 8.07121 3.79786 8.3075 3.79786C8.54456 3.79786 8.73642 3.98896 8.73642 4.2264V7.74391C8.73642 7.9802 8.54532 8.17244 8.3075 8.17244C8.07121 8.17244 7.87858 7.9802 7.87858 7.74391V4.2264ZM3.65715 3.83692C3.87199 3.73812 4.12705 3.83386 4.22509 4.04832L5.44713 6.71412L6.66841 4.04832C6.76721 3.83386 7.0215 3.73812 7.23635 3.83692C7.45119 3.93573 7.54655 4.18963 7.44774 4.40447L5.83929 7.91662L5.83737 7.92275C5.83431 7.93041 5.82971 7.93845 5.82512 7.94611C5.82052 7.95454 5.81631 7.96181 5.81133 7.96986C5.8052 7.97943 5.79869 7.98862 5.79295 7.99781C5.78759 8.00432 5.78299 8.0116 5.77801 8.01696C5.76729 8.02998 5.75619 8.04147 5.74508 8.05296C5.73857 8.05947 5.73129 8.06521 5.72478 8.07058C5.69338 8.09662 5.65929 8.11806 5.62253 8.13453C5.60951 8.14027 5.59649 8.14487 5.58347 8.14947C5.58194 8.15023 5.58155 8.151 5.58002 8.151C5.56547 8.15598 5.5513 8.15942 5.53751 8.1621C5.52487 8.16478 5.51262 8.16746 5.49998 8.16861C5.49309 8.16976 5.48581 8.17053 5.47853 8.17053C5.46819 8.17129 5.45747 8.17168 5.44713 8.17168C5.43679 8.17168 5.42607 8.17129 5.41573 8.17053C5.40845 8.17053 5.40118 8.16976 5.3939 8.16861C5.38164 8.16746 5.36901 8.16517 5.35675 8.1621C5.3422 8.15942 5.32803 8.15559 5.31424 8.151C5.31348 8.151 5.31233 8.15023 5.3108 8.14947C5.29777 8.14487 5.28475 8.14027 5.27173 8.13453C5.27097 8.13376 5.26982 8.13376 5.26905 8.13338C5.23229 8.11691 5.19897 8.09547 5.16948 8.07058C5.16297 8.06445 5.15569 8.05947 5.14918 8.05296C5.13923 8.043 5.12889 8.0319 5.12046 8.02156C5.11319 8.01428 5.10706 8.00547 5.10131 7.99781C5.0948 7.98862 5.08829 7.97943 5.08293 7.96986C5.07795 7.96181 5.07374 7.95454 5.06914 7.94611C5.06455 7.93845 5.06072 7.93041 5.05689 7.92275L3.44575 4.40447C3.34771 4.18963 3.44269 3.93496 3.65715 3.83692ZM3.57405 24.9585C3.57405 24.7214 3.76668 24.5299 4.00297 24.5299H6.27932C6.51599 24.5299 6.70824 24.721 6.70824 24.9585C6.70824 25.1947 6.51599 25.387 6.27932 25.387H4.00297C3.76591 25.387 3.57405 25.1947 3.57405 24.9585ZM6.37046 27.6809H5.35292C5.11587 27.6809 4.924 27.4887 4.924 27.2524C4.924 27.0161 5.1151 26.8239 5.35292 26.8239H6.37046C6.60752 26.8239 6.79938 27.0161 6.79938 27.2524C6.79938 27.4887 6.60828 27.6809 6.37046 27.6809ZM12.3122 27.2225C12.3122 27.4584 12.1195 27.6511 11.8833 27.6511H8.1164C7.88011 27.6511 7.68748 27.4584 7.68748 27.2225V25.0806C7.68748 24.8447 7.88011 24.6521 8.1164 24.6521H11.8833C12.1195 24.6521 12.3122 24.8447 12.3122 25.0806V27.2225ZM14.6464 27.6809H13.6284C13.3914 27.6809 13.1995 27.4887 13.1995 27.2524C13.1995 27.0161 13.3906 26.8239 13.6284 26.8239H14.6464C14.8834 26.8239 15.0753 27.0161 15.0753 27.2524C15.0753 27.4887 14.8838 27.6809 14.6464 27.6809ZM15.9971 25.387H13.7207C13.4844 25.387 13.2918 25.1947 13.2918 24.9585C13.2918 24.7214 13.4844 24.5299 13.7207 24.5299H15.9971C16.2337 24.5299 16.426 24.721 16.426 24.9585C16.4256 25.1947 16.2337 25.387 15.9971 25.387ZM17.0648 16.1009C17.0648 17.8714 16.4084 19.4917 15.328 20.7321C15.3196 20.7451 15.3096 20.757 15.2989 20.7688C15.2212 20.8573 15.1408 20.9435 15.058 21.0281C15.0393 21.0488 15.019 21.0683 14.9987 21.0882C14.952 21.1353 14.9049 21.1809 14.857 21.2269C14.8382 21.2445 14.8183 21.2629 14.7995 21.2805C14.7773 21.3015 14.7547 21.3211 14.7333 21.3414C14.7007 21.3716 14.667 21.4015 14.6329 21.4298C14.5414 21.5095 14.4472 21.5869 14.3515 21.6612C14.3193 21.686 14.2875 21.7106 14.2553 21.7347C14.2297 21.755 14.2036 21.7737 14.1772 21.7921C14.1163 21.8373 14.0543 21.881 13.9919 21.9239C13.9612 21.9445 13.9306 21.9648 13.8988 21.9851C13.8969 21.9871 13.8942 21.9886 13.8923 21.9905C13.8563 22.0139 13.8211 22.0376 13.7843 22.0598C13.7732 22.0671 13.7609 22.0748 13.7498 22.082C13.7234 22.0989 13.6958 22.1153 13.669 22.1318C13.6016 22.1736 13.5335 22.2134 13.4649 22.2517C13.4381 22.2674 13.4105 22.2823 13.3837 22.2965C13.3366 22.3229 13.2891 22.3482 13.2416 22.3727C13.1968 22.3961 13.1532 22.4183 13.108 22.4401C13.0406 22.4734 12.9728 22.5052 12.905 22.5362C12.8204 22.5741 12.7346 22.6101 12.6488 22.6454C12.6208 22.6565 12.5937 22.6683 12.5657 22.6783C12.542 22.6879 12.5186 22.6963 12.4948 22.7051C12.4726 22.7135 12.4512 22.7212 12.4294 22.7292C12.4091 22.7365 12.3895 22.7434 12.3692 22.7507C12.2007 22.8116 12.0299 22.8652 11.8572 22.9123C11.812 22.9249 11.7672 22.9364 11.7216 22.9483C11.6879 22.9567 11.6542 22.9648 11.6202 22.9732C11.609 22.9751 11.5972 22.9785 11.5861 22.9812C11.5631 22.987 11.5409 22.9916 11.5179 22.9969C11.4949 23.0019 11.4719 23.0065 11.4486 23.0111C11.4371 23.0138 11.426 23.0165 11.4149 23.0184C11.3808 23.0256 11.3463 23.0322 11.3115 23.0387C11.1924 23.062 11.0717 23.0812 10.9507 23.0969C10.9454 23.0976 10.9408 23.098 10.9358 23.0988C10.8749 23.1072 10.8132 23.1145 10.7524 23.121C10.6907 23.1275 10.629 23.1336 10.5678 23.1382C10.5249 23.1413 10.4824 23.1447 10.4399 23.1467C10.4142 23.1486 10.3893 23.1497 10.3633 23.152C10.2426 23.1585 10.1216 23.1608 10.0006 23.1608C9.87919 23.1608 9.75818 23.1585 9.63754 23.152C9.61342 23.1505 9.58929 23.1493 9.56516 23.1474C9.52112 23.1447 9.47785 23.1413 9.43419 23.1382C9.37176 23.1329 9.31011 23.1275 9.24883 23.121C9.18717 23.1145 9.12552 23.1072 9.06539 23.0988C9.0608 23.098 9.0562 23.0976 9.05084 23.0969C9.01024 23.0911 8.97042 23.0858 8.92982 23.0793C8.90416 23.0758 8.87927 23.0712 8.85361 23.0666C8.82834 23.0636 8.80191 23.0582 8.77587 23.0536C8.74102 23.0471 8.70579 23.0413 8.67094 23.0348C8.65868 23.0333 8.64758 23.0302 8.63494 23.0283C8.62383 23.026 8.61196 23.023 8.60085 23.0211C8.58975 23.0184 8.57826 23.0157 8.56677 23.013C8.56447 23.013 8.56179 23.0126 8.55911 23.0119C8.54073 23.0092 8.52235 23.0054 8.50473 23.0008C8.49362 22.9988 8.48252 22.9962 8.47218 22.9935C8.43809 22.987 8.40401 22.9785 8.36993 22.9701C8.33852 22.9628 8.30635 22.9548 8.27495 22.9471C8.24623 22.9406 8.21865 22.9334 8.18993 22.9253C8.14781 22.915 8.10606 22.9031 8.06394 22.8916C8.00917 22.8759 7.95403 22.8594 7.90041 22.8422C7.88203 22.8365 7.86288 22.8311 7.84526 22.8246C7.84258 22.8234 7.83952 22.8227 7.83684 22.8219C7.7928 22.8077 7.74952 22.7932 7.70586 22.7783C7.7051 22.7783 7.7051 22.7783 7.70433 22.7783C7.70395 22.7783 7.70318 22.7775 7.70242 22.7775C7.70127 22.7775 7.7005 22.7775 7.69974 22.7771C7.65876 22.7626 7.61663 22.7476 7.57604 22.7319C7.57144 22.7304 7.56685 22.7292 7.56187 22.7273C7.55574 22.7254 7.55076 22.7227 7.54463 22.7208C7.53468 22.7174 7.52357 22.7135 7.514 22.7097C7.51132 22.7082 7.50787 22.7074 7.50557 22.707C7.48527 22.699 7.46613 22.6913 7.44698 22.6833C7.40447 22.6668 7.36119 22.65 7.31945 22.6331C7.27694 22.6155 7.23443 22.5971 7.19231 22.5787C7.15056 22.5611 7.10805 22.542 7.06669 22.5232C7.02457 22.5041 6.98282 22.4845 6.94146 22.465C6.93649 22.4623 6.93227 22.4596 6.92729 22.4577C6.87138 22.4313 6.81585 22.4033 6.7607 22.3738C6.70824 22.3478 6.6573 22.3202 6.60637 22.2919C6.59258 22.2854 6.57994 22.2785 6.56769 22.2704C6.53016 22.2494 6.49378 22.2291 6.45701 22.2076C6.41106 22.182 6.3674 22.1552 6.32259 22.128C6.28085 22.1031 6.23834 22.0763 6.19698 22.0487C6.16098 22.0257 6.12613 22.0028 6.09013 21.9794C6.04839 21.9511 6.00626 21.9231 5.96528 21.8936C5.9538 21.8863 5.94231 21.8787 5.93158 21.8706C5.92392 21.8653 5.91588 21.8603 5.90822 21.8542C5.90363 21.8519 5.8998 21.8477 5.8952 21.8446C5.87988 21.8346 5.86495 21.8235 5.85001 21.8132C5.79755 21.7753 5.74584 21.7366 5.69453 21.6971C5.66198 21.673 5.62981 21.6477 5.59764 21.6213C5.55781 21.5892 5.51798 21.5574 5.47853 21.5244C5.41879 21.4762 5.36135 21.4256 5.30352 21.3747C5.24607 21.323 5.18901 21.2713 5.13272 21.2184C4.98336 21.0764 4.84013 20.927 4.70188 20.7715C4.69077 20.7585 4.68043 20.7459 4.67124 20.7317C3.59051 19.4909 2.93641 17.8721 2.93641 16.1028C2.93641 14.3833 3.56371 12.7251 4.70188 11.4349C6.02656 9.93522 7.92645 9.06704 9.924 9.04522C9.94928 9.04407 9.97608 9.04407 10.0017 9.04407C10.0274 9.04407 10.0542 9.04407 10.0799 9.04522C12.0778 9.06704 13.9769 9.93522 15.3012 11.4349C16.4398 12.7251 17.0667 14.3826 17.0667 16.1028V16.1009H17.0648Z" fill="white"/>
  </g>
  <path d="M14.5528 5.25391L14.1338 6.16995H14.9725L14.5528 5.25391Z" fill="white"/>
  <mask id="mask1_275_4687" style="mask-type:luminance" maskUnits="userSpaceOnUse" x="0" y="0" width="17" height="2">
    <path d="M0 0H16.7069V1.91175H0V0Z" fill="white"/>
  </mask>
  <g mask="url(#mask1_275_4687)">
    <path d="M16.6451 0.739197C16.6451 0.542737 16.5662 0.361596 16.4229 0.227942C16.2793 0.0939048 16.0928 0.0276522 15.8971 0.0406729L0.65355 1.08003C0.287435 1.10493 0.000976562 1.41091 0.000976562 1.77817V1.85668H16.6451V0.739197Z" fill="white"/>
  </g>
  <path d="M13.4062 12.8277C13.6433 13.6821 13.7892 14.6433 13.8206 15.67H16.1927C16.1062 14.4254 15.6474 13.237 14.8726 12.2578C14.4311 12.4815 13.9378 12.6733 13.4062 12.8277Z" fill="white"/>
  <path d="M13.4062 19.3685C13.9374 19.5236 14.4303 19.714 14.8711 19.9384C15.6244 18.9871 16.1042 17.8091 16.1919 16.5273H13.8206C13.7892 17.5533 13.6445 18.5138 13.4062 19.3685Z" fill="white"/>
  <path d="M6.17971 16.5273H3.80762C3.89532 17.8099 4.37556 18.9871 5.13 19.9384C5.57041 19.714 6.06443 19.5229 6.59484 19.3685C6.35587 18.5145 6.21111 17.5541 6.17971 16.5273Z" fill="white"/>
  <path d="M6.59386 12.8284C6.06231 12.6733 5.56828 12.4822 5.12711 12.2578C4.3516 13.2374 3.89319 14.4261 3.80664 15.67H6.17988C6.2109 14.6441 6.35604 13.6828 6.59386 12.8284Z" fill="white"/>
  <path d="M7.42982 19.161H7.43059C8.10959 19.0204 8.83186 18.9354 9.5706 18.9117V16.5273H7.03613C7.06907 17.4744 7.20923 18.3702 7.42982 19.161Z" fill="white"/>
  <path d="M12.9632 16.5273H10.4287V18.9117C11.1675 18.9354 11.8897 19.0204 12.5687 19.1617C12.7901 18.3713 12.9302 17.4744 12.9632 16.5273Z" fill="white"/>
  <path d="M7.42982 13.0371C7.20923 13.8291 7.06907 14.7248 7.03613 15.6715H9.5706V13.2864C8.83186 13.2631 8.10959 13.1777 7.43059 13.0371H7.42982Z" fill="white"/>
  <path d="M12.5687 13.0352C11.8897 13.1765 11.1675 13.2619 10.4287 13.2852V15.6703H12.9632C12.9302 14.7236 12.7901 13.8271 12.5687 13.0352Z" fill="white"/>
  <path d="M7.78546 10.3047C7.76746 10.3116 7.74755 10.3189 7.72878 10.3269C7.69049 10.3411 7.65334 10.3568 7.61619 10.3725C7.60738 10.3759 7.59896 10.3797 7.59053 10.3832C7.5576 10.3966 7.52505 10.4112 7.49288 10.4249C7.33624 10.4943 7.18191 10.5697 7.03179 10.6513C7.00306 10.667 6.97472 10.6827 6.94677 10.6991C6.90885 10.7198 6.87017 10.7416 6.83341 10.7646C6.80545 10.7803 6.77826 10.7964 6.75146 10.8136C6.73001 10.8267 6.70895 10.8389 6.68788 10.8535C6.65342 10.8749 6.6178 10.8979 6.5841 10.9209C6.54733 10.9439 6.51248 10.968 6.47649 10.9929C6.28539 11.1242 6.1008 11.2671 5.92502 11.4195C5.88634 11.4528 5.84842 11.4877 5.81051 11.5221C5.79404 11.5367 5.77796 11.5516 5.76187 11.5673C5.75153 11.5765 5.74119 11.5865 5.73047 11.5976C6.07705 11.7576 6.45695 11.897 6.86022 12.0135C7.11106 11.3475 7.42471 10.7696 7.78546 10.3047Z" fill="white"/>
  <path d="M7.70312 12.2197C8.29672 12.3361 8.9267 12.4074 9.57161 12.43V9.96484C8.82904 10.2004 8.16575 11.0356 7.70312 12.2197Z" fill="white"/>
  <path d="M10.4287 9.96484V12.4292C11.0744 12.407 11.7044 12.3358 12.2972 12.2186C11.8342 11.0356 11.1713 10.2004 10.4287 9.96484Z" fill="white"/>
  <path d="M14.27 11.5976C14.2432 11.5711 14.2157 11.5459 14.1889 11.521C14.149 11.4842 14.1084 11.4482 14.0678 11.413C14.0265 11.3762 13.984 11.341 13.9422 11.3061C13.9407 11.305 13.9399 11.3042 13.9395 11.3038C13.8974 11.2698 13.8557 11.2357 13.8136 11.2035C13.7193 11.1304 13.624 11.0603 13.5256 10.9929C13.4907 10.968 13.4547 10.9439 13.4183 10.9209C13.3842 10.8979 13.3486 10.8749 13.3142 10.8535C13.2931 10.8389 13.272 10.8267 13.2506 10.8136C13.2238 10.7964 13.1962 10.7803 13.1686 10.7646C13.1307 10.7416 13.0928 10.7194 13.0553 10.6991C13.0273 10.6827 12.999 10.667 12.9703 10.6513C12.8201 10.5701 12.6658 10.4943 12.5092 10.4249C12.477 10.4104 12.4445 10.3962 12.4115 10.3832C12.3705 10.3652 12.3276 10.3483 12.2859 10.3315C12.2622 10.3223 12.2396 10.3131 12.2158 10.3047C12.5766 10.7692 12.8902 11.3475 13.1426 12.0142C13.5451 11.8986 13.9242 11.7584 14.27 11.5976Z" fill="white"/>
  <path d="M12.2139 21.8908C12.2889 21.8621 12.3636 21.8326 12.4375 21.8012C12.5229 21.7652 12.6053 21.7281 12.6884 21.6879C12.6937 21.6852 12.6991 21.6821 12.7041 21.6802C12.7481 21.6584 12.7914 21.6362 12.835 21.6147C12.9522 21.5546 13.0671 21.491 13.1797 21.4236C13.1927 21.4164 13.2057 21.4091 13.2188 21.4006C13.3126 21.344 13.4057 21.2842 13.496 21.2222C13.5305 21.1984 13.5654 21.1743 13.5994 21.1494C13.6328 21.1261 13.6668 21.1016 13.6998 21.0767C13.7496 21.0395 13.7993 21.0016 13.8476 20.9637C13.8844 20.9342 13.9204 20.9055 13.9564 20.876C14.0636 20.7871 14.1678 20.6948 14.2689 20.5991C13.923 20.4394 13.5451 20.3 13.141 20.1836C12.8883 20.8477 12.5746 21.4263 12.2139 21.8908Z" fill="white"/>
  <path d="M10.4287 19.7695V22.2335C11.172 21.998 11.8346 21.1624 12.2972 19.9794C11.7036 19.8637 11.0744 19.7917 10.4287 19.7695Z" fill="white"/>
  <path d="M9.57161 22.2335V19.7695C8.92593 19.7917 8.29596 19.8637 7.70312 19.9802C8.16575 21.1631 8.82904 21.998 9.57161 22.2335Z" fill="white"/>
  <path d="M5.73145 20.5975C6.05122 20.9012 6.40278 21.1701 6.78115 21.4006C6.79418 21.409 6.80681 21.4163 6.8206 21.4236C6.93319 21.4914 7.0477 21.5549 7.16489 21.6147C7.20893 21.6369 7.2522 21.6591 7.29586 21.6798C7.30122 21.6821 7.30658 21.6852 7.31156 21.6878C7.39505 21.7277 7.47739 21.7656 7.5624 21.8008C7.6367 21.8322 7.71099 21.8625 7.78644 21.8908C7.42569 21.4259 7.11204 20.8476 6.85966 20.1816C6.45563 20.2988 6.07726 20.4375 5.73145 20.5975Z" fill="white"/>
  <path d="M8.5459 25.5078H11.4557V26.7927H8.5459V25.5078Z" fill="white"/>
</svg>