<svg xmlns="http://www.w3.org/2000/svg" width="20" height="22" viewBox="0 0 20 22" fill="none">
  <mask id="mask0_275_4651" style="mask-type:luminance" maskUnits="userSpaceOnUse" x="0" y="18" width="20" height="4">
    <path d="M0 18.5996H20V21.3127H0V18.5996Z" fill="white"/>
  </mask>
  <g mask="url(#mask0_275_4651)">
    <path d="M19.8415 19.5164C19.7857 19.448 19.7266 19.3833 19.6638 19.3217C19.6011 19.2603 19.535 19.2023 19.4658 19.1482C19.3967 19.0941 19.3247 19.0439 19.2497 18.9976C19.1749 18.9516 19.098 18.9098 19.0185 18.8721C18.939 18.8345 18.8576 18.8016 18.7744 18.7728C18.6913 18.7444 18.6068 18.7204 18.5212 18.7014C18.4353 18.6822 18.3486 18.668 18.2613 18.6585C18.174 18.649 18.0861 18.6443 17.9983 18.6445C17.9104 18.6448 17.8229 18.6498 17.7356 18.6599C17.6483 18.6699 17.5615 18.6847 17.4759 18.7045C17.3903 18.724 17.3061 18.7483 17.223 18.7773C17.1401 18.8063 17.059 18.84 16.9798 18.878C16.9003 18.9159 16.8236 18.9583 16.7491 19.0049C16.6744 19.0514 16.6027 19.1022 16.5338 19.1566C16.4649 19.2113 16.3991 19.2695 16.3369 19.3315C16.2744 19.3934 16.2156 19.4584 16.1604 19.527C16.1367 19.5588 16.111 19.5892 16.0837 19.6179C16.0566 19.6466 16.0276 19.6739 15.9972 19.6993C15.9665 19.7247 15.9348 19.7484 15.9016 19.7702C15.8681 19.7919 15.8338 19.8114 15.7981 19.8293C15.7627 19.8469 15.7261 19.8625 15.6888 19.8759C15.6514 19.8892 15.6135 19.9004 15.5747 19.9096C15.5359 19.9185 15.4969 19.9252 15.4573 19.9294C15.418 19.9339 15.3784 19.9358 15.3385 19.9355C15.2989 19.9355 15.2593 19.9328 15.22 19.928C15.1803 19.923 15.1413 19.9157 15.1028 19.9065C15.0643 19.8971 15.0264 19.8853 14.989 19.8714C14.9519 19.8575 14.9157 19.8416 14.8803 19.8231C14.8451 19.805 14.8108 19.7849 14.7779 19.7629C14.745 19.7406 14.7132 19.7166 14.6831 19.691C14.653 19.665 14.6245 19.6374 14.5975 19.6081C14.5707 19.5791 14.5453 19.5484 14.5222 19.5164C14.4664 19.4483 14.4073 19.3833 14.3445 19.322C14.2818 19.2603 14.2157 19.2026 14.1465 19.1485C14.0771 19.0944 14.0051 19.0442 13.9304 18.9982C13.8556 18.9522 13.7784 18.9103 13.6989 18.8727C13.6194 18.835 13.5382 18.8021 13.4551 18.7737C13.372 18.7449 13.2875 18.7212 13.2016 18.702C13.116 18.683 13.0293 18.6688 12.942 18.6593C12.8547 18.6498 12.7671 18.6451 12.679 18.6454C12.5911 18.6457 12.5035 18.6507 12.4162 18.6607C12.329 18.6708 12.2425 18.6855 12.1569 18.7051C12.0713 18.7249 11.9867 18.7491 11.9039 18.7781C11.8208 18.8071 11.7399 18.8406 11.6604 18.8785C11.5812 18.9165 11.5045 18.9589 11.4298 19.0054C11.3553 19.052 11.2837 19.1025 11.2148 19.1569C11.1459 19.2115 11.0801 19.2698 11.0176 19.3315C10.9551 19.3934 10.8963 19.4586 10.8411 19.527C10.8174 19.5588 10.792 19.5892 10.7646 19.6179C10.7373 19.6466 10.7086 19.6739 10.6779 19.6993C10.6475 19.7247 10.6157 19.7484 10.5825 19.7702C10.5493 19.7919 10.5148 19.8114 10.4793 19.8293C10.4436 19.8469 10.4074 19.8625 10.37 19.8759C10.3326 19.8892 10.2947 19.9004 10.2559 19.9096C10.2172 19.9185 10.1781 19.9252 10.1388 19.9294C10.0992 19.9339 10.0596 19.9358 10.02 19.9355C9.98012 19.9355 9.94079 19.9328 9.90119 19.928C9.86187 19.923 9.82282 19.9157 9.78433 19.9065C9.74585 19.8971 9.70792 19.8853 9.67083 19.8714C9.63345 19.8575 9.5972 19.8416 9.56206 19.8231C9.52664 19.805 9.49261 19.7849 9.4597 19.7629C9.42679 19.7406 9.39528 19.7166 9.36516 19.6907C9.33476 19.665 9.30631 19.6374 9.27954 19.6081C9.25249 19.5791 9.22739 19.5484 9.20424 19.5164C9.14846 19.448 9.08933 19.3833 9.02658 19.3217C8.96383 19.2603 8.89773 19.2023 8.82829 19.1482C8.75912 19.0941 8.68717 19.0439 8.61243 18.9976C8.53741 18.9516 8.46043 18.9095 8.38095 18.8721C8.30118 18.8345 8.22003 18.8013 8.13692 18.7728C8.05353 18.7444 7.96902 18.7204 7.8834 18.7014C7.7975 18.6822 7.71077 18.668 7.62347 18.6585C7.53618 18.649 7.44833 18.6443 7.36048 18.6445C7.27263 18.6448 7.18478 18.6498 7.09748 18.6599C7.01019 18.6699 6.92373 18.6847 6.83783 18.7045C6.75221 18.724 6.66799 18.7483 6.58488 18.7773C6.50177 18.8063 6.42061 18.8398 6.3414 18.878C6.2622 18.9159 6.18522 18.9583 6.11076 19.0049C6.03602 19.0514 5.96434 19.1022 5.89545 19.1566C5.82657 19.2113 5.76075 19.2695 5.69828 19.3315C5.63581 19.3934 5.57696 19.4584 5.52174 19.527C5.49803 19.5588 5.47265 19.5892 5.44532 19.6179C5.41799 19.6466 5.38926 19.6739 5.35887 19.6993C5.32819 19.7247 5.29639 19.7484 5.26321 19.7702C5.23002 19.7919 5.19571 19.8114 5.16001 19.8293C5.1246 19.8469 5.08806 19.8625 5.05069 19.8759C5.01332 19.8892 4.97539 19.9004 4.93662 19.9096C4.89786 19.9185 4.85881 19.9252 4.81949 19.9294C4.77988 19.9339 4.74028 19.9358 4.70068 19.9355C4.66108 19.9355 4.62147 19.9328 4.58215 19.928C4.54255 19.923 4.50378 19.9157 4.46501 19.9065C4.42653 19.8971 4.3886 19.8853 4.3515 19.8714C4.31441 19.8575 4.27816 19.8416 4.24274 19.8231C4.20732 19.805 4.17329 19.7849 4.14038 19.7629C4.10747 19.7406 4.07596 19.7166 4.04584 19.6907C4.01572 19.665 3.98699 19.6374 3.96022 19.6081C3.93317 19.5791 3.90807 19.5484 3.88492 19.5164C3.82942 19.4486 3.77029 19.3842 3.70754 19.3228C3.64479 19.2617 3.57897 19.2043 3.50981 19.1502C3.44092 19.0964 3.36897 19.0464 3.2945 19.0004C3.22004 18.9547 3.14306 18.9128 3.06386 18.8755C2.98465 18.8381 2.90377 18.8049 2.82094 18.7765C2.73811 18.748 2.65388 18.724 2.56854 18.7051C2.48292 18.6858 2.39675 18.6713 2.30973 18.6616C2.22272 18.6521 2.13542 18.6473 2.04785 18.6473C1.96 18.6473 1.87271 18.6521 1.78569 18.6616C1.69868 18.6713 1.6125 18.6858 1.52688 18.7051C1.44154 18.724 1.35731 18.748 1.27448 18.7765C1.19165 18.8049 1.11077 18.8381 1.03157 18.8755C0.952361 18.9128 0.875386 18.9547 0.800922 19.0004C0.726457 19.0464 0.654503 19.0964 0.585617 19.1502C0.516451 19.2043 0.450633 19.2617 0.387882 19.3228C0.325131 19.3842 0.266006 19.4486 0.210506 19.5164C0.182617 19.5498 0.158353 19.5858 0.137436 19.6243C0.116519 19.6625 0.0997855 19.7027 0.0866776 19.7442C0.0738485 19.7861 0.0649239 19.8287 0.0604617 19.872C0.0557205 19.9155 0.0554415 19.959 0.0593461 20.0025C0.0635294 20.046 0.0716173 20.0887 0.0838886 20.1305C0.0964388 20.1723 0.112615 20.2128 0.132974 20.2512C0.153333 20.29 0.177318 20.3263 0.204649 20.3603C0.231981 20.3943 0.262659 20.4253 0.296126 20.4532C0.329593 20.4811 0.36557 20.5056 0.404057 20.5265C0.442266 20.5474 0.482426 20.5644 0.523981 20.5773C0.565815 20.5904 0.608207 20.5993 0.651714 20.6038C0.695221 20.6085 0.738729 20.6088 0.782236 20.6049C0.825743 20.601 0.868414 20.5929 0.910248 20.5803C0.952082 20.5681 0.992521 20.5519 1.03129 20.5315C1.06977 20.5115 1.10631 20.4875 1.14033 20.4601C1.17408 20.4325 1.20532 20.4021 1.23321 20.3687C1.25691 20.3369 1.28257 20.3065 1.30962 20.2777C1.33695 20.2487 1.36596 20.2217 1.39636 20.1963C1.42676 20.1706 1.45855 20.1472 1.49202 20.1255C1.52521 20.1037 1.55951 20.0839 1.59493 20.0663C1.63063 20.0485 1.66716 20.0332 1.70453 20.0198C1.74163 20.0061 1.77984 19.9949 1.81832 19.986C1.85709 19.9771 1.89613 19.9704 1.93574 19.9659C1.97506 19.9618 2.01466 19.9595 2.05427 19.9598C2.09415 19.9601 2.13375 19.9626 2.17307 19.9676C2.2124 19.9724 2.25144 19.9796 2.28993 19.9891C2.32842 19.9986 2.36635 20.0103 2.40372 20.0242C2.44081 20.0382 2.47707 20.0541 2.51221 20.0722C2.54763 20.0903 2.58165 20.1107 2.61484 20.1327C2.64775 20.1548 2.67926 20.179 2.70938 20.2047C2.73951 20.2306 2.76795 20.2582 2.795 20.2872C2.82178 20.3165 2.84688 20.3472 2.87031 20.3793C2.92581 20.4473 2.98493 20.5123 3.04796 20.5737C3.11071 20.6353 3.17681 20.6933 3.24597 20.7474C3.31514 20.8015 3.38709 20.8517 3.46212 20.898C3.53686 20.944 3.61411 20.9859 3.6936 21.0235C3.77308 21.0612 3.85424 21.0941 3.93763 21.1228C4.02074 21.1512 4.10524 21.1749 4.19114 21.1942C4.27676 21.2134 4.3635 21.2277 4.45079 21.2371C4.53836 21.2466 4.62594 21.2514 4.71379 21.2511C4.80192 21.2508 4.88949 21.2455 4.97678 21.2357C5.06408 21.2257 5.15081 21.2109 5.23643 21.1911C5.32205 21.1716 5.40656 21.1473 5.48939 21.1183C5.5725 21.089 5.65365 21.0556 5.73286 21.0176C5.81207 20.9794 5.88904 20.9373 5.9635 20.8908C6.03825 20.8442 6.10992 20.7934 6.17881 20.7388C6.2477 20.6844 6.31351 20.6261 6.37599 20.5642C6.43846 20.5023 6.4973 20.437 6.55253 20.3687C6.57623 20.3369 6.60161 20.3065 6.62894 20.2777C6.65627 20.2487 6.68528 20.2217 6.71568 20.1963C6.74608 20.1706 6.77787 20.1472 6.81106 20.1255C6.84453 20.1037 6.87883 20.0839 6.91425 20.0663C6.94995 20.0485 6.9862 20.0332 7.02358 20.0198C7.06095 20.0061 7.09916 19.9949 7.13764 19.986C7.17641 19.9771 7.21545 19.9704 7.25506 19.9659C7.29438 19.9618 7.33398 19.9595 7.37359 19.9598C7.41347 19.9601 7.45279 19.9626 7.49239 19.9676C7.53172 19.9726 7.57076 19.9796 7.60925 19.9891C7.64774 19.9986 7.68567 20.0103 7.72276 20.0242C7.76013 20.0382 7.79639 20.0541 7.83153 20.0722C7.86695 20.0903 7.90097 20.1107 7.93388 20.1327C7.96707 20.1548 7.99858 20.179 8.02871 20.2047C8.05883 20.2306 8.08727 20.2582 8.11405 20.2872C8.1411 20.3165 8.1662 20.3472 8.18963 20.3793C8.24513 20.4473 8.30425 20.512 8.367 20.5737C8.43003 20.635 8.49585 20.6927 8.56529 20.7471C8.63446 20.8012 8.70641 20.8511 8.78116 20.8974C8.8559 20.9435 8.93315 20.9853 9.01264 21.0229C9.09212 21.0603 9.17328 21.0935 9.25639 21.122C9.33978 21.1504 9.424 21.1744 9.5099 21.1934C9.59552 21.2126 9.68226 21.2268 9.76955 21.2363C9.85685 21.2458 9.9447 21.2505 10.0325 21.2502C10.1204 21.25 10.208 21.2449 10.2953 21.2349C10.3826 21.2249 10.469 21.2101 10.5546 21.1903C10.6405 21.1708 10.7248 21.1465 10.8076 21.1175C10.8907 21.0885 10.9719 21.055 11.0511 21.0171C11.1303 20.9789 11.2072 20.9368 11.2817 20.8902C11.3562 20.8436 11.4278 20.7931 11.497 20.7385C11.5659 20.6841 11.6314 20.6258 11.6939 20.5639C11.7564 20.5023 11.8152 20.437 11.8705 20.3687C11.8942 20.3369 11.9198 20.3065 11.9471 20.2777C11.9745 20.2487 12.0032 20.2217 12.0339 20.1963C12.0643 20.1706 12.0961 20.1472 12.1293 20.1255C12.1627 20.1037 12.197 20.0839 12.2327 20.0663C12.2682 20.0485 12.3047 20.0332 12.3421 20.0198C12.3794 20.0061 12.4176 19.9949 12.4561 19.986C12.4949 19.9771 12.5339 19.9704 12.5735 19.9659C12.6129 19.9618 12.6525 19.9595 12.6923 19.9598C12.732 19.9601 12.7716 19.9626 12.8109 19.9676C12.8505 19.9726 12.8895 19.9796 12.928 19.9891C12.9665 19.9986 13.0044 20.0103 13.0418 20.0242C13.0789 20.0382 13.1151 20.0541 13.1506 20.0722C13.186 20.0903 13.22 20.1107 13.2529 20.1327C13.2858 20.1548 13.3176 20.179 13.3477 20.2047C13.3779 20.2306 13.4063 20.2582 13.4334 20.2872C13.4601 20.3165 13.4855 20.3472 13.5087 20.3793C13.536 20.4141 13.5642 20.4484 13.5932 20.4816C13.6222 20.5151 13.6523 20.5474 13.6833 20.5792C13.7142 20.6107 13.746 20.6414 13.7786 20.6713C13.8115 20.7011 13.845 20.7298 13.8793 20.7577C13.9136 20.7856 13.9488 20.8127 13.9847 20.8383C14.0207 20.8643 14.0572 20.8891 14.0946 20.9131C14.1317 20.9368 14.1699 20.9594 14.2084 20.9811C14.2469 21.0026 14.2862 21.0232 14.3258 21.0425C14.3657 21.062 14.4061 21.0801 14.4469 21.0974C14.4876 21.1144 14.5289 21.1303 14.5707 21.1451C14.6122 21.1599 14.6544 21.1733 14.697 21.1855C14.7394 21.1981 14.7824 21.209 14.8253 21.219C14.8685 21.2288 14.9121 21.2374 14.9556 21.2449C14.9991 21.2525 15.0429 21.2586 15.0869 21.2634C15.131 21.2684 15.1751 21.272 15.2191 21.2745C15.2635 21.2767 15.3075 21.2779 15.3519 21.2779C15.3962 21.2776 15.4403 21.2762 15.4843 21.2737C15.5287 21.2709 15.5728 21.267 15.6165 21.262C15.6606 21.2567 15.7044 21.2502 15.7479 21.2427C15.7914 21.2349 15.8349 21.226 15.8779 21.2159C15.9211 21.2059 15.9638 21.1945 16.0062 21.1819C16.0485 21.1694 16.0907 21.1554 16.1322 21.1406C16.1738 21.1256 16.215 21.1094 16.2558 21.0921C16.2965 21.0748 16.3366 21.0564 16.3762 21.0366C16.4161 21.0171 16.4552 20.9965 16.4937 20.9744C16.5321 20.9527 16.5698 20.9298 16.6072 20.9058C16.6443 20.8815 16.6808 20.8567 16.7165 20.8305C16.7522 20.8046 16.7871 20.7772 16.8214 20.7494C16.8554 20.7212 16.8888 20.6922 16.9215 20.6621C16.9538 20.6322 16.9856 20.6013 17.0163 20.5695C17.0473 20.5377 17.0771 20.505 17.1058 20.4716C17.1348 20.4381 17.1627 20.4038 17.1898 20.3687C17.2135 20.3371 17.2389 20.307 17.2659 20.2783C17.2932 20.2499 17.322 20.2228 17.3521 20.1977C17.3825 20.1723 17.414 20.1489 17.4472 20.1274C17.4801 20.1057 17.5141 20.0861 17.5495 20.0686C17.5847 20.0507 17.6209 20.0354 17.658 20.022C17.6951 20.0083 17.7328 19.9972 17.7713 19.9883C17.8097 19.979 17.8485 19.9724 17.8876 19.9676C17.9269 19.9632 17.9662 19.9609 18.0055 19.9609C18.0449 19.9609 18.0842 19.9632 18.1235 19.9676C18.1625 19.9724 18.2013 19.979 18.2398 19.9883C18.2783 19.9972 18.3159 20.0083 18.353 20.022C18.3901 20.0354 18.4264 20.0507 18.4615 20.0686C18.4969 20.0861 18.531 20.1057 18.5642 20.1274C18.5971 20.1489 18.6286 20.1723 18.659 20.1977C18.6894 20.2228 18.7181 20.2499 18.7452 20.2783C18.7722 20.307 18.7976 20.3371 18.8213 20.3687C18.8495 20.4021 18.8804 20.4328 18.9144 20.4601C18.9485 20.4875 18.9847 20.5115 19.0235 20.5315C19.062 20.5519 19.1024 20.5681 19.1443 20.5806C19.1861 20.5929 19.2288 20.601 19.2723 20.6049C19.3158 20.6088 19.3593 20.6085 19.4028 20.6038C19.446 20.5993 19.4887 20.5904 19.5305 20.5773C19.5721 20.5644 19.612 20.5474 19.6504 20.5265C19.6887 20.5056 19.7246 20.4811 19.7584 20.4532C19.7918 20.425 19.8222 20.394 19.8496 20.36C19.8772 20.3263 19.9009 20.2897 19.9212 20.2512C19.9416 20.2125 19.9578 20.172 19.9701 20.1302C19.9823 20.0884 19.9907 20.0457 19.9946 20.0022C19.9985 19.9587 19.9979 19.9152 19.9935 19.8717C19.9887 19.8284 19.9798 19.7858 19.967 19.7442C19.9539 19.7024 19.9369 19.6625 19.9159 19.624C19.895 19.5858 19.8708 19.5498 19.8426 19.5164H19.8415Z" fill="white"/>
  </g>
  <path d="M2.50583 17.4094C2.71221 17.4292 2.91525 17.4666 3.11493 17.5212C3.3149 17.5762 3.50845 17.6476 3.69587 17.7357C3.88356 17.8238 4.06205 17.9276 4.2319 18.0464C4.40147 18.1652 4.55988 18.2977 4.70685 18.4438C4.87949 18.2656 5.06802 18.1064 5.27273 17.9658C5.47716 17.8255 5.69386 17.7067 5.92227 17.6097C6.15068 17.5126 6.38635 17.439 6.62954 17.3893C6.87246 17.3394 7.11816 17.3143 7.36638 17.3135C7.61459 17.314 7.86029 17.3391 8.10349 17.3888C8.34668 17.4387 8.58235 17.512 8.81076 17.6091C9.03917 17.7062 9.25559 17.825 9.4603 17.9655C9.66473 18.1061 9.85354 18.2656 10.0259 18.4438C10.1988 18.2659 10.3876 18.1066 10.592 17.9664C10.7968 17.8261 11.0135 17.7073 11.2416 17.6102C11.47 17.5132 11.7057 17.4395 11.9489 17.3896C12.1918 17.3397 12.4375 17.3143 12.6857 17.3135C12.9339 17.3137 13.1796 17.3388 13.4231 17.3885C13.6663 17.4381 13.9022 17.5118 14.1306 17.6088C14.3591 17.7062 14.5755 17.8252 14.7799 17.9661C14.9846 18.1066 15.1729 18.2664 15.3452 18.4452C15.4925 18.2952 15.6514 18.1585 15.8221 18.0352C15.9925 17.9123 16.1724 17.8043 16.3612 17.712C16.55 17.6194 16.7455 17.5436 16.9472 17.4841C17.1491 17.425 17.3544 17.3832 17.5635 17.3589L19.2921 12.8721C19.3086 12.8294 19.3203 12.7856 19.3278 12.7407C19.3351 12.6958 19.3378 12.6506 19.3359 12.6052C19.3339 12.5597 19.3272 12.5148 19.3161 12.4708C19.3049 12.4267 19.2896 12.384 19.2695 12.343C19.2497 12.302 19.226 12.2635 19.1981 12.2276C19.1702 12.1916 19.1393 12.1587 19.1047 12.1291C19.0701 12.0993 19.0327 12.0736 18.9931 12.0516C18.9533 12.0295 18.9114 12.0117 18.8679 11.9983L10.2242 9.33851C10.0939 9.29862 9.96342 9.29862 9.83318 9.33851L1.18946 11.9983C1.14567 12.0117 1.10412 12.0293 1.06424 12.0513C1.02435 12.0733 0.986983 12.099 0.9524 12.1286C0.917817 12.1584 0.886581 12.191 0.858692 12.2273C0.830803 12.2633 0.806818 12.3017 0.786738 12.3427C0.766936 12.3837 0.751319 12.4261 0.740163 12.4705C0.729007 12.5145 0.722314 12.5594 0.720361 12.6049C0.718409 12.6504 0.720919 12.6958 0.728449 12.7407C0.735701 12.7856 0.747414 12.8294 0.763869 12.8721L2.50583 17.4094Z" fill="white"/>
  <path d="M10.611 8.06672L16.6761 9.93252V4.65446C16.6761 4.61095 16.6719 4.56744 16.6635 4.52477C16.6549 4.48182 16.6423 4.44027 16.6256 4.4001C16.6089 4.35966 16.5885 4.32146 16.5643 4.2852C16.54 4.24866 16.5124 4.2152 16.4814 4.18424C16.4505 4.15356 16.417 4.12595 16.3807 4.10169C16.3445 4.07742 16.306 4.05679 16.2658 4.04005C16.2254 4.0236 16.1838 4.01077 16.1409 4.0024C16.0982 3.99376 16.055 3.98957 16.0112 3.98957H12.0219V0.664882C12.0219 0.621375 12.0175 0.578146 12.0091 0.535197C12.0005 0.492526 11.9879 0.450971 11.9712 0.410531C11.9544 0.370092 11.9341 0.331883 11.9098 0.295627C11.8856 0.259371 11.8579 0.225625 11.827 0.194947C11.7963 0.163989 11.7626 0.136379 11.7263 0.112115C11.69 0.0878515 11.6518 0.0674922 11.6114 0.0507586C11.571 0.034025 11.5294 0.0214748 11.4867 0.0128291C11.4438 0.00446233 11.4006 0 11.3571 0H8.69725C8.65374 0 8.61052 0.00446233 8.56757 0.0128291C8.52489 0.0214748 8.48306 0.034025 8.4429 0.0507586C8.40246 0.0674922 8.36425 0.0878515 8.328 0.112115C8.29146 0.136379 8.25799 0.163989 8.22704 0.194947C8.19636 0.225625 8.16875 0.259371 8.14448 0.295627C8.12022 0.331883 8.09958 0.370092 8.08313 0.410531C8.0664 0.450971 8.05357 0.492526 8.0452 0.535197C8.03655 0.578146 8.03237 0.621375 8.03237 0.664882V3.98957H4.04281C3.9993 3.98957 3.95607 3.99376 3.91312 4.0024C3.87045 4.01077 3.8289 4.0236 3.78846 4.04005C3.74802 4.05679 3.70981 4.07742 3.67356 4.10169C3.6373 4.12595 3.60355 4.15356 3.57288 4.18424C3.54192 4.2152 3.51431 4.24866 3.49004 4.2852C3.46578 4.32146 3.44542 4.35966 3.42869 4.4001C3.41195 4.44027 3.3994 4.48182 3.39076 4.52477C3.38239 4.56744 3.37793 4.61095 3.37793 4.65446V9.93252L9.44078 8.0709C9.63098 8.01122 9.82593 7.98082 10.0256 7.98026C10.225 7.97942 10.4202 8.00843 10.611 8.06672ZM12.7002 5.98422H12.7133C12.7423 5.9845 12.771 5.98673 12.7998 5.99091C12.8285 5.99482 12.8567 6.00067 12.8845 6.00848C12.9127 6.01629 12.9398 6.02577 12.9665 6.03721C12.9933 6.04837 13.019 6.06147 13.0441 6.07625C13.0689 6.09076 13.0929 6.10693 13.1157 6.12478C13.1386 6.14263 13.1601 6.16188 13.1805 6.18251C13.2008 6.20315 13.2195 6.22491 13.2371 6.24805C13.2546 6.2712 13.2705 6.29546 13.2848 6.32057C13.299 6.34567 13.3118 6.3716 13.3227 6.39866C13.3336 6.42543 13.3425 6.45276 13.35 6.48093C13.3573 6.50882 13.3628 6.53727 13.3665 6.56599C13.3701 6.59472 13.3718 6.62344 13.3715 6.65245C13.3715 6.68145 13.3695 6.71018 13.3656 6.73891C13.3617 6.76763 13.3559 6.79608 13.3483 6.82397C13.3405 6.85186 13.3313 6.87919 13.3202 6.90596C13.3087 6.93274 13.2959 6.9584 13.2814 6.9835C13.2669 7.0086 13.2507 7.03258 13.2332 7.05545C13.2153 7.07832 13.1963 7.10007 13.1757 7.12043C13.1551 7.14107 13.1333 7.16004 13.1104 7.17761C13.0873 7.19518 13.0633 7.21107 13.0382 7.22558C13.0131 7.24008 12.9872 7.25263 12.9604 7.26378C12.9336 7.27494 12.9063 7.28414 12.8781 7.29167C12.8502 7.29892 12.8221 7.30478 12.7933 7.30841C12.7646 7.31231 12.7356 7.31398 12.7066 7.31398C12.6779 7.31398 12.6489 7.31231 12.6202 7.30841C12.5914 7.30478 12.5633 7.29892 12.5351 7.29167C12.5072 7.28414 12.4799 7.27494 12.4531 7.26378C12.4263 7.25263 12.4004 7.24008 12.3753 7.22558C12.3502 7.21107 12.3259 7.19518 12.3031 7.17761C12.2799 7.16004 12.2582 7.14107 12.2378 7.12043C12.2172 7.10007 12.1982 7.07832 12.1803 7.05545C12.1628 7.03258 12.1466 7.0086 12.1321 6.9835C12.1173 6.9584 12.1045 6.93274 12.0933 6.90596C12.0822 6.87919 12.0727 6.85186 12.0652 6.82397C12.0576 6.79608 12.0518 6.76763 12.0479 6.73891C12.044 6.71018 12.042 6.68145 12.0417 6.65245C12.0417 6.62344 12.0434 6.59472 12.047 6.56599C12.0507 6.53727 12.0562 6.50882 12.0635 6.48093C12.0707 6.45276 12.0799 6.42543 12.0908 6.39866C12.1017 6.3716 12.1142 6.34567 12.1287 6.32057C12.143 6.29546 12.1589 6.2712 12.1764 6.24805C12.1937 6.22491 12.2127 6.20315 12.2331 6.18251C12.2534 6.16188 12.2749 6.14263 12.2978 6.12478C12.3206 6.10693 12.3446 6.09076 12.3694 6.07625C12.3945 6.06147 12.4202 6.04837 12.447 6.03721C12.4735 6.02577 12.5008 6.01629 12.5287 6.00848C12.5566 6.00067 12.585 5.99482 12.6137 5.99091C12.6422 5.98673 12.6712 5.9845 12.7002 5.98422ZM7.39398 7.31398C7.35048 7.31398 7.30725 7.3098 7.2643 7.30143C7.22163 7.29279 7.18007 7.28024 7.13963 7.2635C7.0992 7.24677 7.06099 7.22641 7.02473 7.20215C6.98847 7.17788 6.95473 7.15027 6.92405 7.11932C6.89309 7.08836 6.86548 7.05489 6.84122 7.01864C6.81696 6.98238 6.7966 6.94389 6.77986 6.90373C6.76313 6.86329 6.75058 6.82174 6.74193 6.77879C6.73357 6.73612 6.7291 6.69289 6.7291 6.6491C6.7291 6.60587 6.73329 6.56292 6.74165 6.52025C6.7503 6.47786 6.76257 6.43631 6.77903 6.39615C6.79576 6.35626 6.81584 6.31806 6.83983 6.2818C6.86381 6.24582 6.89114 6.21208 6.92154 6.1814C6.95222 6.15044 6.98541 6.12311 7.02111 6.09857C7.05708 6.0743 7.09501 6.05366 7.13489 6.03693C7.17505 6.01992 7.21605 6.00709 7.25872 5.99816C7.30111 5.98924 7.34406 5.98478 7.38757 5.98422H7.40068C7.44446 5.98422 7.48769 5.98868 7.53036 5.99705C7.57331 6.00569 7.61487 6.01824 7.65531 6.03498C7.69547 6.05171 7.73396 6.07207 7.77021 6.09633C7.80647 6.1206 7.83993 6.14821 7.87089 6.17917C7.90185 6.20985 7.92946 6.24359 7.95344 6.27985C7.97771 6.3161 7.99835 6.35431 8.01508 6.39475C8.03181 6.43519 8.04436 6.47675 8.05273 6.51942C8.06138 6.56237 8.06556 6.60559 8.06556 6.6491C8.06556 6.69289 8.06138 6.73612 8.05273 6.77879C8.04436 6.82174 8.03181 6.86329 8.01508 6.90373C7.99835 6.94389 7.97771 6.98238 7.95344 7.01864C7.92946 7.05489 7.90185 7.08836 7.87089 7.11932C7.83993 7.15027 7.80647 7.17788 7.77021 7.20215C7.73396 7.22641 7.69547 7.24677 7.65531 7.2635C7.61487 7.28024 7.57331 7.29279 7.53036 7.30143C7.48769 7.3098 7.44446 7.31398 7.40068 7.31398H7.39398ZM10.0404 5.98422H10.0538C10.0828 5.9845 10.1115 5.98673 10.1402 5.99091C10.169 5.99482 10.1971 6.00067 10.225 6.00848C10.2529 6.01629 10.2802 6.02577 10.307 6.03721C10.3335 6.04837 10.3595 6.06147 10.3843 6.07625C10.4094 6.09076 10.4331 6.10693 10.4559 6.12478C10.4788 6.14263 10.5003 6.16188 10.5207 6.18251C10.541 6.20315 10.56 6.22491 10.5775 6.24805C10.5948 6.2712 10.6107 6.29546 10.6252 6.32057C10.6395 6.34567 10.652 6.3716 10.6629 6.39866C10.6738 6.42543 10.683 6.45276 10.6902 6.48093C10.6977 6.50882 10.703 6.53727 10.7067 6.56599C10.7103 6.59472 10.7123 6.62344 10.712 6.65245C10.7117 6.68145 10.7097 6.71018 10.7058 6.73891C10.7019 6.76763 10.6964 6.79608 10.6885 6.82397C10.681 6.85186 10.6715 6.87919 10.6604 6.90596C10.6492 6.93274 10.6364 6.9584 10.6219 6.9835C10.6071 7.0086 10.5912 7.03258 10.5734 7.05545C10.5558 7.07832 10.5365 7.10007 10.5162 7.12043C10.4956 7.14107 10.4738 7.16004 10.4506 7.17761C10.4278 7.19518 10.4038 7.21107 10.3787 7.22558C10.3536 7.24008 10.3277 7.25263 10.3009 7.26378C10.2741 7.27494 10.2465 7.28414 10.2186 7.29167C10.1907 7.29892 10.1623 7.30478 10.1335 7.30841C10.1048 7.31231 10.0761 7.31398 10.0471 7.31398C10.0181 7.31398 9.98936 7.31231 9.96063 7.30841C9.93191 7.30478 9.90346 7.29892 9.87557 7.29167C9.8474 7.28414 9.82007 7.27494 9.7933 7.26378C9.76653 7.25263 9.74059 7.24008 9.71549 7.22558C9.69039 7.21107 9.6664 7.19518 9.64353 7.17761C9.62039 7.16004 9.59863 7.14107 9.57799 7.12043C9.55763 7.10007 9.53839 7.07832 9.52082 7.05545C9.50297 7.03258 9.4868 7.0086 9.47229 6.9835C9.45779 6.9584 9.44496 6.93274 9.43381 6.90596C9.42265 6.87919 9.41317 6.85186 9.40564 6.82397C9.39783 6.79608 9.39225 6.76763 9.38835 6.73891C9.38444 6.71018 9.38221 6.68145 9.38221 6.65245C9.38193 6.62344 9.38388 6.59472 9.38751 6.56599C9.39114 6.53727 9.39643 6.50882 9.40369 6.48093C9.41122 6.45276 9.42042 6.42543 9.4313 6.39866C9.44217 6.3716 9.45472 6.34567 9.46895 6.32057C9.48345 6.29546 9.49935 6.2712 9.51664 6.24805C9.53421 6.22491 9.55317 6.20315 9.57353 6.18251C9.59361 6.16188 9.61537 6.14263 9.63823 6.12478C9.6611 6.10693 9.68481 6.09076 9.70991 6.07625C9.73473 6.06147 9.76067 6.04837 9.78716 6.03721C9.81394 6.02577 9.84127 6.01629 9.86916 6.00848C9.89705 6.00067 9.92522 5.99482 9.95394 5.99091C9.98267 5.98673 10.0114 5.9845 10.0404 5.98422Z" fill="white"/>
</svg>