<svg xmlns="http://www.w3.org/2000/svg" width="20" height="20" viewBox="0 0 20 20" fill="none">
  <path d="M19.7946 0.204958C19.0487 -0.540255 16.0859 0.912641 15.0933 1.90635L12.5261 4.47385L1.37197 2.5052C1.287 2.48992 1.19935 2.51699 1.13824 2.57838L0.078176 3.6391C0.0178688 3.69968 -0.0102746 3.78546 0.00339508 3.86963C0.0170647 3.95407 0.069867 4.02618 0.146256 4.06452L8.87525 8.42964L5.17856 13.1604L1.90187 12.5819C1.8161 12.5682 1.72925 12.5937 1.66814 12.6551L0.872623 13.4504C0.813924 13.5091 0.785244 13.5933 0.797038 13.6759C0.810707 13.7601 0.860025 13.8324 0.934002 13.8708L3.63201 15.3237L2.94317 16.701C2.89198 16.8031 2.91261 16.9264 2.99329 17.0063C3.04529 17.0575 3.1123 17.0829 3.18118 17.0829C3.22139 17.0829 3.26213 17.0744 3.29965 17.0556L4.6768 16.3667L6.12953 19.065C6.16947 19.1382 6.24184 19.1894 6.32439 19.2031C6.33699 19.2047 6.34905 19.2047 6.36272 19.2047C6.43241 19.2047 6.49942 19.1784 6.55061 19.128L7.34586 18.3319C7.40724 18.2705 7.43431 18.1839 7.41984 18.0994L6.84143 14.821L11.5717 11.1237L15.9363 19.8536C15.9746 19.9303 16.0478 19.9831 16.1311 19.9965C16.1456 19.9992 16.159 20 16.1754 20C16.2451 20 16.3105 19.9729 16.3617 19.9225L17.4231 18.8618C17.4826 18.8004 17.5115 18.7138 17.4962 18.6278L15.5281 7.47239L18.095 4.90516C19.0886 3.91226 20.5405 0.950974 19.7946 0.204958Z" fill="white"/>
</svg>