<svg xmlns="http://www.w3.org/2000/svg" width="20" height="20" viewBox="0 0 20 20" fill="none">
  <path d="M9.28516 14.643H10.7138V12.5H9.28516V14.643Z" fill="white"/>
  <mask id="mask0_275_4668" style="mask-type:luminance" maskUnits="userSpaceOnUse" x="0" y="0" width="20" height="20">
    <path d="M0 0H20V20H0V0Z" fill="white"/>
  </mask>
  <g mask="url(#mask0_275_4668)">
    <path d="M10 19.2857C4.87995 19.2857 0.714323 15.1201 0.714323 10C0.714323 4.87995 4.87995 0.714323 10 0.714323C15.1201 0.714323 19.2857 4.87995 19.2857 10C19.2857 15.1201 15.1201 19.2857 10 19.2857ZM10 0C4.48516 0 0 4.48516 0 10C0 15.5148 4.48516 20 10 20C15.5148 20 20 15.5148 20 10C20 4.48516 15.5148 0 10 0Z" fill="white"/>
  </g>
  <path d="M14.2862 13.2139H15.0005V13.9283H14.2862V13.2139ZM14.2862 11.7853H15.0005V12.4996H14.2862V11.7853ZM14.2862 10.3566H15.0005V11.071H14.2862V10.3566ZM13.2148 14.6426H16.0719V9.64258H13.2148V14.6426Z" fill="white"/>
  <path d="M8.21432 10.3561H8.92865V11.0704H8.21432V10.3561ZM8.21432 8.92773H8.92865V9.64206H8.21432V8.92773ZM8.21432 7.49909H8.92865V8.21341H8.21432V7.49909ZM8.21432 6.07044H8.92865V6.78477H8.21432V6.07044ZM8.21432 4.64206H8.92865V5.35612H8.21432V4.64206ZM9.64297 10.3561H10.357V11.0704H9.64297V10.3561ZM9.64297 8.92773H10.357V9.64206H9.64297V8.92773ZM9.64297 7.49909H10.357V8.21341H9.64297V7.49909ZM9.64297 6.07044H10.357V6.78477H9.64297V6.07044ZM9.64297 4.64206H10.357V5.35612H9.64297V4.64206ZM11.0714 10.3561H11.7857V11.0704H11.0714V10.3561ZM11.0714 8.92773H11.7857V9.64206H11.0714V8.92773ZM11.0714 7.49909H11.7857V8.21341H11.0714V7.49909ZM11.0714 6.07044H11.7857V6.78477H11.0714V6.07044ZM11.0714 4.64206H11.7857V5.35612H11.0714V4.64206ZM7.5 14.6421H8.57135V12.1421C8.57135 11.9452 8.73177 11.7848 8.92865 11.7848H11.0714C11.2682 11.7848 11.4286 11.9452 11.4286 12.1421V14.6421H12.5V3.92773H7.5V14.6421Z" fill="white"/>
  <path d="M5.00007 13.2139H5.71439V13.9283H5.00007V13.2139ZM5.00007 11.7853H5.71439V12.4996H5.00007V11.7853ZM5.00007 10.3566H5.71439V11.071H5.00007V10.3566ZM3.92871 14.6426H6.78574V9.64258H3.92871V14.6426Z" fill="white"/>
  <path d="M16.4287 15.3581H3.57142C3.3748 15.3581 3.21439 15.1977 3.21439 15.001V9.28672C3.21439 9.0901 3.3748 8.92969 3.57142 8.92969H6.78574V3.5724C6.78574 3.37578 6.94616 3.21536 7.14303 3.21536H12.8571C13.054 3.21536 13.2144 3.37578 13.2144 3.5724V8.92969H16.4287C16.6253 8.92969 16.7857 9.0901 16.7857 9.28672V15.001C16.7857 15.1977 16.6253 15.3581 16.4287 15.3581ZM10.0001 1.42969C5.2735 1.42969 1.42871 5.27448 1.42871 10.001C1.42871 14.7276 5.2735 18.5724 10.0001 18.5724C14.7266 18.5724 18.5714 14.7276 18.5714 10.001C18.5714 5.27448 14.7266 1.42969 10.0001 1.42969Z" fill="white"/>
</svg>