<svg xmlns="http://www.w3.org/2000/svg" width="18" height="15" viewBox="0 0 18 15" fill="none">
  <path d="M15.525 6.17647C16.1553 6.17644 16.7618 6.41214 17.2209 6.83549C17.6799 7.25885 17.957 7.83796 17.9955 8.45471L18 8.60294V14.3382C17.9999 14.5059 17.935 14.6673 17.8182 14.7898C17.7015 14.9123 17.5416 14.9868 17.371 14.9983C17.2004 15.0097 17.0317 14.9572 16.899 14.8514C16.7664 14.7456 16.6796 14.5943 16.6563 14.4282L16.65 14.3382V12.3529H1.35V14.3382C1.34999 14.4982 1.29092 14.6527 1.18371 14.7732C1.0765 14.8937 0.928398 14.9721 0.7668 14.9938L0.675 15C0.511886 15 0.354292 14.9421 0.231362 14.837C0.108433 14.7319 0.0284835 14.5867 0.00629998 14.4282L3.0497e-09 14.3382V8.60294C-3.12653e-05 7.98504 0.240383 7.39041 0.672204 6.94033C1.10402 6.49025 1.69472 6.21863 2.3238 6.18088L2.475 6.17647H15.525ZM4.275 2.9899e-09H13.725C14.3553 -3.06523e-05 14.9618 0.235669 15.4209 0.659023C15.8799 1.08238 16.157 1.66149 16.1955 2.27824L16.2 2.42647V5.29412H13.5L13.4937 5.19088C13.47 4.99393 13.3793 4.81054 13.2363 4.6703C13.0933 4.53007 12.9062 4.44117 12.7053 4.41794L12.6 4.41176H10.8C10.5796 4.41179 10.3668 4.49114 10.2021 4.63475C10.0373 4.77836 9.93209 4.97625 9.9063 5.19088L9.9 5.29412H8.1L8.0937 5.19088C8.07001 4.99393 7.97933 4.81054 7.83629 4.6703C7.69325 4.53007 7.50619 4.44117 7.3053 4.41794L7.2 4.41176H5.4C5.17956 4.41179 4.9668 4.49114 4.80206 4.63475C4.63733 4.77836 4.53209 4.97625 4.5063 5.19088L4.5 5.29412H1.8V2.42647C1.79997 1.80857 2.04038 1.21394 2.4722 0.763855C2.90402 0.313775 3.49472 0.0421599 4.1238 0.00441187L4.275 2.9899e-09Z" fill="#fff"/>
</svg>